<svg width="260" height="100" viewBox="0 0 260 100" fill="none" xmlns="http://www.w3.org/2000/svg">
<mask id="path-1-outside-1_48_141" maskUnits="userSpaceOnUse" x="0" y="0" width="260" height="100" fill="black">
<rect fill="white" width="260" height="100"/>
<path d="M1.74272 96V2.204H35.6717C43.0077 2.204 49.3394 4.64933 54.6667 9.54C60.0814 14.3433 62.7887 20.413 62.7887 27.749C62.7887 32.203 61.6097 36.133 59.2517 39.539C56.9811 42.945 53.9244 45.5213 50.0817 47.268V47.792C54.7104 49.364 58.5094 52.0713 61.4787 55.914C64.4481 59.7567 65.9327 64.2107 65.9327 69.276C65.9327 76.9613 63.0944 83.3367 57.4177 88.402C51.8284 93.4673 45.1911 96 37.5057 96H1.74272ZM13.7947 42.421H35.6717C40.2131 42.421 43.8374 40.9363 46.5447 37.967C49.3394 34.9103 50.7367 31.5917 50.7367 28.011C50.7367 24.4303 49.383 21.1553 46.6757 18.186C44.0557 15.2167 40.5624 13.732 36.1957 13.732H13.7947V42.421ZM13.7947 84.472H38.0297C42.6584 84.472 46.4137 82.8563 49.2957 79.625C52.1777 76.3937 53.6187 72.8567 53.6187 69.014C53.6187 65.1713 52.1341 61.678 49.1647 58.534C46.1954 55.3027 42.309 53.687 37.5057 53.687H13.7947V84.472ZM132.317 96H120.789V87.092H120.265C118.431 90.1487 115.636 92.7687 111.881 94.952C108.126 97.048 104.152 98.096 99.96 98.096C91.9253 98.096 85.812 95.6507 81.62 90.76C77.5153 85.8693 75.463 79.3193 75.463 71.11V31.81H87.515V69.145C87.515 81.1097 92.7986 87.092 103.366 87.092C108.344 87.092 112.405 85.0833 115.549 81.066C118.693 77.0487 120.265 72.42 120.265 67.18V31.81H132.317V96ZM158.647 15.697C156.988 17.3563 154.979 18.186 152.621 18.186C150.263 18.186 148.254 17.3563 146.595 15.697C144.936 14.0377 144.106 12.029 144.106 9.67099C144.106 7.31299 144.936 5.30433 146.595 3.64499C148.254 1.98566 150.263 1.156 152.621 1.156C154.979 1.156 156.988 1.98566 158.647 3.64499C160.306 5.30433 161.136 7.31299 161.136 9.67099C161.136 12.029 160.306 14.0377 158.647 15.697ZM158.647 96H146.595V31.81H158.647V96ZM184.942 96H172.89V2.204H184.942V96ZM224.402 98.096C216.105 98.096 208.944 94.821 202.918 88.271C196.892 81.721 193.879 73.599 193.879 63.905C193.879 54.211 196.892 46.089 202.918 39.539C208.944 32.989 216.105 29.714 224.402 29.714C229.292 29.714 233.659 30.762 237.502 32.858C241.432 34.954 244.357 37.574 246.279 40.718H246.803L246.279 31.81V2.204H258.331V96H246.803V87.092H246.279C244.357 90.236 241.432 92.856 237.502 94.952C233.659 97.048 229.292 98.096 224.402 98.096ZM226.367 87.092C232.043 87.092 236.847 84.996 240.777 80.804C244.794 76.612 246.803 70.979 246.803 63.905C246.803 56.831 244.794 51.198 240.777 47.006C236.847 42.814 232.043 40.718 226.367 40.718C220.777 40.718 215.974 42.8577 211.957 47.137C207.939 51.329 205.931 56.9183 205.931 63.905C205.931 70.8917 207.939 76.5247 211.957 80.804C215.974 84.996 220.777 87.092 226.367 87.092Z"/>
</mask>
<path d="M1.74271 96H0.742715V97H1.74271V96ZM1.74271 2.204V1.204H0.742715V2.204H1.74271ZM54.6667 9.54L53.9904 10.2766L53.9967 10.2824L54.0031 10.2881L54.6667 9.54ZM59.2517 39.539L58.4295 38.9698L58.4245 38.977L58.4197 38.9843L59.2517 39.539ZM50.0817 47.268L49.6679 46.3576L49.0817 46.6241V47.268H50.0817ZM50.0817 47.792H49.0817V48.5085L49.7601 48.7389L50.0817 47.792ZM61.4787 55.914L60.6874 56.5254L61.4787 55.914ZM57.4177 88.402L56.7519 87.6558L56.7462 87.661L57.4177 88.402ZM13.7947 42.421H12.7947V43.421H13.7947V42.421ZM46.5447 37.967L45.8067 37.2922L45.8058 37.2932L46.5447 37.967ZM46.6757 18.186L45.9259 18.8476L45.9313 18.8537L45.9368 18.8597L46.6757 18.186ZM13.7947 13.732V12.732H12.7947V13.732H13.7947ZM13.7947 84.472H12.7947V85.472H13.7947V84.472ZM49.2957 79.625L50.042 80.2906L49.2957 79.625ZM49.1647 58.534L48.4283 59.2107L48.4377 59.2206L49.1647 58.534ZM13.7947 53.687V52.687H12.7947V53.687H13.7947ZM1.74271 96H2.74271V2.204H1.74271H0.742715V96H1.74271ZM1.74271 2.204V3.204H35.6717V2.204V1.204H1.74271V2.204ZM35.6717 2.204V3.204C42.7613 3.204 48.8505 5.55804 53.9904 10.2766L54.6667 9.54L55.343 8.80334C49.8282 3.74062 43.2542 1.204 35.6717 1.204V2.204ZM54.6667 9.54L54.0031 10.2881C59.2005 14.8987 61.7887 20.6946 61.7887 27.749H62.7887H63.7887C63.7887 20.1314 60.9622 13.788 55.3303 8.79192L54.6667 9.54ZM62.7887 27.749H61.7887C61.7887 32.0157 60.6629 35.7438 58.4295 38.9698L59.2517 39.539L60.0739 40.1082C62.5565 36.5222 63.7887 32.3903 63.7887 27.749H62.7887ZM59.2517 39.539L58.4197 38.9843C56.2558 42.23 53.3463 44.6856 49.6679 46.3576L50.0817 47.268L50.4955 48.1784C54.5025 46.357 57.7063 43.66 60.0838 40.0937L59.2517 39.539ZM50.0817 47.268H49.0817V47.792H50.0817H51.0817V47.268H50.0817ZM50.0817 47.792L49.7601 48.7389C54.204 50.2481 57.8391 52.8394 60.6874 56.5254L61.4787 55.914L62.27 55.3025C59.1796 51.3032 55.2168 48.4799 50.4033 46.8451L50.0817 47.792ZM61.4787 55.914L60.6874 56.5254C63.5153 60.1851 64.9327 64.4217 64.9327 69.276H65.9327H66.9327C66.9327 63.9996 65.3808 59.3283 62.27 55.3025L61.4787 55.914ZM65.9327 69.276H64.9327C64.9327 76.6797 62.2135 82.7825 56.7519 87.6559L57.4177 88.402L58.0835 89.1481C63.9753 83.8909 66.9327 77.243 66.9327 69.276H65.9327ZM57.4177 88.402L56.7462 87.661C51.3446 92.5562 44.948 95 37.5057 95V96V97C45.4341 97 52.3122 94.3785 58.0892 89.143L57.4177 88.402ZM37.5057 96V95H1.74271V96V97H37.5057V96ZM13.7947 42.421V43.421H35.6717V42.421V41.421H13.7947V42.421ZM35.6717 42.421V43.421C40.4538 43.421 44.3612 41.8461 47.2837 38.6408L46.5447 37.967L45.8058 37.2932C43.3136 40.0266 39.9723 41.421 35.6717 41.421V42.421ZM46.5447 37.967L47.2827 38.6418C50.2177 35.4316 51.7367 31.8803 51.7367 28.011H50.7367H49.7367C49.7367 31.3031 48.461 34.389 45.8067 37.2922L46.5447 37.967ZM50.7367 28.011H51.7367C51.7367 24.1501 50.2678 20.6415 47.4147 17.5122L46.6757 18.186L45.9368 18.8597C48.4983 21.6691 49.7367 24.7106 49.7367 28.011H50.7367ZM46.6757 18.186L47.4256 17.5244C44.5949 14.3163 40.8163 12.732 36.1957 12.732V13.732V14.732C40.3085 14.732 43.5165 16.117 45.9259 18.8476L46.6757 18.186ZM36.1957 13.732V12.732H13.7947V13.732V14.732H36.1957V13.732ZM13.7947 13.732H12.7947V42.421H13.7947H14.7947V13.732H13.7947ZM13.7947 84.472V85.472H38.0297V84.472V83.472H13.7947V84.472ZM38.0297 84.472V85.472C42.9212 85.472 46.956 83.7507 50.042 80.2906L49.2957 79.625L48.5494 78.9594C45.8714 81.962 42.3955 83.472 38.0297 83.472V84.472ZM49.2957 79.625L50.042 80.2906C53.0652 76.901 54.6187 73.1336 54.6187 69.014H53.6187H52.6187C52.6187 72.5797 51.2902 75.8864 48.5494 78.9594L49.2957 79.625ZM53.6187 69.014H54.6187C54.6187 64.8833 53.0126 61.1518 49.8917 57.8474L49.1647 58.534L48.4377 59.2206C51.2555 62.2042 52.6187 65.4593 52.6187 69.014H53.6187ZM49.1647 58.534L49.901 57.8574C46.7232 54.3992 42.5594 52.687 37.5057 52.687V53.687V54.687C42.0587 54.687 45.6675 56.2061 48.4284 59.2106L49.1647 58.534ZM37.5057 53.687V52.687H13.7947V53.687V54.687H37.5057V53.687ZM13.7947 53.687H12.7947V84.472H13.7947H14.7947V53.687H13.7947ZM132.317 96V97H133.317V96H132.317ZM120.789 96H119.789V97H120.789V96ZM120.789 87.092H121.789V86.092H120.789V87.092ZM120.265 87.092V86.092H119.699L119.407 86.5775L120.265 87.092ZM111.881 94.952L112.368 95.8252L112.376 95.8209L112.384 95.8165L111.881 94.952ZM81.62 90.76L80.854 91.4029L80.8607 91.4108L81.62 90.76ZM75.463 31.81V30.81H74.463V31.81H75.463ZM87.515 31.81H88.515V30.81H87.515V31.81ZM115.549 81.066L114.761 80.4497L115.549 81.066ZM120.265 31.81V30.81H119.265V31.81H120.265ZM132.317 31.81H133.317V30.81H132.317V31.81ZM132.317 96V95H120.789V96V97H132.317V96ZM120.789 96H121.789V87.092H120.789H119.789V96H120.789ZM120.789 87.092V86.092H120.265V87.092V88.092H120.789V87.092ZM120.265 87.092L119.407 86.5775C117.677 89.461 115.019 91.9706 111.378 94.0875L111.881 94.952L112.384 95.8165C116.253 93.5667 119.185 90.8364 121.122 87.6065L120.265 87.092ZM111.881 94.952L111.394 94.0788C107.783 96.0939 103.977 97.096 99.96 97.096V98.096V99.096C104.327 99.096 108.468 98.0021 112.368 95.8252L111.881 94.952ZM99.96 98.096V97.096C92.1389 97.096 86.3356 94.725 82.3792 90.1092L81.62 90.76L80.8607 91.4108C85.2883 96.5763 91.7116 99.096 99.96 99.096V98.096ZM81.62 90.76L82.3859 90.1171C78.4713 85.4529 76.463 79.1527 76.463 71.11H75.463H74.463C74.463 79.4859 76.5593 86.2858 80.854 91.4029L81.62 90.76ZM75.463 71.11H76.463V31.81H75.463H74.463V71.11H75.463ZM75.463 31.81V32.81H87.515V31.81V30.81H75.463V31.81ZM87.515 31.81H86.515V69.145H87.515H88.515V31.81H87.515ZM87.515 69.145H86.515C86.515 75.253 87.8609 80.0208 90.7282 83.2672C93.6164 86.5373 97.8937 88.092 103.366 88.092V87.092V86.092C98.2709 86.092 94.6227 84.6555 92.2272 81.9433C89.8108 79.2073 88.515 75.0016 88.515 69.145H87.515ZM103.366 87.092V88.092C108.66 88.092 113.008 85.9348 116.336 81.6823L115.549 81.066L114.761 80.4497C111.802 84.2318 108.028 86.092 103.366 86.092V87.092ZM115.549 81.066L116.336 81.6823C119.622 77.4839 121.265 72.6368 121.265 67.18H120.265H119.265C119.265 72.2032 117.764 76.6134 114.761 80.4497L115.549 81.066ZM120.265 67.18H121.265V31.81H120.265H119.265V67.18H120.265ZM120.265 31.81V32.81H132.317V31.81V30.81H120.265V31.81ZM132.317 31.81H131.317V96H132.317H133.317V31.81H132.317ZM158.647 15.697L157.94 14.9899L158.647 15.697ZM146.595 15.697L145.888 16.4041L146.595 15.697ZM146.595 3.64499L145.888 2.93789L146.595 3.64499ZM158.647 3.64499L157.94 4.3521L158.647 3.64499ZM158.647 96V97H159.647V96H158.647ZM146.595 96H145.595V97H146.595V96ZM146.595 31.81V30.81H145.595V31.81H146.595ZM158.647 31.81H159.647V30.81H158.647V31.81ZM158.647 15.697L157.94 14.9899C156.469 16.4607 154.715 17.186 152.621 17.186V18.186V19.186C155.243 19.186 157.506 18.252 159.354 16.4041L158.647 15.697ZM152.621 18.186V17.186C150.527 17.186 148.773 16.4607 147.302 14.9899L146.595 15.697L145.888 16.4041C147.736 18.252 149.999 19.186 152.621 19.186V18.186ZM146.595 15.697L147.302 14.9899C145.831 13.5191 145.106 11.7652 145.106 9.671H144.106H143.106C143.106 12.2928 144.04 14.5562 145.888 16.4041L146.595 15.697ZM144.106 9.671H145.106C145.106 7.57677 145.831 5.82288 147.302 4.3521L146.595 3.64499L145.888 2.93789C144.04 4.78577 143.106 7.04922 143.106 9.671H144.106ZM146.595 3.64499L147.302 4.3521C148.773 2.88132 150.527 2.15599 152.621 2.15599V1.15599V0.155994C149.999 0.155994 147.736 1.09 145.888 2.93789L146.595 3.64499ZM152.621 1.15599V2.15599C154.715 2.15599 156.469 2.88132 157.94 4.3521L158.647 3.64499L159.354 2.93789C157.506 1.09 155.243 0.155994 152.621 0.155994V1.15599ZM158.647 3.64499L157.94 4.3521C159.411 5.82288 160.136 7.57677 160.136 9.671H161.136H162.136C162.136 7.04922 161.202 4.78577 159.354 2.93789L158.647 3.64499ZM161.136 9.671H160.136C160.136 11.7652 159.411 13.5191 157.94 14.9899L158.647 15.697L159.354 16.4041C161.202 14.5562 162.136 12.2928 162.136 9.671H161.136ZM158.647 96V95H146.595V96V97H158.647V96ZM146.595 96H147.595V31.81H146.595H145.595V96H146.595ZM146.595 31.81V32.81H158.647V31.81V30.81H146.595V31.81ZM158.647 31.81H157.647V96H158.647H159.647V31.81H158.647ZM184.942 96V97H185.942V96H184.942ZM172.89 96H171.89V97H172.89V96ZM172.89 2.204V1.204H171.89V2.204H172.89ZM184.942 2.204H185.942V1.204H184.942V2.204ZM184.942 96V95H172.89V96V97H184.942V96ZM172.89 96H173.89V2.204H172.89H171.89V96H172.89ZM172.89 2.204V3.204H184.942V2.204V1.204H172.89V2.204ZM184.942 2.204H183.942V96H184.942H185.942V2.204H184.942ZM202.918 88.271L203.654 87.5939L202.918 88.271ZM202.918 39.539L202.182 38.8619L202.918 39.539ZM237.502 32.858L237.023 33.7359L237.031 33.7403L237.502 32.858ZM246.279 40.718L245.425 41.2394L245.718 41.718H246.279V40.718ZM246.803 40.718V41.718H247.863L247.801 40.6593L246.803 40.718ZM246.279 31.81H245.279V31.8394L245.281 31.8687L246.279 31.81ZM246.279 2.204V1.204H245.279V2.204H246.279ZM258.331 2.204H259.331V1.204H258.331V2.204ZM258.331 96V97H259.331V96H258.331ZM246.803 96H245.803V97H246.803V96ZM246.803 87.092H247.803V86.092H246.803V87.092ZM246.279 87.092V86.092H245.718L245.425 86.5705L246.279 87.092ZM237.502 94.952L237.031 94.0696L237.023 94.0741L237.502 94.952ZM240.777 80.804L240.055 80.1121L240.047 80.1201L240.777 80.804ZM240.777 47.006L240.047 47.69L240.055 47.6979L240.777 47.006ZM211.957 47.137L212.679 47.8289L212.686 47.8214L211.957 47.137ZM211.957 80.804L211.228 81.4885L211.235 81.4959L211.957 80.804ZM224.402 98.096V97.096C216.407 97.096 209.506 93.9549 203.654 87.5939L202.918 88.271L202.182 88.9481C208.382 95.6871 215.803 99.096 224.402 99.096V98.096ZM202.918 88.271L203.654 87.5939C197.813 81.2457 194.879 73.3725 194.879 63.905H193.879H192.879C192.879 73.8255 195.97 82.1963 202.182 88.9481L202.918 88.271ZM193.879 63.905H194.879C194.879 54.4375 197.813 46.5643 203.654 40.2161L202.918 39.539L202.182 38.8619C195.97 45.6137 192.879 53.9845 192.879 63.905H193.879ZM202.918 39.539L203.654 40.2161C209.506 33.8551 216.407 30.714 224.402 30.714V29.714V28.714C215.803 28.714 208.382 32.1229 202.182 38.8619L202.918 39.539ZM224.402 29.714V30.714C229.145 30.714 233.344 31.7291 237.023 33.7359L237.502 32.858L237.981 31.9801C233.974 29.7949 229.44 28.714 224.402 28.714V29.714ZM237.502 32.858L237.031 33.7403C240.837 35.7699 243.615 38.2767 245.425 41.2394L246.279 40.718L247.132 40.1965C245.1 36.8713 242.027 34.1381 237.972 31.9756L237.502 32.858ZM246.279 40.718V41.718H246.803V40.718V39.718H246.279V40.718ZM246.803 40.718L247.801 40.6593L247.277 31.7513L246.279 31.81L245.281 31.8687L245.804 40.7767L246.803 40.718ZM246.279 31.81H247.279V2.204H246.279H245.279V31.81H246.279ZM246.279 2.204V3.204H258.331V2.204V1.204H246.279V2.204ZM258.331 2.204H257.331V96H258.331H259.331V2.204H258.331ZM258.331 96V95H246.803V96V97H258.331V96ZM246.803 96H247.803V87.092H246.803H245.803V96H246.803ZM246.803 87.092V86.092H246.279V87.092V88.092H246.803V87.092ZM246.279 87.092L245.425 86.5705C243.615 89.5333 240.837 92.0401 237.031 94.0696L237.502 94.952L237.972 95.8344C242.027 93.6719 245.1 90.9387 247.132 87.6134L246.279 87.092ZM237.502 94.952L237.023 94.0741C233.344 96.0809 229.145 97.096 224.402 97.096V98.096V99.096C229.44 99.096 233.974 98.0151 237.981 95.8299L237.502 94.952ZM226.367 87.092V88.092C232.324 88.092 237.39 85.8788 241.506 81.4879L240.777 80.804L240.047 80.1201C236.304 84.1132 231.763 86.092 226.367 86.092V87.092ZM240.777 80.804L241.499 81.4959C245.732 77.0788 247.803 71.1773 247.803 63.905H246.803H245.803C245.803 70.7807 243.856 76.1452 240.055 80.1121L240.777 80.804ZM246.803 63.905H247.803C247.803 56.6327 245.732 50.7312 241.499 46.3141L240.777 47.006L240.055 47.6979C243.856 51.6648 245.803 57.0293 245.803 63.905H246.803ZM240.777 47.006L241.506 46.3221C237.39 41.9312 232.324 39.718 226.367 39.718V40.718V41.718C231.763 41.718 236.304 43.6968 240.047 47.6899L240.777 47.006ZM226.367 40.718V39.718C220.486 39.718 215.423 41.9832 211.228 46.4526L211.957 47.137L212.686 47.8214C216.525 43.7321 221.069 41.718 226.367 41.718V40.718ZM211.957 47.137L211.235 46.4451C207.004 50.8599 204.931 56.7162 204.931 63.905H205.931H206.931C206.931 57.1205 208.875 51.7981 212.679 47.8289L211.957 47.137ZM205.931 63.905H204.931C204.931 71.0945 207.004 76.9893 211.228 81.4884L211.957 80.804L212.686 80.1196C208.875 76.06 206.931 70.6888 206.931 63.905H205.931ZM211.957 80.804L211.235 81.4959C215.433 85.8761 220.493 88.092 226.367 88.092V87.092V86.092C221.062 86.092 216.516 84.1159 212.679 80.1121L211.957 80.804Z" fill="url(#paint0_linear_48_141)" mask="url(#path-1-outside-1_48_141)"/>
<defs>
<linearGradient id="paint0_linear_48_141" x1="222.5" y1="70" x2="221.5" y2="-33" gradientUnits="userSpaceOnUse">
<stop/>
<stop offset="1" stop-color="#A098FF"/>
</linearGradient>
</defs>
</svg>
