<svg width="258" height="75" viewBox="0 0 258 75" fill="none" xmlns="http://www.w3.org/2000/svg">
<path opacity="0.32" d="M49.6691 59.9814H34.9572V40.0244H15.256V59.7256L34.9572 59.9814V74.4375H0.544067V25.3125H49.6691V59.9814ZM69.9127 24.9287H104.582V59.8535H89.7418V39.7686H69.9127V59.5977L89.7418 59.8535V74.4375H55.0728V0.238281H69.9127V24.9287ZM159.238 74.4375H110.113V25.3125H159.238V74.4375ZM124.825 59.7256L134.676 59.8535L144.526 59.7256V40.0244H124.825V59.7256ZM179.994 73.2861V59.4697L208.138 59.5977V74.4375H165.154V24.8008H179.994V73.2861ZM222.978 59.4697H208.138V24.8008H222.978V59.4697ZM250.641 25.3125H257.294V40.0244H250.641V74.4375H235.93V40.0244H229.405V25.3125H235.93V0.75H250.641V25.3125Z" fill="white" fill-opacity="0.33"/>
</svg>
