<svg width="357" height="99" viewBox="0 0 357 99" fill="none" xmlns="http://www.w3.org/2000/svg">
<mask id="path-1-outside-1_113_6009" maskUnits="userSpaceOnUse" x="0" y="0" width="357" height="99" fill="black">
<rect fill="white" width="357" height="99"/>
<path d="M37.9086 1.204H50.4846L86.1166 95H73.9336L64.5016 69.193H24.0226L14.5906 95H2.40755L37.9086 1.204ZM60.7026 58.713L48.2576 24.915L44.4586 14.828H43.9346L40.2666 24.915L27.8216 58.713H60.7026ZM128.815 97.096C123.75 97.096 119.165 95.9607 115.06 93.69C111.043 91.332 108.03 88.4937 106.021 85.175H105.497V95H94.8864V1.204H106.021V28.845L105.497 38.146H106.021C108.03 34.74 111.043 31.9017 115.06 29.631C119.165 27.273 123.75 26.094 128.815 26.094C134.754 26.094 140.169 27.6223 145.059 30.679C149.95 33.7357 153.793 37.9713 156.587 43.386C159.382 48.8007 160.779 54.8703 160.779 61.595C160.779 68.407 159.382 74.5203 156.587 79.935C153.793 85.2623 149.95 89.4543 145.059 92.511C140.169 95.5677 134.754 97.096 128.815 97.096ZM127.505 87.009C131.348 87.009 134.972 85.961 138.378 83.865C141.784 81.769 144.492 78.7997 146.5 74.957C148.596 71.027 149.644 66.573 149.644 61.595C149.644 56.617 148.596 52.2067 146.5 48.364C144.492 44.434 141.784 41.421 138.378 39.325C134.972 37.229 131.348 36.181 127.505 36.181C123.663 36.181 120.038 37.229 116.632 39.325C113.226 41.421 110.519 44.3903 108.51 48.233C106.502 52.0757 105.497 56.5297 105.497 61.595C105.497 66.6603 106.502 71.1143 108.51 74.957C110.519 78.7997 113.226 81.769 116.632 83.865C120.038 85.961 123.663 87.009 127.505 87.009ZM203.035 97.096C196.485 97.096 190.59 95.524 185.35 92.38C180.11 89.236 176.005 84.9567 173.036 79.542C170.154 74.1273 168.713 68.145 168.713 61.595C168.713 55.045 170.154 49.0627 173.036 43.648C176.005 38.2333 180.11 33.954 185.35 30.81C190.59 27.666 196.485 26.094 203.035 26.094C209.585 26.094 215.48 27.666 220.72 30.81C225.96 33.954 230.021 38.2333 232.903 43.648C235.872 49.0627 237.357 55.045 237.357 61.595C237.357 68.145 235.872 74.1273 232.903 79.542C230.021 84.9567 225.96 89.236 220.72 92.38C215.48 95.524 209.585 97.096 203.035 97.096ZM203.035 87.009C207.14 87.009 210.939 86.0047 214.432 83.996C218.013 81.9 220.851 78.9307 222.947 75.088C225.13 71.2453 226.222 66.7477 226.222 61.595C226.222 56.4423 225.13 51.9447 222.947 48.102C220.851 44.2593 218.013 41.3337 214.432 39.325C210.939 37.229 207.14 36.181 203.035 36.181C198.93 36.181 195.088 37.229 191.507 39.325C187.926 41.3337 185.044 44.2593 182.861 48.102C180.765 51.9447 179.717 56.4423 179.717 61.595C179.717 66.7477 180.765 71.2453 182.861 75.088C185.044 78.9307 187.926 81.9 191.507 83.996C195.088 86.0047 198.93 87.009 203.035 87.009ZM272.442 97.096C264.407 97.096 258.25 94.738 253.971 90.022C249.779 85.306 247.683 78.7123 247.683 70.241V28.19H258.818V68.538C258.818 74.9133 260.259 79.5857 263.141 82.555C266.023 85.5243 269.909 87.009 274.8 87.009C278.555 87.009 281.874 86.0047 284.756 83.996C287.725 81.9873 289.996 79.3673 291.568 76.136C293.227 72.9047 294.057 69.4987 294.057 65.918V28.19H305.192V95H294.581V85.306H294.057C292.223 88.6247 289.297 91.4193 285.28 93.69C281.262 95.9607 276.983 97.096 272.442 97.096ZM346.513 96.048C343.805 96.048 341.273 95.6113 338.915 94.738C336.644 93.8647 334.723 92.6857 333.151 91.201C331.404 89.5417 330.094 87.6203 329.221 85.437C328.347 83.2537 327.911 80.59 327.911 77.446V38.277H316.252V28.19H327.911V9.32599H339.046V28.19H355.29V38.277H339.046V74.695C339.046 78.363 339.744 81.0703 341.142 82.817C342.801 84.7383 345.203 85.699 348.347 85.699C350.879 85.699 353.325 84.9567 355.683 83.472V94.345C354.373 94.9563 353.019 95.393 351.622 95.655C350.312 95.917 348.609 96.048 346.513 96.048Z"/>
</mask>
<path d="M37.9086 1.204V0.203997H37.2178L36.9733 0.850013L37.9086 1.204ZM50.4846 1.204L51.4194 0.848871L51.1744 0.203997H50.4846V1.204ZM86.1166 95V96H87.5662L87.0514 94.6449L86.1166 95ZM73.9336 95L72.9943 95.3433L73.2343 96H73.9336V95ZM64.5016 69.193L65.4408 68.8497L65.2008 68.193H64.5016V69.193ZM24.0226 69.193V68.193H23.3233L23.0833 68.8497L24.0226 69.193ZM14.5906 95V96H15.2898L15.5298 95.3433L14.5906 95ZM2.40755 95L1.4723 94.646L0.959828 96H2.40755V95ZM60.7026 58.713V59.713H62.1364L61.641 58.3675L60.7026 58.713ZM48.2576 24.915L49.196 24.5695L49.1934 24.5625L48.2576 24.915ZM44.4586 14.828L45.3944 14.4755L45.1505 13.828H44.4586V14.828ZM43.9346 14.828V13.828H43.2341L42.9948 14.4863L43.9346 14.828ZM40.2666 24.915L41.205 25.2605L41.2063 25.2567L40.2666 24.915ZM27.8216 58.713L26.8831 58.3675L26.3877 59.713H27.8216V58.713ZM37.9086 1.204V2.204H50.4846V1.204V0.203997H37.9086V1.204ZM50.4846 1.204L49.5497 1.55912L85.1817 95.3551L86.1166 95L87.0514 94.6449L51.4194 0.848871L50.4846 1.204ZM86.1166 95V94H73.9336V95V96H86.1166V95ZM73.9336 95L74.8728 94.6567L65.4408 68.8497L64.5016 69.193L63.5623 69.5363L72.9943 95.3433L73.9336 95ZM64.5016 69.193V68.193H24.0226V69.193V70.193H64.5016V69.193ZM24.0226 69.193L23.0833 68.8497L13.6513 94.6567L14.5906 95L15.5298 95.3433L24.9618 69.5363L24.0226 69.193ZM14.5906 95V94H2.40755V95V96H14.5906V95ZM2.40755 95L3.3428 95.354L38.8438 1.55798L37.9086 1.204L36.9733 0.850013L1.4723 94.646L2.40755 95ZM60.7026 58.713L61.641 58.3675L49.196 24.5695L48.2576 24.915L47.3191 25.2605L59.7641 59.0585L60.7026 58.713ZM48.2576 24.915L49.1934 24.5625L45.3944 14.4755L44.4586 14.828L43.5227 15.1804L47.3217 25.2675L48.2576 24.915ZM44.4586 14.828V13.828H43.9346V14.828V15.828H44.4586V14.828ZM43.9346 14.828L42.9948 14.4863L39.3268 24.5733L40.2666 24.915L41.2063 25.2567L44.8743 15.1697L43.9346 14.828ZM40.2666 24.915L39.3281 24.5695L26.8831 58.3675L27.8216 58.713L28.76 59.0585L41.205 25.2605L40.2666 24.915ZM27.8216 58.713V59.713H60.7026V58.713V57.713H27.8216V58.713ZM115.06 93.69L114.554 94.5524L114.565 94.5589L114.576 94.565L115.06 93.69ZM106.021 85.175L106.877 84.6572L106.585 84.175H106.021V85.175ZM105.497 85.175V84.175H104.497V85.175H105.497ZM105.497 95V96H106.497V95H105.497ZM94.8864 95H93.8864V96H94.8864V95ZM94.8864 1.204V0.203997H93.8864V1.204H94.8864ZM106.021 1.204H107.021V0.203997H106.021V1.204ZM106.021 28.845L107.02 28.9012L107.021 28.8731V28.845H106.021ZM105.497 38.146L104.499 38.0897L104.439 39.146H105.497V38.146ZM106.021 38.146V39.146H106.593L106.883 38.654L106.021 38.146ZM115.06 29.631L115.552 30.5016L115.559 30.4981L115.06 29.631ZM145.059 30.679L144.529 31.527L144.529 31.527L145.059 30.679ZM156.587 79.935L157.473 80.3996L157.476 80.3936L156.587 79.935ZM145.059 92.511L144.529 91.663L144.529 91.663L145.059 92.511ZM138.378 83.865L138.902 84.7167L138.902 84.7167L138.378 83.865ZM146.5 74.957L145.618 74.4864L145.614 74.4937L146.5 74.957ZM146.5 48.364L145.61 48.8191L145.616 48.8311L145.622 48.8429L146.5 48.364ZM138.378 39.325L137.854 40.1767L137.854 40.1767L138.378 39.325ZM116.632 39.325L117.156 40.1767L117.156 40.1767L116.632 39.325ZM108.51 74.957L109.397 74.4937L109.397 74.4937L108.51 74.957ZM116.632 83.865L117.156 83.0133L117.156 83.0133L116.632 83.865ZM128.815 97.096V96.096C123.905 96.096 119.489 94.9972 115.544 92.815L115.06 93.69L114.576 94.565C118.841 96.9241 123.595 98.096 128.815 98.096V97.096ZM115.06 93.69L115.567 92.8276C111.664 90.5369 108.784 87.8078 106.877 84.6572L106.021 85.175L105.166 85.6928C107.276 89.1795 110.422 92.1271 114.554 94.5524L115.06 93.69ZM106.021 85.175V84.175H105.497V85.175V86.175H106.021V85.175ZM105.497 85.175H104.497V95H105.497H106.497V85.175H105.497ZM105.497 95V94H94.8864V95V96H105.497V95ZM94.8864 95H95.8864V1.204H94.8864H93.8864V95H94.8864ZM94.8864 1.204V2.204H106.021V1.204V0.203997H94.8864V1.204ZM106.021 1.204H105.021V28.845H106.021H107.021V1.204H106.021ZM106.021 28.845L105.023 28.7888L104.499 38.0897L105.497 38.146L106.496 38.2022L107.02 28.9012L106.021 28.845ZM105.497 38.146V39.146H106.021V38.146V37.146H105.497V38.146ZM106.021 38.146L106.883 38.654C108.788 35.4228 111.662 32.7004 115.552 30.5016L115.06 29.631L114.568 28.7604C110.424 31.1029 107.272 34.0572 105.16 37.638L106.021 38.146ZM115.06 29.631L115.559 30.4981C119.501 28.2333 123.912 27.094 128.815 27.094V26.094V25.094C123.588 25.094 118.829 26.3127 114.562 28.7639L115.06 29.631ZM128.815 26.094V27.094C134.573 27.094 139.803 28.5727 144.529 31.527L145.059 30.679L145.589 29.831C140.535 26.6719 134.936 25.094 128.815 25.094V26.094ZM145.059 30.679L144.529 31.527C149.259 34.483 152.982 38.5802 155.699 43.8446L156.587 43.386L157.476 42.9274C154.604 37.3624 150.641 32.9883 145.589 29.831L145.059 30.679ZM156.587 43.386L155.699 43.8446C158.413 49.1033 159.779 55.0131 159.779 61.595H160.779H161.779C161.779 54.7276 160.351 48.498 157.476 42.9274L156.587 43.386ZM160.779 61.595H159.779C159.779 68.2665 158.412 74.2195 155.699 79.4764L156.587 79.935L157.476 80.3936C160.352 74.8211 161.779 68.5475 161.779 61.595H160.779ZM156.587 79.935L155.702 79.4705C152.986 84.6478 149.263 88.7045 144.529 91.663L145.059 92.511L145.589 93.359C150.637 90.2042 154.6 85.8769 157.473 80.3995L156.587 79.935ZM145.059 92.511L144.529 91.663C139.803 94.6173 134.573 96.096 128.815 96.096V97.096V98.096C134.936 98.096 140.535 96.5181 145.589 93.359L145.059 92.511ZM127.505 87.009V88.009C131.541 88.009 135.346 86.9055 138.902 84.7167L138.378 83.865L137.854 83.0133C134.599 85.0165 131.155 86.009 127.505 86.009V87.009ZM138.378 83.865L138.902 84.7167C142.475 82.5183 145.302 79.4087 147.387 75.4203L146.5 74.957L145.614 74.4937C143.682 78.1906 141.094 81.0197 137.854 83.0133L138.378 83.865ZM146.5 74.957L147.383 75.4276C149.565 71.3364 150.644 66.7175 150.644 61.595H149.644H148.644C148.644 66.4285 147.628 70.7176 145.618 74.4864L146.5 74.957ZM149.644 61.595H150.644C150.644 56.4729 149.565 51.8938 147.378 47.8851L146.5 48.364L145.622 48.8429C147.628 52.5195 148.644 56.7611 148.644 61.595H149.644ZM146.5 48.364L147.391 47.9089C145.308 43.8331 142.481 40.6752 138.902 38.4733L138.378 39.325L137.854 40.1767C141.088 42.1668 143.676 45.0349 145.61 48.8191L146.5 48.364ZM138.378 39.325L138.902 38.4733C135.346 36.2845 131.541 35.181 127.505 35.181V36.181V37.181C131.155 37.181 134.599 38.1735 137.854 40.1767L138.378 39.325ZM127.505 36.181V35.181C123.47 35.181 119.665 36.2845 116.108 38.4733L116.632 39.325L117.156 40.1767C120.412 38.1735 123.856 37.181 127.505 37.181V36.181ZM116.632 39.325L116.108 38.4733C112.536 40.6717 109.709 43.7812 107.624 47.7697L108.51 48.233L109.397 48.6963C111.329 44.9994 113.917 42.1703 117.156 40.1767L116.632 39.325ZM108.51 48.233L107.624 47.7697C105.529 51.7777 104.497 56.3955 104.497 61.595H105.497H106.497C106.497 56.6638 107.474 52.3737 109.397 48.6963L108.51 48.233ZM105.497 61.595H104.497C104.497 66.7945 105.529 71.4123 107.624 75.4203L108.51 74.957L109.397 74.4937C107.474 70.8163 106.497 66.5262 106.497 61.595H105.497ZM108.51 74.957L107.624 75.4203C109.709 79.4087 112.536 82.5183 116.108 84.7167L116.632 83.865L117.156 83.0133C113.917 81.0197 111.329 78.1906 109.397 74.4937L108.51 74.957ZM116.632 83.865L116.108 84.7167C119.665 86.9055 123.47 88.009 127.505 88.009V87.009V86.009C123.856 86.009 120.412 85.0165 117.156 83.0133L116.632 83.865ZM185.35 92.38L184.836 93.2375L184.836 93.2375L185.35 92.38ZM173.036 79.542L172.153 80.0119L172.159 80.0228L173.036 79.542ZM173.036 43.648L172.159 43.1671L172.153 43.1781L173.036 43.648ZM185.35 30.81L185.865 31.6675L185.865 31.6675L185.35 30.81ZM220.72 30.81L220.206 31.6675L220.206 31.6675L220.72 30.81ZM232.903 43.648L232.02 44.1179L232.026 44.1288L232.903 43.648ZM232.903 79.542L232.026 79.0611L232.02 79.0721L232.903 79.542ZM220.72 92.38L220.206 91.5225L220.206 91.5225L220.72 92.38ZM214.432 83.996L214.931 84.8629L214.937 84.859L214.432 83.996ZM222.947 75.088L222.078 74.594L222.073 74.6015L222.069 74.6091L222.947 75.088ZM222.947 48.102L222.069 48.5809L222.073 48.5885L222.078 48.596L222.947 48.102ZM214.432 39.325L213.918 40.1825L213.93 40.19L213.943 40.1971L214.432 39.325ZM191.507 39.325L191.996 40.1971L192.004 40.1927L192.012 40.188L191.507 39.325ZM182.861 48.102L181.992 47.608L181.987 47.6155L181.983 47.6231L182.861 48.102ZM182.861 75.088L181.983 75.5669L181.987 75.5745L181.992 75.582L182.861 75.088ZM191.507 83.996L191.002 84.859L191.01 84.8637L191.018 84.8681L191.507 83.996ZM203.035 97.096V96.096C196.653 96.096 190.938 94.5665 185.865 91.5225L185.35 92.38L184.836 93.2375C190.242 96.4815 196.317 98.096 203.035 98.096V97.096ZM185.35 92.38L185.865 91.5225C180.778 88.4707 176.798 84.3221 173.913 79.0612L173.036 79.542L172.159 80.0228C175.213 85.5912 179.442 90.0013 184.836 93.2375L185.35 92.38ZM173.036 79.542L173.919 79.0721C171.119 73.8119 169.713 67.9926 169.713 61.595H168.713H167.713C167.713 68.2974 169.189 74.4428 172.153 80.0118L173.036 79.542ZM168.713 61.595H169.713C169.713 55.1974 171.119 49.3781 173.919 44.1178L173.036 43.648L172.153 43.1781C169.189 48.7472 167.713 54.8926 167.713 61.595H168.713ZM173.036 43.648L173.913 44.1288C176.798 38.8679 180.778 34.7193 185.865 31.6675L185.35 30.81L184.836 29.9525C179.442 33.1887 175.213 37.5988 172.159 43.1672L173.036 43.648ZM185.35 30.81L185.865 31.6675C190.938 28.6235 196.653 27.094 203.035 27.094V26.094V25.094C196.317 25.094 190.242 26.7085 184.836 29.9525L185.35 30.81ZM203.035 26.094V27.094C209.417 27.094 215.132 28.6235 220.206 31.6675L220.72 30.81L221.235 29.9525C215.828 26.7085 209.753 25.094 203.035 25.094V26.094ZM220.72 30.81L220.206 31.6675C225.289 34.7177 229.223 38.8628 232.02 44.1178L232.903 43.648L233.786 43.1781C230.819 37.6039 226.631 33.1903 221.235 29.9525L220.72 30.81ZM232.903 43.648L232.026 44.1288C234.91 49.3872 236.357 55.2025 236.357 61.595H237.357H238.357C238.357 54.8874 236.835 48.7382 233.78 43.1672L232.903 43.648ZM237.357 61.595H236.357C236.357 67.9874 234.91 73.8028 232.026 79.0612L232.903 79.542L233.78 80.0228C236.835 74.4518 238.357 68.3025 238.357 61.595H237.357ZM232.903 79.542L232.02 79.0721C229.223 84.3272 225.289 88.4723 220.206 91.5225L220.72 92.38L221.235 93.2375C226.631 89.9997 230.819 85.5861 233.786 80.0118L232.903 79.542ZM220.72 92.38L220.206 91.5225C215.132 94.5665 209.417 96.096 203.035 96.096V97.096V98.096C209.753 98.096 215.828 96.4815 221.235 93.2375L220.72 92.38ZM203.035 87.009V88.009C207.311 88.009 211.283 86.9605 214.931 84.8629L214.432 83.996L213.934 83.1291C210.595 85.0489 206.968 86.009 203.035 86.009V87.009ZM214.432 83.996L214.937 84.859C218.684 82.6661 221.647 79.5599 223.825 75.5669L222.947 75.088L222.069 74.6091C220.055 78.3014 217.342 81.1339 213.927 83.133L214.432 83.996ZM222.947 75.088L223.817 75.582C226.099 71.5654 227.222 66.8919 227.222 61.595H226.222H225.222C225.222 66.6034 224.162 70.9252 222.078 74.594L222.947 75.088ZM226.222 61.595H227.222C227.222 56.2981 226.099 51.6246 223.817 47.608L222.947 48.102L222.078 48.596C224.162 52.2648 225.222 56.5866 225.222 61.595H226.222ZM222.947 48.102L223.825 47.6231C221.645 43.6269 218.677 40.5596 214.921 38.4529L214.432 39.325L213.943 40.1971C217.349 42.1077 220.057 44.8918 222.069 48.5809L222.947 48.102ZM214.432 39.325L214.947 38.4675C211.297 36.2775 207.32 35.181 203.035 35.181V36.181V37.181C206.96 37.181 210.581 38.1805 213.918 40.1825L214.432 39.325ZM203.035 36.181V35.181C198.751 35.181 194.734 36.2773 191.002 38.462L191.507 39.325L192.012 40.188C195.441 38.1807 199.11 37.181 203.035 37.181V36.181ZM191.507 39.325L191.018 38.4529C187.266 40.5574 184.258 43.6196 181.992 47.608L182.861 48.102L183.731 48.596C185.831 44.8991 188.587 42.1099 191.996 40.1971L191.507 39.325ZM182.861 48.102L181.983 47.6231C179.794 51.6367 178.717 56.3047 178.717 61.595H179.717H180.717C180.717 56.5799 181.736 52.2526 183.739 48.5809L182.861 48.102ZM179.717 61.595H178.717C178.717 66.8853 179.794 71.5533 181.983 75.5669L182.861 75.088L183.739 74.6091C181.736 70.9374 180.717 66.6101 180.717 61.595H179.717ZM182.861 75.088L181.992 75.582C184.256 79.5672 187.26 82.6684 191.002 84.859L191.507 83.996L192.012 83.133C188.593 81.1316 185.833 78.2941 183.731 74.594L182.861 75.088ZM191.507 83.996L191.018 84.8681C194.748 86.9606 198.759 88.009 203.035 88.009V87.009V86.009C199.102 86.009 195.428 85.0487 191.996 83.1239L191.507 83.996ZM253.971 90.022L253.223 90.6864L253.23 90.694L253.971 90.022ZM247.683 28.19V27.19H246.683V28.19H247.683ZM258.818 28.19H259.818V27.19H258.818V28.19ZM263.141 82.555L262.423 83.2515L262.423 83.2515L263.141 82.555ZM284.756 83.996L284.195 83.1676L284.184 83.1756L284.756 83.996ZM291.568 76.136L290.678 75.6792L290.673 75.6888L290.668 75.6985L291.568 76.136ZM294.057 28.19V27.19H293.057V28.19H294.057ZM305.192 28.19H306.192V27.19H305.192V28.19ZM305.192 95V96H306.192V95H305.192ZM294.581 95H293.581V96H294.581V95ZM294.581 85.306H295.581V84.306H294.581V85.306ZM294.057 85.306V84.306H293.467L293.181 84.8223L294.057 85.306ZM272.442 97.096V96.096C264.61 96.096 258.754 93.805 254.711 89.35L253.971 90.022L253.23 90.694C257.746 95.671 264.204 98.096 272.442 98.096V97.096ZM253.971 90.022L254.718 89.3576C250.737 84.8795 248.683 78.5524 248.683 70.241H247.683H246.683C246.683 78.8723 248.82 85.7325 253.223 90.6864L253.971 90.022ZM247.683 70.241H248.683V28.19H247.683H246.683V70.241H247.683ZM247.683 28.19V29.19H258.818V28.19V27.19H247.683V28.19ZM258.818 28.19H257.818V68.538H258.818H259.818V28.19H258.818ZM258.818 68.538H257.818C257.818 75.0365 259.283 80.0162 262.423 83.2515L263.141 82.555L263.858 81.8585C261.234 79.1551 259.818 74.7901 259.818 68.538H258.818ZM263.141 82.555L262.423 83.2515C265.527 86.4499 269.692 88.009 274.8 88.009V87.009V86.009C270.126 86.009 266.518 84.5987 263.858 81.8585L263.141 82.555ZM274.8 87.009V88.009C278.744 88.009 282.266 86.9502 285.327 84.8164L284.756 83.996L284.184 83.1756C281.481 85.0591 278.365 86.009 274.8 86.009V87.009ZM284.756 83.996L285.316 84.8243C288.431 82.7171 290.818 79.9621 292.467 76.5735L291.568 76.136L290.668 75.6985C289.173 78.7725 287.019 81.2576 284.195 83.1677L284.756 83.996ZM291.568 76.136L292.457 76.5928C294.188 73.2223 295.057 69.6599 295.057 65.918H294.057H293.057C293.057 69.3374 292.266 72.5871 290.678 75.6792L291.568 76.136ZM294.057 65.918H295.057V28.19H294.057H293.057V65.918H294.057ZM294.057 28.19V29.19H305.192V28.19V27.19H294.057V28.19ZM305.192 28.19H304.192V95H305.192H306.192V28.19H305.192ZM305.192 95V94H294.581V95V96H305.192V95ZM294.581 95H295.581V85.306H294.581H293.581V95H294.581ZM294.581 85.306V84.306H294.057V85.306V86.306H294.581V85.306ZM294.057 85.306L293.181 84.8223C291.454 87.9471 288.679 90.62 284.787 92.8194L285.28 93.69L285.772 94.5606C289.915 92.2187 292.991 89.3022 294.932 85.7897L294.057 85.306ZM285.28 93.69L284.787 92.8194C280.918 95.0067 276.808 96.096 272.442 96.096V97.096V98.096C277.158 98.096 281.607 96.9146 285.772 94.5606L285.28 93.69ZM338.915 94.738L338.556 95.6714L338.567 95.6757L338.915 94.738ZM333.151 91.201L332.462 91.926L332.464 91.928L333.151 91.201ZM329.221 85.437L328.292 85.8084L328.292 85.8084L329.221 85.437ZM327.911 38.277H328.911V37.277H327.911V38.277ZM316.252 38.277H315.252V39.277H316.252V38.277ZM316.252 28.19V27.19H315.252V28.19H316.252ZM327.911 28.19V29.19H328.911V28.19H327.911ZM327.911 9.32599V8.32599H326.911V9.32599H327.911ZM339.046 9.32599H340.046V8.32599H339.046V9.32599ZM339.046 28.19H338.046V29.19H339.046V28.19ZM355.29 28.19H356.29V27.19H355.29V28.19ZM355.29 38.277V39.277H356.29V38.277H355.29ZM339.046 38.277V37.277H338.046V38.277H339.046ZM341.142 82.817L340.361 83.4417L340.373 83.4564L340.385 83.4706L341.142 82.817ZM355.683 83.472H356.683V81.6607L355.15 82.6258L355.683 83.472ZM355.683 94.345L356.106 95.2512L356.683 94.9819V94.345H355.683ZM351.622 95.655L351.438 94.6721L351.426 94.6744L351.622 95.655ZM346.513 96.048V95.048C343.915 95.048 341.501 94.6294 339.262 93.8003L338.915 94.738L338.567 95.6757C341.045 96.5933 343.696 97.048 346.513 97.048V96.048ZM338.915 94.738L339.274 93.8047C337.11 92.9723 335.304 91.8587 333.837 90.474L333.151 91.201L332.464 91.928C334.142 93.5127 336.179 94.7571 338.556 95.6713L338.915 94.738ZM333.151 91.201L333.84 90.476C332.195 88.9134 330.968 87.1118 330.149 85.0656L329.221 85.437L328.292 85.8084C329.22 88.1288 330.614 90.1699 332.462 91.926L333.151 91.201ZM329.221 85.437L330.149 85.0656C329.336 83.0329 328.911 80.5032 328.911 77.446H327.911H326.911C326.911 80.6768 327.359 83.4745 328.292 85.8084L329.221 85.437ZM327.911 77.446H328.911V38.277H327.911H326.911V77.446H327.911ZM327.911 38.277V37.277H316.252V38.277V39.277H327.911V38.277ZM316.252 38.277H317.252V28.19H316.252H315.252V38.277H316.252ZM316.252 28.19V29.19H327.911V28.19V27.19H316.252V28.19ZM327.911 28.19H328.911V9.32599H327.911H326.911V28.19H327.911ZM327.911 9.32599V10.326H339.046V9.32599V8.32599H327.911V9.32599ZM339.046 9.32599H338.046V28.19H339.046H340.046V9.32599H339.046ZM339.046 28.19V29.19H355.29V28.19V27.19H339.046V28.19ZM355.29 28.19H354.29V38.277H355.29H356.29V28.19H355.29ZM355.29 38.277V37.277H339.046V38.277V39.277H355.29V38.277ZM339.046 38.277H338.046V74.695H339.046H340.046V38.277H339.046ZM339.046 74.695H338.046C338.046 78.4559 338.756 81.4356 340.361 83.4417L341.142 82.817L341.923 82.1923C340.733 80.7051 340.046 78.2701 340.046 74.695H339.046ZM341.142 82.817L340.385 83.4706C342.278 85.6631 344.987 86.699 348.347 86.699V85.699V84.699C345.418 84.699 343.324 83.8136 341.899 82.1634L341.142 82.817ZM348.347 85.699V86.699C351.087 86.699 353.715 85.8929 356.216 84.3182L355.683 83.472L355.15 82.6258C352.935 84.0204 350.672 84.699 348.347 84.699V85.699ZM355.683 83.472H354.683V94.345H355.683H356.683V83.472H355.683ZM355.683 94.345L355.26 93.4388C354.025 94.0153 352.751 94.4258 351.438 94.6721L351.622 95.655L351.806 96.6379C353.287 96.3602 354.721 95.8974 356.106 95.2512L355.683 94.345ZM351.622 95.655L351.426 94.6744C350.206 94.9184 348.576 95.048 346.513 95.048V96.048V97.048C348.642 97.048 350.418 96.9156 351.818 96.6356L351.622 95.655Z" fill="url(#paint0_linear_113_6009)" mask="url(#path-1-outside-1_113_6009)"/>
<defs>
<linearGradient id="paint0_linear_113_6009" x1="378.078" y1="72" x2="377.605" y2="-31.0075" gradientUnits="userSpaceOnUse">
<stop/>
<stop offset="0.9999" stop-color="#A098FF"/>
</linearGradient>
</defs>
</svg>
