<svg width="445" height="127" viewBox="0 0 445 127" fill="none" xmlns="http://www.w3.org/2000/svg">
<mask id="path-1-outside-1_113_6009" maskUnits="userSpaceOnUse" x="0" y="0" width="445" height="127" fill="black">
<rect fill="white" width="445" height="127"/>
<path d="M13.8991 96H1.84709V2.204H33.8111C41.7584 2.204 48.6141 4.86766 54.3781 10.195C60.2294 15.435 63.1551 22.0723 63.1551 30.107C63.1551 38.1417 60.2294 44.8227 54.3781 50.15C48.6141 55.39 41.7584 58.01 33.8111 58.01H13.8991V96ZM13.8991 46.482H34.0731C39.1384 46.482 43.1994 44.779 46.2561 41.373C49.3128 37.967 50.8411 34.2117 50.8411 30.107C50.8411 26.0023 49.3128 22.247 46.2561 18.841C43.1994 15.435 39.1384 13.732 34.0731 13.732H13.8991V46.482ZM84.3054 96H72.2534V31.81H83.7814V42.29H84.3054C85.5281 38.7967 88.0171 35.9147 91.7724 33.644C95.6151 31.3733 99.3268 30.238 102.907 30.238C106.488 30.238 109.501 30.762 111.946 31.81L107.361 43.076C105.789 42.4647 103.65 42.159 100.942 42.159C96.5758 42.159 92.6894 43.9057 89.2834 47.399C85.9648 50.805 84.3054 55.3027 84.3054 60.892V96ZM120.069 39.539C126.27 32.989 134.174 29.714 143.78 29.714C153.387 29.714 161.291 32.989 167.491 39.539C173.692 46.0017 176.792 54.1237 176.792 63.905C176.792 73.6863 173.692 81.852 167.491 88.402C161.291 94.8647 153.387 98.096 143.78 98.096C134.174 98.096 126.27 94.8647 120.069 88.402C113.869 81.852 110.768 73.6863 110.768 63.905C110.768 54.1237 113.869 46.0017 120.069 39.539ZM128.977 80.804C133.169 84.996 138.104 87.092 143.78 87.092C149.457 87.092 154.348 84.996 158.452 80.804C162.644 76.5247 164.74 70.8917 164.74 63.905C164.74 56.9183 162.644 51.329 158.452 47.137C154.348 42.8577 149.457 40.718 143.78 40.718C138.104 40.718 133.169 42.8577 128.977 47.137C124.873 51.329 122.82 56.9183 122.82 63.905C122.82 70.8917 124.873 76.5247 128.977 80.804ZM198.76 15.697C197.1 17.3563 195.092 18.186 192.734 18.186C190.376 18.186 188.367 17.3563 186.708 15.697C185.048 14.0377 184.219 12.029 184.219 9.67099C184.219 7.31299 185.048 5.30433 186.708 3.64499C188.367 1.98566 190.376 1.156 192.734 1.156C195.092 1.156 197.1 1.98566 198.76 3.64499C200.419 5.30433 201.249 7.31299 201.249 9.67099C201.249 12.029 200.419 14.0377 198.76 15.697ZM179.503 125.606C177.145 125.606 174.787 125.169 172.429 124.296L175.573 113.816C176.708 114.34 177.887 114.602 179.11 114.602C184.175 114.602 186.708 111.283 186.708 104.646V31.81H198.76V104.646C198.76 111.72 197.057 116.96 193.651 120.366C190.245 123.859 185.529 125.606 179.503 125.606ZM241.445 98.096C231.751 98.096 223.847 94.8647 217.734 88.402C211.708 81.9393 208.695 73.7737 208.695 63.905C208.695 54.5603 211.621 46.5257 217.472 39.801C223.411 33.0763 230.965 29.714 240.135 29.714C249.654 29.714 257.252 32.8143 262.929 39.015C268.693 45.2157 271.575 53.5123 271.575 63.905L271.444 66.132H220.747C221.096 72.5947 223.236 77.7037 227.166 81.459C231.183 85.2143 235.856 87.092 241.183 87.092C249.829 87.092 255.68 83.424 258.737 76.088L269.479 80.542C267.383 85.52 263.933 89.712 259.13 93.118C254.327 96.4367 248.432 98.096 241.445 98.096ZM258.737 56.176C258.475 52.508 256.772 49.0147 253.628 45.696C250.571 42.3773 245.986 40.718 239.873 40.718C235.419 40.718 231.533 42.1153 228.214 44.91C224.983 47.7047 222.756 51.46 221.533 56.176H258.737ZM311.139 98.096C301.532 98.096 293.629 94.8647 287.428 88.402C281.227 81.852 278.127 73.6863 278.127 63.905C278.127 54.1237 281.227 46.0017 287.428 39.539C293.629 32.989 301.532 29.714 311.139 29.714C318.3 29.714 324.239 31.4607 328.955 34.954C333.671 38.4473 337.121 42.8577 339.304 48.185L328.3 52.77C324.981 44.7353 318.999 40.718 310.353 40.718C305.026 40.718 300.31 42.9013 296.205 47.268C292.188 51.6347 290.179 57.1803 290.179 63.905C290.179 70.6297 292.188 76.1753 296.205 80.542C300.31 84.9087 305.026 87.092 310.353 87.092C319.348 87.092 325.549 83.0747 328.955 75.04L339.697 79.625C337.514 84.865 333.977 89.2753 329.086 92.856C324.283 96.3493 318.3 98.096 311.139 98.096ZM375.929 97.048C369.204 97.048 364.052 95.2577 360.471 91.677C356.978 88.0963 355.231 83.031 355.231 76.481V42.814H343.965V31.81H355.231V12.16H367.283V31.81H383.003V42.814H367.283V75.564C367.283 82.5507 370.165 86.044 375.929 86.044C378.112 86.044 379.946 85.6947 381.431 84.996L385.623 95.345C383.003 96.4803 379.772 97.048 375.929 97.048ZM418.148 98.096C410.986 98.096 405.048 96.3493 400.332 92.856C395.703 89.3627 392.297 84.996 390.114 79.756L400.856 75.302C404.262 83.3367 410.069 87.354 418.279 87.354C422.034 87.354 425.091 86.5243 427.449 84.865C429.894 83.2057 431.117 81.0223 431.117 78.315C431.117 74.123 428.191 71.2847 422.34 69.8L409.371 66.656C405.266 65.608 401.38 63.643 397.712 60.761C394.044 57.7917 392.21 53.818 392.21 48.84C392.21 43.1633 394.699 38.5783 399.677 35.085C404.742 31.5043 410.724 29.714 417.624 29.714C423.3 29.714 428.366 31.024 432.82 33.644C437.274 36.1767 440.461 39.8447 442.383 44.648L431.903 48.971C429.545 43.2943 424.654 40.456 417.231 40.456C413.65 40.456 410.637 41.1983 408.192 42.683C405.746 44.1677 404.524 46.1763 404.524 48.709C404.524 52.377 407.362 54.866 413.039 56.176L425.746 59.189C431.772 60.5863 436.226 62.988 439.108 66.394C441.99 69.8 443.431 73.6427 443.431 77.922C443.431 83.686 441.073 88.4893 436.357 92.332C431.641 96.1747 425.571 98.096 418.148 98.096Z"/>
</mask>
<path d="M13.8991 96V97H14.8991V96H13.8991ZM1.84709 96H0.847085V97H1.84709V96ZM1.84709 2.204V1.204H0.847085V2.204H1.84709ZM54.3781 10.195L53.6993 10.9294L53.7051 10.9347L53.711 10.9399L54.3781 10.195ZM54.3781 50.15L55.0508 50.8899L55.0513 50.8894L54.3781 50.15ZM13.8991 58.01V57.01H12.8991V58.01H13.8991ZM13.8991 46.482H12.8991V47.482H13.8991V46.482ZM46.2561 18.841L47.0003 18.1731L47.0003 18.1731L46.2561 18.841ZM13.8991 13.732V12.732H12.8991V13.732H13.8991ZM13.8991 96V95H1.84709V96V97H13.8991V96ZM1.84709 96H2.84709V2.204H1.84709H0.847085V96H1.84709ZM1.84709 2.204V3.204H33.8111V2.204V1.204H1.84709V2.204ZM33.8111 2.204V3.204C41.5103 3.204 48.1227 5.77518 53.6993 10.9294L54.3781 10.195L55.0568 9.46062C49.1055 3.96015 42.0065 1.204 33.8111 1.204V2.204ZM54.3781 10.195L53.711 10.9399C59.345 15.9853 62.1551 22.3492 62.1551 30.107H63.1551H64.1551C64.1551 21.7954 61.1138 14.8846 55.0452 9.45005L54.3781 10.195ZM63.1551 30.107H62.1551C62.1551 37.8651 59.3444 44.276 53.7049 49.4106L54.3781 50.15L55.0513 50.8894C61.1144 45.3693 64.1551 38.4182 64.1551 30.107H63.1551ZM54.3781 50.15L53.7054 49.4101C48.1296 54.479 41.5152 57.01 33.8111 57.01V58.01V59.01C42.0016 59.01 49.0986 56.301 55.0508 50.8899L54.3781 50.15ZM33.8111 58.01V57.01H13.8991V58.01V59.01H33.8111V58.01ZM13.8991 58.01H12.8991V96H13.8991H14.8991V58.01H13.8991ZM13.8991 46.482V47.482H34.0731V46.482V45.482H13.8991V46.482ZM34.0731 46.482V47.482C39.3885 47.482 43.7325 45.6822 47.0003 42.0409L46.2561 41.373L45.5118 40.7051C42.6663 43.8758 38.8883 45.482 34.0731 45.482V46.482ZM46.2561 41.373L47.0003 42.0409C50.2013 38.4741 51.8411 34.4871 51.8411 30.107H50.8411H49.8411C49.8411 33.9362 48.4242 37.4599 45.5118 40.7051L46.2561 41.373ZM50.8411 30.107H51.8411C51.8411 25.7269 50.2013 21.7399 47.0003 18.1731L46.2561 18.841L45.5118 19.5089C48.4242 22.7541 49.8411 26.2778 49.8411 30.107H50.8411ZM46.2561 18.841L47.0003 18.1731C43.7325 14.5318 39.3885 12.732 34.0731 12.732V13.732V14.732C38.8883 14.732 42.6663 16.3382 45.5118 19.5089L46.2561 18.841ZM34.0731 13.732V12.732H13.8991V13.732V14.732H34.0731V13.732ZM13.8991 13.732H12.8991V46.482H13.8991H14.8991V13.732H13.8991ZM84.3054 96V97H85.3054V96H84.3054ZM72.2534 96H71.2534V97H72.2534V96ZM72.2534 31.81V30.81H71.2534V31.81H72.2534ZM83.7814 31.81H84.7814V30.81H83.7814V31.81ZM83.7814 42.29H82.7814V43.29H83.7814V42.29ZM84.3054 42.29V43.29H85.0149L85.2493 42.6203L84.3054 42.29ZM91.7724 33.644L91.2637 32.783L91.255 32.7883L91.7724 33.644ZM111.946 31.81L112.873 32.187L113.243 31.2776L112.34 30.8909L111.946 31.81ZM107.361 43.076L106.999 44.008L107.917 44.3648L108.288 43.453L107.361 43.076ZM89.2834 47.399L88.5674 46.7009L88.5672 46.7011L89.2834 47.399ZM84.3054 96V95H72.2534V96V97H84.3054V96ZM72.2534 96H73.2534V31.81H72.2534H71.2534V96H72.2534ZM72.2534 31.81V32.81H83.7814V31.81V30.81H72.2534V31.81ZM83.7814 31.81H82.7814V42.29H83.7814H84.7814V31.81H83.7814ZM83.7814 42.29V43.29H84.3054V42.29V41.29H83.7814V42.29ZM84.3054 42.29L85.2493 42.6203C86.3815 39.3855 88.6948 36.6735 92.2899 34.4997L91.7724 33.644L91.255 32.7883C87.3394 35.1558 84.6747 38.2079 83.3616 41.9596L84.3054 42.29ZM91.7724 33.644L92.2812 34.5049C96.0074 32.3031 99.5449 31.238 102.907 31.238V30.238V29.238C99.1086 29.238 95.2228 30.4436 91.2637 32.7831L91.7724 33.644ZM102.907 30.238V31.238C106.397 31.238 109.267 31.7495 111.553 32.7291L111.946 31.81L112.34 30.8909C109.735 29.7745 106.579 29.238 102.907 29.238V30.238ZM111.946 31.81L111.02 31.433L106.435 42.699L107.361 43.076L108.288 43.453L112.873 32.187L111.946 31.81ZM107.361 43.076L107.724 42.144C105.988 41.4688 103.708 41.159 100.942 41.159V42.159V43.159C103.592 43.159 105.591 43.4605 106.999 44.008L107.361 43.076ZM100.942 42.159V41.159C96.2733 41.159 92.1374 43.0394 88.5674 46.7009L89.2834 47.399L89.9994 48.0971C93.2415 44.7719 96.8782 43.159 100.942 43.159V42.159ZM89.2834 47.399L88.5672 46.7011C85.035 50.3263 83.3054 55.091 83.3054 60.892H84.3054H85.3054C85.3054 55.5143 86.8945 51.2837 89.9997 48.0969L89.2834 47.399ZM84.3054 60.892H83.3054V96H84.3054H85.3054V60.892H84.3054ZM120.069 39.539L120.791 40.2313L120.796 40.2265L120.069 39.539ZM167.491 39.539L166.765 40.2265L166.77 40.2313L167.491 39.539ZM167.491 88.402L168.213 89.0943L168.218 89.0895L167.491 88.402ZM120.069 88.402L119.343 89.0895L119.348 89.0943L120.069 88.402ZM128.977 80.804L128.256 81.4962L128.263 81.5037L128.27 81.5111L128.977 80.804ZM158.452 80.804L157.738 80.1042L157.738 80.1044L158.452 80.804ZM158.452 47.137L157.731 47.8292L157.738 47.8367L157.745 47.8441L158.452 47.137ZM128.977 47.137L128.263 46.4372L128.263 46.4374L128.977 47.137ZM120.069 39.539L120.796 40.2265C126.794 33.8901 134.429 30.714 143.78 30.714V29.714V28.714C133.919 28.714 125.746 32.0879 119.343 38.8515L120.069 39.539ZM143.78 29.714V30.714C153.132 30.714 160.767 33.8901 166.765 40.2265L167.491 39.539L168.218 38.8515C161.815 32.0879 153.642 28.714 143.78 28.714V29.714ZM167.491 39.539L166.77 40.2313C172.775 46.4898 175.792 54.3557 175.792 63.905H176.792H177.792C177.792 53.8916 174.61 45.5135 168.213 38.8467L167.491 39.539ZM176.792 63.905H175.792C175.792 73.4542 172.775 81.3667 166.765 87.7145L167.491 88.402L168.218 89.0895C174.61 82.3373 177.792 73.9184 177.792 63.905H176.792ZM167.491 88.402L166.77 87.7097C160.773 93.9604 153.137 97.096 143.78 97.096V98.096V99.096C153.637 99.096 161.809 95.7689 168.213 89.0943L167.491 88.402ZM143.78 98.096V97.096C134.424 97.096 126.788 93.9604 120.791 87.7097L120.069 88.402L119.348 89.0943C125.752 95.7689 133.923 99.096 143.78 99.096V98.096ZM120.069 88.402L120.796 87.7145C114.786 81.3667 111.768 73.4542 111.768 63.905H110.768H109.768C109.768 73.9184 112.951 82.3373 119.343 89.0895L120.069 88.402ZM110.768 63.905H111.768C111.768 54.3557 114.786 46.4898 120.791 40.2313L120.069 39.539L119.348 38.8467C112.951 45.5135 109.768 53.8916 109.768 63.905H110.768ZM128.977 80.804L128.27 81.5111C132.641 85.8814 137.826 88.092 143.78 88.092V87.092V86.092C138.382 86.092 133.698 84.1106 129.685 80.0969L128.977 80.804ZM143.78 87.092V88.092C149.736 88.092 154.881 85.8805 159.167 81.5036L158.452 80.804L157.738 80.1044C153.814 84.1115 149.178 86.092 143.78 86.092V87.092ZM158.452 80.804L159.167 81.5038C163.572 77.0066 165.74 71.1065 165.74 63.905H164.74H163.74C163.74 70.6769 161.717 76.0428 157.738 80.1042L158.452 80.804ZM164.74 63.905H165.74C165.74 56.7041 163.572 50.8426 159.16 46.4299L158.452 47.137L157.745 47.8441C161.717 51.8154 163.74 57.1326 163.74 63.905H164.74ZM158.452 47.137L159.174 46.4448C154.89 41.9787 149.743 39.718 143.78 39.718V40.718V41.718C149.171 41.718 153.805 43.7367 157.731 47.8292L158.452 47.137ZM143.78 40.718V39.718C137.819 39.718 132.632 41.9777 128.263 46.4372L128.977 47.137L129.692 47.8368C133.707 43.7376 138.389 41.718 143.78 41.718V40.718ZM128.977 47.137L128.263 46.4374C123.941 50.8512 121.82 56.7101 121.82 63.905H122.82H123.82C123.82 57.1265 125.805 51.8068 129.692 47.8366L128.977 47.137ZM122.82 63.905H121.82C121.82 71.1005 123.941 76.998 128.256 81.4962L128.977 80.804L129.699 80.1118C125.804 76.0513 123.82 70.6829 123.82 63.905H122.82ZM198.76 15.697L198.052 14.9899L198.052 14.9899L198.76 15.697ZM186.708 15.697L186 16.4041L186.708 15.697ZM186.708 3.64499L186 2.93789L186.708 3.64499ZM198.76 3.64499L198.052 4.3521L198.052 4.3521L198.76 3.64499ZM172.429 124.296L171.471 124.009L171.201 124.908L172.081 125.234L172.429 124.296ZM175.573 113.816L175.992 112.908L174.946 112.425L174.615 113.529L175.573 113.816ZM186.708 31.81V30.81H185.708V31.81H186.708ZM198.76 31.81H199.76V30.81H198.76V31.81ZM193.651 120.366L192.943 119.659L192.935 119.668L193.651 120.366ZM198.76 15.697L198.052 14.9899C196.582 16.4607 194.828 17.186 192.734 17.186V18.186V19.186C195.355 19.186 197.619 18.252 199.467 16.4041L198.76 15.697ZM192.734 18.186V17.186C190.639 17.186 188.885 16.4607 187.415 14.9899L186.708 15.697L186 16.4041C187.848 18.252 190.112 19.186 192.734 19.186V18.186ZM186.708 15.697L187.415 14.9899C185.944 13.5191 185.219 11.7652 185.219 9.67099H184.219H183.219C183.219 12.2928 184.153 14.5562 186 16.4041L186.708 15.697ZM184.219 9.67099H185.219C185.219 7.57677 185.944 5.82288 187.415 4.3521L186.708 3.64499L186 2.93789C184.153 4.78578 183.219 7.04922 183.219 9.67099H184.219ZM186.708 3.64499L187.415 4.3521C188.885 2.88132 190.639 2.156 192.734 2.156V1.156V0.155995C190.112 0.155995 187.848 1.09 186 2.93789L186.708 3.64499ZM192.734 1.156V2.156C194.828 2.156 196.582 2.88132 198.052 4.3521L198.76 3.64499L199.467 2.93789C197.619 1.09 195.355 0.155995 192.734 0.155995V1.156ZM198.76 3.64499L198.052 4.3521C199.523 5.82288 200.249 7.57677 200.249 9.67099H201.249H202.249C202.249 7.04922 201.315 4.78577 199.467 2.93789L198.76 3.64499ZM201.249 9.67099H200.249C200.249 11.7652 199.523 13.5191 198.052 14.9899L198.76 15.697L199.467 16.4041C201.315 14.5562 202.249 12.2928 202.249 9.67099H201.249ZM179.503 125.606V124.606C177.271 124.606 175.03 124.193 172.776 123.358L172.429 124.296L172.081 125.234C174.543 126.146 177.018 126.606 179.503 126.606V125.606ZM172.429 124.296L173.386 124.583L176.53 114.103L175.573 113.816L174.615 113.529L171.471 124.009L172.429 124.296ZM175.573 113.816L175.153 114.724C176.417 115.307 177.739 115.602 179.11 115.602V114.602V113.602C178.035 113.602 176.999 113.373 175.992 112.908L175.573 113.816ZM179.11 114.602V115.602C181.88 115.602 184.107 114.681 185.603 112.72C187.06 110.81 187.708 108.064 187.708 104.646H186.708H185.708C185.708 107.866 185.088 110.097 184.013 111.506C182.977 112.864 181.405 113.602 179.11 113.602V114.602ZM186.708 104.646H187.708V31.81H186.708H185.708V104.646H186.708ZM186.708 31.81V32.81H198.76V31.81V30.81H186.708V31.81ZM198.76 31.81H197.76V104.646H198.76H199.76V31.81H198.76ZM198.76 104.646H197.76C197.76 111.579 196.089 116.513 192.943 119.659L193.651 120.366L194.358 121.073C198.024 117.407 199.76 111.861 199.76 104.646H198.76ZM193.651 120.366L192.935 119.668C189.759 122.925 185.326 124.606 179.503 124.606V125.606V126.606C185.731 126.606 190.73 124.794 194.367 121.064L193.651 120.366ZM217.734 88.402L217.003 89.084L217.008 89.0892L217.734 88.402ZM217.472 39.801L216.722 39.139L216.718 39.1446L217.472 39.801ZM262.929 39.015L262.191 39.6903L262.197 39.6958L262.929 39.015ZM271.575 63.905L272.573 63.9637L272.575 63.9344V63.905H271.575ZM271.444 66.132V67.132H272.387L272.442 66.1907L271.444 66.132ZM220.747 66.132V65.132H219.692L219.749 66.186L220.747 66.132ZM227.166 81.459L226.475 82.182L226.483 82.1895L227.166 81.459ZM258.737 76.088L259.12 75.1643L258.198 74.7819L257.814 75.7034L258.737 76.088ZM269.479 80.542L270.401 80.9301L270.791 80.0034L269.862 79.6183L269.479 80.542ZM259.13 93.118L259.699 93.9408L259.708 93.9337L259.13 93.118ZM258.737 56.176V57.176H259.811L259.735 56.1047L258.737 56.176ZM253.628 45.696L252.892 46.3735L252.902 46.3837L253.628 45.696ZM228.214 44.91L227.57 44.145L227.56 44.1536L228.214 44.91ZM221.533 56.176L220.565 55.925L220.241 57.176H221.533V56.176ZM241.445 98.096V97.096C231.999 97.096 224.367 93.9587 218.461 87.7148L217.734 88.402L217.008 89.0892C223.328 95.7706 231.504 99.096 241.445 99.096V98.096ZM217.734 88.402L218.465 87.72C212.633 81.4647 209.695 73.5525 209.695 63.905H208.695H207.695C207.695 73.9948 210.783 82.414 217.003 89.084L217.734 88.402ZM208.695 63.905H209.695C209.695 54.7889 212.542 46.9907 218.226 40.4574L217.472 39.801L216.718 39.1446C210.7 46.0606 207.695 54.3318 207.695 63.905H208.695ZM217.472 39.801L218.222 40.4629C223.966 33.9586 231.245 30.714 240.135 30.714V29.714V28.714C230.686 28.714 222.856 32.1941 216.723 39.1391L217.472 39.801ZM240.135 29.714V30.714C249.415 30.714 256.73 33.7249 262.191 39.6902L262.929 39.015L263.667 38.3397C257.775 31.9037 249.894 28.714 240.135 28.714V29.714ZM262.929 39.015L262.197 39.6958C267.752 45.6716 270.575 53.7045 270.575 63.905H271.575H272.575C272.575 53.3201 269.635 44.7598 263.661 38.3341L262.929 39.015ZM271.575 63.905L270.577 63.8463L270.446 66.0733L271.444 66.132L272.442 66.1907L272.573 63.9637L271.575 63.905ZM271.444 66.132V65.132H220.747V66.132V67.132H271.444V66.132ZM220.747 66.132L219.749 66.186C220.109 72.8512 222.327 78.2183 226.475 82.182L227.166 81.459L227.857 80.736C224.145 77.1891 222.084 72.3381 221.746 66.078L220.747 66.132ZM227.166 81.459L226.483 82.1895C230.679 86.1118 235.593 88.092 241.183 88.092V87.092V86.092C236.118 86.092 231.688 84.3168 227.849 80.7285L227.166 81.459ZM241.183 87.092V88.092C245.647 88.092 249.467 87.1444 252.587 85.1883C255.714 83.2284 258.065 80.3019 259.66 76.4726L258.737 76.088L257.814 75.7034C256.353 79.2101 254.25 81.7856 251.525 83.4937C248.794 85.2056 245.365 86.092 241.183 86.092V87.092ZM258.737 76.088L258.354 77.0117L269.096 81.4657L269.479 80.542L269.862 79.6183L259.12 75.1643L258.737 76.088ZM269.479 80.542L268.557 80.1539C266.54 84.9448 263.217 88.994 258.552 92.3023L259.13 93.118L259.708 93.9337C264.65 90.43 268.226 86.0952 270.401 80.9301L269.479 80.542ZM259.13 93.118L258.562 92.2953C253.956 95.4773 248.269 97.096 241.445 97.096V98.096V99.096C248.594 99.096 254.697 97.396 259.698 93.9407L259.13 93.118ZM258.737 56.176L259.735 56.1047C259.452 52.1543 257.617 48.4528 254.354 45.0083L253.628 45.696L252.902 46.3837C255.927 49.5765 257.498 52.8617 257.74 56.2472L258.737 56.176ZM253.628 45.696L254.364 45.0185C251.057 41.429 246.163 39.718 239.873 39.718V40.718V41.718C245.81 41.718 250.085 43.3257 252.893 46.3735L253.628 45.696ZM239.873 40.718V39.718C235.19 39.718 231.074 41.1942 227.57 44.1451L228.214 44.91L228.858 45.6749C231.991 43.0364 235.648 41.718 239.873 41.718V40.718ZM228.214 44.91L227.56 44.1536C224.154 47.0991 221.831 51.0412 220.565 55.925L221.533 56.176L222.501 56.427C223.68 51.8788 225.811 48.3103 228.868 45.6664L228.214 44.91ZM221.533 56.176V57.176H258.737V56.176V55.176H221.533V56.176ZM287.428 88.402L286.702 89.0895L286.707 89.0943L287.428 88.402ZM287.428 39.539L288.15 40.2313L288.154 40.2265L287.428 39.539ZM328.955 34.954L328.36 35.7576L328.36 35.7576L328.955 34.954ZM339.304 48.185L339.689 49.1081L340.606 48.7257L340.229 47.8058L339.304 48.185ZM328.3 52.77L327.376 53.1518L327.759 54.0789L328.685 53.6931L328.3 52.77ZM296.205 47.268L295.476 46.583L295.469 46.5909L296.205 47.268ZM296.205 80.542L295.469 81.2191L295.476 81.2269L296.205 80.542ZM328.955 75.04L329.348 74.1203L328.426 73.7267L328.034 74.6497L328.955 75.04ZM339.697 79.625L340.62 80.0096L341.001 79.0945L340.09 78.7053L339.697 79.625ZM329.086 92.856L329.674 93.6647L329.677 93.6629L329.086 92.856ZM311.139 98.096V97.096C301.783 97.096 294.147 93.9604 288.15 87.7097L287.428 88.402L286.707 89.0943C293.111 95.7689 301.282 99.096 311.139 99.096V98.096ZM287.428 88.402L288.154 87.7145C282.145 81.3667 279.127 73.4542 279.127 63.905H278.127H277.127C277.127 73.9184 280.31 82.3373 286.702 89.0895L287.428 88.402ZM278.127 63.905H279.127C279.127 54.3557 282.145 46.4898 288.15 40.2313L287.428 39.539L286.707 38.8467C280.31 45.5135 277.127 53.8916 277.127 63.905H278.127ZM287.428 39.539L288.154 40.2265C294.153 33.8901 301.787 30.714 311.139 30.714V29.714V28.714C301.278 28.714 293.105 32.0879 286.702 38.8515L287.428 39.539ZM311.139 29.714V30.714C318.134 30.714 323.851 32.4178 328.36 35.7576L328.955 34.954L329.55 34.1504C324.627 30.5035 318.467 28.714 311.139 28.714V29.714ZM328.955 34.954L328.36 35.7576C332.932 39.1444 336.266 43.4092 338.379 48.5642L339.304 48.185L340.229 47.8058C337.975 42.3061 334.41 37.7502 329.55 34.1504L328.955 34.954ZM339.304 48.185L338.919 47.2619L327.915 51.8469L328.3 52.77L328.685 53.6931L339.689 49.1081L339.304 48.185ZM328.3 52.77L329.224 52.3882C327.505 48.2266 325.068 45.0404 321.882 42.9008C318.695 40.7609 314.834 39.718 310.353 39.718V40.718V41.718C314.518 41.718 317.971 42.6837 320.767 44.5612C323.563 46.4389 325.776 49.2787 327.376 53.1518L328.3 52.77ZM310.353 40.718V39.718C304.714 39.718 299.744 42.0431 295.476 46.5831L296.205 47.268L296.934 47.9529C300.875 43.7596 305.338 41.718 310.353 41.718V40.718ZM296.205 47.268L295.469 46.5909C291.259 51.1671 289.179 56.9655 289.179 63.905H290.179H291.179C291.179 57.3952 293.116 52.1023 296.941 47.9451L296.205 47.268ZM290.179 63.905H289.179C289.179 70.8445 291.259 76.6429 295.469 81.2191L296.205 80.542L296.941 79.8649C293.116 75.7077 291.179 70.4148 291.179 63.905H290.179ZM296.205 80.542L295.476 81.2269C299.744 85.7669 304.714 88.092 310.353 88.092V87.092V86.092C305.338 86.092 300.875 84.0504 296.934 79.8571L296.205 80.542ZM310.353 87.092V88.092C315.001 88.092 318.999 87.0527 322.294 84.9183C325.59 82.7824 328.109 79.5975 329.876 75.4303L328.955 75.04L328.034 74.6497C326.395 78.5171 324.11 81.3582 321.206 83.2397C318.3 85.1227 314.7 86.092 310.353 86.092V87.092ZM328.955 75.04L328.563 75.9597L339.305 80.5447L339.697 79.625L340.09 78.7053L329.348 74.1203L328.955 75.04ZM339.697 79.625L338.774 79.2404C336.666 84.3005 333.249 88.5687 328.495 92.0491L329.086 92.856L329.677 93.6629C334.704 89.982 338.362 85.4295 340.62 80.0096L339.697 79.625ZM329.086 92.856L328.498 92.0473C323.898 95.3925 318.134 97.096 311.139 97.096V98.096V99.096C318.467 99.096 324.667 97.3062 329.674 93.6647L329.086 92.856ZM360.471 91.677L359.755 92.3754L359.764 92.3841L360.471 91.677ZM355.231 42.814H356.231V41.814H355.231V42.814ZM343.965 42.814H342.965V43.814H343.965V42.814ZM343.965 31.81V30.81H342.965V31.81H343.965ZM355.231 31.81V32.81H356.231V31.81H355.231ZM355.231 12.16V11.16H354.231V12.16H355.231ZM367.283 12.16H368.283V11.16H367.283V12.16ZM367.283 31.81H366.283V32.81H367.283V31.81ZM383.003 31.81H384.003V30.81H383.003V31.81ZM383.003 42.814V43.814H384.003V42.814H383.003ZM367.283 42.814V41.814H366.283V42.814H367.283ZM381.431 84.996L382.358 84.6206L381.961 83.6413L381.005 84.0912L381.431 84.996ZM385.623 95.345L386.02 96.2626L386.916 95.8744L386.55 94.9696L385.623 95.345ZM375.929 97.048V96.048C369.379 96.048 364.516 94.3078 361.178 90.9699L360.471 91.677L359.764 92.3841C363.587 96.2076 369.029 98.048 375.929 98.048V97.048ZM360.471 91.677L361.187 90.9787C357.927 87.6371 356.231 82.8537 356.231 76.481H355.231H354.231C354.231 83.2083 356.028 88.5555 359.755 92.3753L360.471 91.677ZM355.231 76.481H356.231V42.814H355.231H354.231V76.481H355.231ZM355.231 42.814V41.814H343.965V42.814V43.814H355.231V42.814ZM343.965 42.814H344.965V31.81H343.965H342.965V42.814H343.965ZM343.965 31.81V32.81H355.231V31.81V30.81H343.965V31.81ZM355.231 31.81H356.231V12.16H355.231H354.231V31.81H355.231ZM355.231 12.16V13.16H367.283V12.16V11.16H355.231V12.16ZM367.283 12.16H366.283V31.81H367.283H368.283V12.16H367.283ZM367.283 31.81V32.81H383.003V31.81V30.81H367.283V31.81ZM383.003 31.81H382.003V42.814H383.003H384.003V31.81H383.003ZM383.003 42.814V41.814H367.283V42.814V43.814H383.003V42.814ZM367.283 42.814H366.283V75.564H367.283H368.283V42.814H367.283ZM367.283 75.564H366.283C366.283 79.1697 367.023 82.0599 368.673 84.0604C370.354 86.0977 372.837 87.044 375.929 87.044V86.044V85.044C373.257 85.044 371.417 84.2436 370.216 82.7876C368.984 81.2947 368.283 78.945 368.283 75.564H367.283ZM375.929 86.044V87.044C378.213 87.044 380.202 86.6793 381.857 85.9008L381.431 84.996L381.005 84.0912C379.69 84.71 378.011 85.044 375.929 85.044V86.044ZM381.431 84.996L380.504 85.3714L384.696 95.7204L385.623 95.345L386.55 94.9696L382.358 84.6206L381.431 84.996ZM385.623 95.345L385.225 94.4274C382.766 95.4931 379.679 96.048 375.929 96.048V97.048V98.048C379.864 98.048 383.24 97.4676 386.02 96.2626L385.623 95.345ZM400.332 92.856L399.729 93.6542L399.736 93.6596L400.332 92.856ZM390.114 79.756L389.731 78.8323L388.805 79.2159L389.191 80.1406L390.114 79.756ZM400.856 75.302L401.776 74.9117L401.389 73.9983L400.473 74.3783L400.856 75.302ZM427.449 84.865L426.887 84.0375L426.88 84.0423L426.873 84.0472L427.449 84.865ZM422.34 69.8L422.586 68.8307L422.575 68.8281L422.34 69.8ZM409.371 66.656L409.123 67.625L409.135 67.6278L409.371 66.656ZM397.712 60.761L397.082 61.5382L397.088 61.5428L397.094 61.5473L397.712 60.761ZM399.677 35.085L400.251 35.9036L400.254 35.9016L399.677 35.085ZM432.82 33.644L432.313 34.5059L432.319 34.5097L432.325 34.5133L432.82 33.644ZM442.383 44.648L442.764 45.5724L443.679 45.1952L443.311 44.2766L442.383 44.648ZM431.903 48.971L430.979 49.3546L431.362 50.2758L432.284 49.8954L431.903 48.971ZM408.192 42.683L408.711 43.5378L408.711 43.5378L408.192 42.683ZM413.039 56.176L413.269 55.203L413.264 55.2016L413.039 56.176ZM425.746 59.189L425.515 60.162L425.52 60.1632L425.746 59.189ZM439.108 66.394L439.871 65.7481L439.871 65.7481L439.108 66.394ZM436.357 92.332L435.725 91.5568L435.725 91.5568L436.357 92.332ZM418.148 98.096V97.096C411.152 97.096 405.436 95.3922 400.927 92.0524L400.332 92.856L399.736 93.6596C404.66 97.3065 410.82 99.096 418.148 99.096V98.096ZM400.332 92.856L400.934 92.0578C396.444 88.669 393.15 84.4438 391.037 79.3714L390.114 79.756L389.191 80.1406C391.444 85.5482 394.962 90.0563 399.729 93.6542L400.332 92.856ZM390.114 79.756L390.497 80.6797L401.239 76.2257L400.856 75.302L400.473 74.3783L389.731 78.8323L390.114 79.756ZM400.856 75.302L399.935 75.6923C401.694 79.8429 404.104 83.0241 407.197 85.1634C410.294 87.3057 414.005 88.354 418.279 88.354V87.354V86.354C414.343 86.354 411.046 85.3937 408.335 83.5186C405.62 81.6406 403.423 78.7957 401.776 74.9117L400.856 75.302ZM418.279 87.354V88.354C422.178 88.354 425.453 87.4919 428.024 85.6828L427.449 84.865L426.873 84.0472C424.728 85.5567 421.89 86.354 418.279 86.354V87.354ZM427.449 84.865L428.01 85.6925C430.7 83.8671 432.117 81.388 432.117 78.315H431.117H430.117C430.117 80.6567 429.088 82.5442 426.887 84.0375L427.449 84.865ZM431.117 78.315H432.117C432.117 75.9572 431.282 73.9379 429.619 72.3245C427.984 70.7387 425.605 69.5968 422.586 68.8307L422.34 69.8L422.094 70.7693C424.926 71.4878 426.935 72.5075 428.226 73.76C429.489 74.9849 430.117 76.4808 430.117 78.315H431.117ZM422.34 69.8L422.575 68.8281L409.606 65.6841L409.371 66.656L409.135 67.6278L422.104 70.7718L422.34 69.8ZM409.371 66.656L409.618 65.6871C405.661 64.6768 401.899 62.7795 398.329 59.9747L397.712 60.761L397.094 61.5473C400.86 64.5065 404.871 66.5391 409.123 67.6249L409.371 66.656ZM397.712 60.761L398.341 59.9838C394.922 57.216 393.21 53.5353 393.21 48.84H392.21H391.21C391.21 54.1007 393.166 58.3674 397.082 61.5382L397.712 60.761ZM392.21 48.84H393.21C393.21 43.5157 395.517 39.2254 400.251 35.9036L399.677 35.085L399.102 34.2664C393.88 37.9313 391.21 42.811 391.21 48.84H392.21ZM399.677 35.085L400.254 35.9016C405.132 32.4535 410.907 30.714 417.624 30.714V29.714V28.714C410.542 28.714 404.352 30.5551 399.099 34.2684L399.677 35.085ZM417.624 29.714V30.714C423.14 30.714 428.027 31.9851 432.313 34.5059L432.82 33.644L433.327 32.7821C428.704 30.0629 423.461 28.714 417.624 28.714V29.714ZM432.82 33.644L432.325 34.5133C436.58 36.9328 439.616 40.4242 441.454 45.0194L442.383 44.648L443.311 44.2766C441.307 39.2651 437.967 35.4205 433.314 32.7747L432.82 33.644ZM442.383 44.648L442.001 43.7236L431.521 48.0466L431.903 48.971L432.284 49.8954L442.764 45.5724L442.383 44.648ZM431.903 48.971L432.826 48.5874C431.571 45.5655 429.62 43.2587 426.968 41.7198C424.33 40.1887 421.065 39.456 417.231 39.456V40.456V41.456C420.82 41.456 423.712 42.1425 425.964 43.4496C428.203 44.7491 429.876 46.6999 430.979 49.3546L431.903 48.971ZM417.231 40.456V39.456C413.513 39.456 410.309 40.2274 407.673 41.8282L408.192 42.683L408.711 43.5378C410.965 42.1693 413.787 41.456 417.231 41.456V40.456ZM408.192 42.683L407.673 41.8282C404.975 43.4662 403.524 45.7762 403.524 48.709H404.524H405.524C405.524 46.5765 406.518 44.8691 408.711 43.5378L408.192 42.683ZM404.524 48.709H403.524C403.524 50.8405 404.365 52.6506 405.993 54.0786C407.586 55.4755 409.894 56.4766 412.814 57.1504L413.039 56.176L413.264 55.2016C410.507 54.5654 408.557 53.667 407.312 52.5749C406.102 51.5139 405.524 50.2455 405.524 48.709H404.524ZM413.039 56.176L412.808 57.149L425.515 60.162L425.746 59.189L425.976 58.216L413.269 55.203L413.039 56.176ZM425.746 59.189L425.52 60.1632C431.415 61.5302 435.646 63.8513 438.344 67.0399L439.108 66.394L439.871 65.7481C436.805 62.1247 432.128 59.6424 425.972 58.2148L425.746 59.189ZM439.108 66.394L438.344 67.0399C441.081 70.2738 442.431 73.8899 442.431 77.922H443.431H444.431C444.431 73.3954 442.899 69.3262 439.871 65.7481L439.108 66.394ZM443.431 77.922H442.431C442.431 83.3667 440.223 87.8919 435.725 91.5568L436.357 92.332L436.988 93.1072C441.923 89.0868 444.431 84.0053 444.431 77.922H443.431ZM436.357 92.332L435.725 91.5568C431.224 95.2241 425.393 97.096 418.148 97.096V98.096V99.096C425.749 99.096 432.057 97.1253 436.988 93.1072L436.357 92.332Z" fill="url(#paint0_linear_113_6009)" mask="url(#path-1-outside-1_113_6009)"/>
<defs>
<linearGradient id="paint0_linear_113_6009" x1="374.765" y1="70" x2="374.162" y2="-33.0062" gradientUnits="userSpaceOnUse">
<stop/>
<stop offset="1" stop-color="#A098FF"/>
</linearGradient>
</defs>
</svg>
