<svg width="539" height="44" viewBox="0 0 539 44" fill="none" xmlns="http://www.w3.org/2000/svg">
<path d="M43.9406 31.0305L30.9539 31.0056L30.9882 13.0539L13.0461 13.0193L13.0118 30.9712L30.9539 31.0056L30.9289 44L0 43.9407L0.0594462 12.9944L0.0841706 0L31.0131 0.0592991V0.0580279L44 0.0829477L43.9406 31.0305Z" fill="url(#paint0_linear_306_103)"/>
<path d="M69 44H52V31H69V44ZM82 31H69V0H82V31Z" fill="url(#paint1_linear_306_103)"/>
<path d="M140.011 4.95801V5H145V44H132V17.9502L124.022 17.9434L124 44L111 43.9893L111.022 17.9502L102.995 17.9434L103.007 4.94336L110.01 4.94922L110.011 4.93164L140.011 4.95801ZM103.022 17.9492L103 43.9463L90 43.9355L90.0225 17.9375L103.022 17.9492Z" fill="url(#paint2_linear_306_103)"/>
<path d="M196.941 31.0305L183.954 31.0056L183.988 13.0539L166.046 13.0193L166.012 30.9712L183.954 31.0056L183.929 44L153 43.9407L153.059 12.9944L153.084 0L184.013 0.0592991V0.0580279L197 0.0829477L196.941 31.0305Z" fill="url(#paint3_linear_306_103)"/>
<path d="M235.129 32.083V44H218.129V32.083H235.129ZM218 0V32.083H205V0H218Z" fill="url(#paint4_linear_306_103)"/>
<path d="M315.259 11.916V0H298.258V11.916H315.259ZM298.129 44V11.917L285.129 11.917V44L298.129 44Z" fill="url(#paint5_linear_306_103)"/>
<path d="M367.199 31.0305L354.213 31.0056L354.247 13.0539L336.305 13.0193L336.271 30.9712L354.213 31.0056L354.188 44L323.259 43.9407L323.318 12.9944L323.343 0L354.272 0.0592991V0.0580279L367.259 0.0829477L367.199 31.0305Z" fill="url(#paint6_linear_306_103)"/>
<path d="M405.259 1L375.259 1V13L392.259 13V32H405.259V1ZM422.259 44V32L405.259 32V44L422.259 44Z" fill="url(#paint7_linear_306_103)"/>
<path d="M474.199 31.0305L461.213 31.0056L461.247 13.0539L443.305 13.0193L443.271 30.9712L461.213 31.0056L461.188 44L430.259 43.9407L430.318 12.9944L430.343 0L461.272 0.0592991V0.0580279L474.259 0.0829477L474.199 31.0305Z" fill="url(#paint8_linear_306_103)"/>
<path d="M513.271 0.0595703V0.0576172L526.259 0.0830078L526.199 31.0303L513.271 30.9717L513.247 13.0537L495.305 13.0195L495.271 30.9717H513.271L513.188 44L482.259 43.9404L482.318 12.9941L482.343 0L513.271 0.0595703ZM538.259 44H516.259V34H538.259V44Z" fill="url(#paint9_linear_306_103)"/>
<defs>
<linearGradient id="paint0_linear_306_103" x1="37.0146" y1="58.6667" x2="16.3362" y2="-127.892" gradientUnits="userSpaceOnUse">
<stop stop-color="#A098FF"/>
<stop offset="0.432708" stop-color="white"/>
</linearGradient>
<linearGradient id="paint1_linear_306_103" x1="77.2372" y1="58.6667" x2="47.3267" y2="-125.322" gradientUnits="userSpaceOnUse">
<stop stop-color="#A098FF"/>
<stop offset="0.432708" stop-color="white"/>
</linearGradient>
<linearGradient id="paint2_linear_306_103" x1="136.268" y1="57.0228" x2="123.147" y2="-109.628" gradientUnits="userSpaceOnUse">
<stop stop-color="#A098FF"/>
<stop offset="0.432708" stop-color="white"/>
</linearGradient>
<linearGradient id="paint3_linear_306_103" x1="190.015" y1="58.6667" x2="169.336" y2="-127.892" gradientUnits="userSpaceOnUse">
<stop stop-color="#A098FF"/>
<stop offset="0.432708" stop-color="white"/>
</linearGradient>
<linearGradient id="paint4_linear_306_103" x1="230.346" y1="58.6667" x2="200.557" y2="-125.362" gradientUnits="userSpaceOnUse">
<stop stop-color="#A098FF"/>
<stop offset="0.432708" stop-color="white"/>
</linearGradient>
<linearGradient id="paint5_linear_306_103" x1="310.475" y1="-14.6667" x2="280.687" y2="169.363" gradientUnits="userSpaceOnUse">
<stop stop-color="#A098FF"/>
<stop offset="0.432708" stop-color="white"/>
</linearGradient>
<linearGradient id="paint6_linear_306_103" x1="360.273" y1="58.6667" x2="339.595" y2="-127.892" gradientUnits="userSpaceOnUse">
<stop stop-color="#A098FF"/>
<stop offset="0.432708" stop-color="white"/>
</linearGradient>
<linearGradient id="paint7_linear_306_103" x1="414.797" y1="-13.3333" x2="396.272" y2="169.347" gradientUnits="userSpaceOnUse">
<stop stop-color="#A098FF"/>
<stop offset="0.432708" stop-color="white"/>
</linearGradient>
<linearGradient id="paint8_linear_306_103" x1="467.273" y1="58.6667" x2="446.595" y2="-127.892" gradientUnits="userSpaceOnUse">
<stop stop-color="#A098FF"/>
<stop offset="0.432708" stop-color="white"/>
</linearGradient>
<linearGradient id="paint9_linear_306_103" x1="529.368" y1="58.6667" x2="513.045" y2="-128.763" gradientUnits="userSpaceOnUse">
<stop stop-color="#A098FF"/>
<stop offset="0.432708" stop-color="white"/>
</linearGradient>
</defs>
</svg>
