<svg width="479" height="67" viewBox="0 0 479 67" fill="none" xmlns="http://www.w3.org/2000/svg">
<path d="M478.621 67H465.369V44.875H434.371V13.6465H447.623V31.623H465.369V13.877L447.623 13.6465V0.625H478.621V67ZM44.9414 31.8535H31.6895V13.877H13.9434V31.623L31.6895 31.8535V44.875H0.691406V0.625H44.9414V31.8535ZM87.3477 31.7383H73.9805V44.875H49.0898V31.7383H73.9805V0.855469H87.3477V31.7383ZM196.59 31.8535H183.338V13.877H165.592V31.623L183.338 31.8535V44.875H152.34V0.625H196.59V31.8535ZM238.881 44.875H213.645V31.5078H238.881V44.875ZM268.318 44.875H255.066V13.877H268.318V44.875ZM341.723 31.8535H328.471V13.877H310.725V31.623L328.471 31.8535V44.875H297.473V0.625H341.723V31.8535ZM370.992 31.623H382.746V44.875H357.625V13.877H345.871V0.625H370.992V31.623ZM430.684 31.8535H417.432V13.877H399.686V31.623L417.432 31.8535V44.875H386.434V0.625H430.684V31.8535ZM104.287 44.7598H91.0352V13.877H104.287V44.7598ZM148.422 44.7598H135.17V13.877H126.412V44.7598H113.16V13.877H104.287V0.625H148.422V44.7598ZM213.645 31.5078H200.277V0.625H213.645V31.5078ZM293.439 13.877H268.318V0.625H293.439V13.877Z" fill="url(#paint0_linear_377_6546)"/>
<defs>
<linearGradient id="paint0_linear_377_6546" x1="402.745" y1="89.125" x2="398.361" y2="-195.694" gradientUnits="userSpaceOnUse">
<stop stop-color="#A098FF"/>
<stop offset="0.668312" stop-color="white"/>
</linearGradient>
</defs>
</svg>
