<svg width="570" height="101" viewBox="0 0 570 101" fill="none" xmlns="http://www.w3.org/2000/svg">
<mask id="path-1-outside-1_113_6009" maskUnits="userSpaceOnUse" x="0" y="0" width="570" height="101" fill="black">
<rect fill="white" width="570" height="101"/>
<path d="M34.0256 99.096C26.6896 99.096 19.9649 96.869 13.8516 92.415C7.73822 87.961 3.54622 81.7167 1.27555 73.682L11.8866 69.359C13.3712 74.9483 16.1222 79.5333 20.1396 83.114C24.1569 86.6947 28.8729 88.485 34.2876 88.485C39.7022 88.485 44.2872 87.044 48.0426 84.162C51.7979 81.1927 53.6756 77.1753 53.6756 72.11C53.6756 67.7433 52.0599 64.1627 48.8286 61.368C45.6846 58.486 40.4882 55.8223 33.2396 53.377L27.3446 51.281C20.7072 48.923 15.2926 45.8227 11.1006 41.98C6.90855 38.1373 4.81255 32.81 4.81255 25.998C4.81255 21.544 6.03522 17.4393 8.48055 13.684C10.9259 9.84133 14.3319 6.78466 18.6986 4.514C23.0652 2.24333 27.9559 1.10799 33.3706 1.10799C38.7852 1.10799 43.5012 2.11233 47.5186 4.12099C51.5359 6.12966 54.7236 8.57499 57.0816 11.457C59.5269 14.339 61.2299 17.1773 62.1906 19.972L51.7106 24.426C50.8372 21.1947 48.8286 18.269 45.6846 15.649C42.6279 13.029 38.5669 11.719 33.5016 11.719C28.6982 11.719 24.5936 13.0727 21.1876 15.78C17.7816 18.4873 16.0786 21.8933 16.0786 25.998C16.0786 29.666 17.5196 32.679 20.4016 35.037C23.2836 37.3077 27.6502 39.4473 33.5016 41.456L39.6586 43.552C47.6059 46.434 53.8066 50.0583 58.2606 54.425C62.7146 58.7043 64.9416 64.5557 64.9416 71.979C64.9416 78.005 63.3696 83.0703 60.2256 87.175C57.1689 91.2797 53.2826 94.2927 48.5666 96.214C43.8506 98.1353 39.0036 99.096 34.0256 99.096ZM99.9052 99.096C91.8706 99.096 85.7136 96.738 81.4342 92.022C77.2422 87.306 75.1462 80.7123 75.1462 72.241V30.19H86.2812V70.538C86.2812 76.9133 87.7222 81.5857 90.6042 84.555C93.4862 87.5243 97.3726 89.009 102.263 89.009C106.019 89.009 109.337 88.0047 112.219 85.996C115.189 83.9873 117.459 81.3673 119.031 78.136C120.691 74.9047 121.52 71.4987 121.52 67.918V30.19H132.655V97H122.044V87.306H121.52C119.686 90.6247 116.761 93.4193 112.743 95.69C108.726 97.9607 104.447 99.096 99.9052 99.096ZM181.59 99.096C176.525 99.096 171.94 97.9607 167.835 95.69C163.818 93.332 160.805 90.4937 158.796 87.175H158.272V97H147.661V3.204H158.796V30.845L158.272 40.146H158.796C160.805 36.74 163.818 33.9017 167.835 31.631C171.94 29.273 176.525 28.094 181.59 28.094C187.529 28.094 192.943 29.6223 197.834 32.679C202.725 35.7357 206.567 39.9713 209.362 45.386C212.157 50.8007 213.554 56.8703 213.554 63.595C213.554 70.407 212.157 76.5203 209.362 81.935C206.567 87.2623 202.725 91.4543 197.834 94.511C192.943 97.5677 187.529 99.096 181.59 99.096ZM180.28 89.009C184.123 89.009 187.747 87.961 191.153 85.865C194.559 83.769 197.266 80.7997 199.275 76.957C201.371 73.027 202.419 68.573 202.419 63.595C202.419 58.617 201.371 54.2067 199.275 50.364C197.266 46.434 194.559 43.421 191.153 41.325C187.747 39.229 184.123 38.181 180.28 38.181C176.437 38.181 172.813 39.229 169.407 41.325C166.001 43.421 163.294 46.3903 161.285 50.233C159.276 54.0757 158.272 58.5297 158.272 63.595C158.272 68.6603 159.276 73.1143 161.285 76.957C163.294 80.7997 166.001 83.769 169.407 85.865C172.813 87.961 176.437 89.009 180.28 89.009ZM247.703 99.096C240.542 99.096 234.559 97.4367 229.756 94.118C224.953 90.712 221.547 86.389 219.538 81.149L229.494 76.695C231.153 80.7123 233.599 83.8127 236.83 85.996C240.149 88.1793 243.773 89.271 247.703 89.271C251.895 89.271 255.476 88.4413 258.445 86.782C261.414 85.0353 262.899 82.59 262.899 79.446C262.899 76.6513 261.72 74.4243 259.362 72.765C257.004 71.0183 253.292 69.5337 248.227 68.311L240.105 66.215C234.778 64.905 230.411 62.678 227.005 59.534C223.599 56.39 221.896 52.329 221.896 47.351C221.896 43.5083 223.031 40.146 225.302 37.264C227.66 34.2947 230.76 32.024 234.603 30.452C238.446 28.88 242.594 28.094 247.048 28.094C252.899 28.094 258.096 29.3603 262.637 31.893C267.266 34.4257 270.541 37.9627 272.462 42.504L262.768 46.958C259.799 41.0193 254.515 38.05 246.917 38.05C243.249 38.05 240.018 38.9233 237.223 40.67C234.516 42.3293 233.162 44.469 233.162 47.089C233.162 49.5343 234.123 51.543 236.044 53.115C237.965 54.5997 240.847 55.8223 244.69 56.783L254.384 59.272C260.934 60.9313 265.868 63.4203 269.187 66.739C272.506 69.9703 274.165 73.944 274.165 78.66C274.165 82.7647 272.986 86.389 270.628 89.533C268.27 92.5897 265.082 94.9477 261.065 96.607C257.048 98.2663 252.594 99.096 247.703 99.096ZM315.763 99.096C309.3 99.096 303.492 97.5677 298.34 94.511C293.187 91.367 289.17 87.1313 286.288 81.804C283.406 76.3893 281.965 70.3197 281.965 63.595C281.965 56.8703 283.406 50.8007 286.288 45.386C289.17 39.9713 293.187 35.7357 298.34 32.679C303.492 29.6223 309.3 28.094 315.763 28.094C323.011 28.094 329.081 29.797 333.972 33.203C338.95 36.5217 342.487 40.9757 344.583 46.565L334.496 50.757C332.836 46.6523 330.347 43.552 327.029 41.456C323.797 39.2727 319.867 38.181 315.239 38.181C311.309 38.181 307.641 39.2727 304.235 41.456C300.829 43.552 298.078 46.5213 295.982 50.364C293.973 54.2067 292.969 58.617 292.969 63.595C292.969 68.573 293.973 72.9833 295.982 76.826C298.078 80.6687 300.829 83.6817 304.235 85.865C307.641 87.961 311.309 89.009 315.239 89.009C319.955 89.009 324.016 87.9173 327.422 85.734C330.828 83.5507 333.36 80.4503 335.02 76.433L344.976 80.625C342.705 86.127 339.037 90.581 333.972 93.987C328.994 97.393 322.924 99.096 315.763 99.096ZM354.934 30.19H365.545V40.932H366.069C367.379 37.264 369.911 34.251 373.667 31.893C377.422 29.4477 381.352 28.225 385.457 28.225C388.513 28.225 391.133 28.6617 393.317 29.535V41.587C390.522 40.1897 387.378 39.491 383.885 39.491C380.653 39.491 377.684 40.408 374.977 42.242C372.269 44.076 370.086 46.565 368.427 49.709C366.855 52.7657 366.069 56.0843 366.069 59.665V97H354.934V30.19ZM409.168 17.876C406.984 17.876 405.107 17.09 403.535 15.518C401.963 13.946 401.177 12.0683 401.177 9.885C401.177 7.70166 401.963 5.86766 403.535 4.383C405.107 2.811 406.984 2.025 409.168 2.025C411.351 2.025 413.229 2.811 414.801 4.383C416.373 5.86766 417.159 7.70166 417.159 9.885C417.159 12.0683 416.373 13.946 414.801 15.518C413.316 17.09 411.438 17.876 409.168 17.876ZM403.666 30.19H414.67V97H403.666V30.19ZM464.657 99.096C459.592 99.096 455.007 97.9607 450.902 95.69C446.885 93.332 443.872 90.4937 441.863 87.175H441.339V97H430.728V3.204H441.863V30.845L441.339 40.146H441.863C443.872 36.74 446.885 33.9017 450.902 31.631C455.007 29.273 459.592 28.094 464.657 28.094C470.596 28.094 476.011 29.6223 480.901 32.679C485.792 35.7357 489.635 39.9713 492.429 45.386C495.224 50.8007 496.621 56.8703 496.621 63.595C496.621 70.407 495.224 76.5203 492.429 81.935C489.635 87.2623 485.792 91.4543 480.901 94.511C476.011 97.5677 470.596 99.096 464.657 99.096ZM463.347 89.009C467.19 89.009 470.814 87.961 474.22 85.865C477.626 83.769 480.334 80.7997 482.342 76.957C484.438 73.027 485.486 68.573 485.486 63.595C485.486 58.617 484.438 54.2067 482.342 50.364C480.334 46.434 477.626 43.421 474.22 41.325C470.814 39.229 467.19 38.181 463.347 38.181C459.505 38.181 455.88 39.229 452.474 41.325C449.068 43.421 446.361 46.3903 444.352 50.233C442.344 54.0757 441.339 58.5297 441.339 63.595C441.339 68.6603 442.344 73.1143 444.352 76.957C446.361 80.7997 449.068 83.769 452.474 85.865C455.88 87.961 459.505 89.009 463.347 89.009ZM537.829 99.096C531.454 99.096 525.733 97.5677 520.668 94.511C515.603 91.4543 511.629 87.2623 508.747 81.935C505.952 76.5203 504.555 70.4507 504.555 63.726C504.555 57.2633 505.865 51.3247 508.485 45.91C511.192 40.4953 514.991 36.1723 519.882 32.941C524.773 29.7097 530.449 28.094 536.912 28.094C543.462 28.094 549.139 29.5787 553.942 32.548C558.745 35.43 562.413 39.4473 564.946 44.6C567.566 49.7527 568.876 55.6477 568.876 62.285C568.876 63.595 568.745 64.7303 568.483 65.691H515.69C515.952 70.7563 517.175 75.0357 519.358 78.529C521.541 82.0223 524.292 84.6423 527.611 86.389C531.017 88.1357 534.554 89.009 538.222 89.009C546.781 89.009 553.374 84.9917 558.003 76.957L567.435 81.542C564.553 86.9567 560.623 91.236 555.645 94.38C550.754 97.524 544.816 99.096 537.829 99.096ZM557.086 56.521C556.911 53.7263 556.125 50.9317 554.728 48.137C553.331 45.3423 551.104 42.9843 548.047 41.063C545.078 39.1417 541.322 38.181 536.781 38.181C531.541 38.181 527.087 39.884 523.419 43.29C519.838 46.6087 517.48 51.019 516.345 56.521H557.086Z"/>
</mask>
<path d="M13.8516 92.415L13.2627 93.2232L13.2627 93.2232L13.8516 92.415ZM1.27555 73.682L0.898254 72.7559L0.0700221 73.0933L0.313241 73.954L1.27555 73.682ZM11.8866 69.359L12.853 69.1023L12.5614 68.0043L11.5093 68.4329L11.8866 69.359ZM20.1396 83.114L20.8049 82.3675L20.8049 82.3675L20.1396 83.114ZM48.0426 84.162L48.6514 84.9553L48.6571 84.9509L48.6628 84.9464L48.0426 84.162ZM48.8286 61.368L48.1528 62.1052L48.1635 62.1149L48.1744 62.1244L48.8286 61.368ZM33.2396 53.377L32.9045 54.3192L32.9122 54.3219L32.9199 54.3245L33.2396 53.377ZM27.3446 51.281L27.6796 50.3388L27.6793 50.3387L27.3446 51.281ZM11.1006 41.98L10.4248 42.7172L10.4248 42.7172L11.1006 41.98ZM8.48055 13.684L9.31859 14.2297L9.32421 14.2209L8.48055 13.684ZM18.6986 4.514L18.2372 3.62678L18.2372 3.62678L18.6986 4.514ZM57.0816 11.457L56.3076 12.0902L56.3133 12.0972L56.319 12.104L57.0816 11.457ZM62.1906 19.972L62.5817 20.8923L63.4391 20.5279L63.1362 19.6469L62.1906 19.972ZM51.7106 24.426L50.7452 24.6869L51.0448 25.7955L52.1017 25.3463L51.7106 24.426ZM45.6846 15.649L45.0337 16.4083L45.0444 16.4172L45.6846 15.649ZM21.1876 15.78L21.8098 16.5628L21.8098 16.5628L21.1876 15.78ZM20.4016 35.037L19.7683 35.811L19.7754 35.8168L19.7827 35.8225L20.4016 35.037ZM33.5016 41.456L33.1769 42.4018L33.1793 42.4026L33.5016 41.456ZM39.6586 43.552L39.9995 42.6119L39.9902 42.6085L39.9808 42.6053L39.6586 43.552ZM58.2606 54.425L57.5604 55.1391L57.5677 55.1461L58.2606 54.425ZM60.2256 87.175L59.4316 86.5669L59.4235 86.5777L60.2256 87.175ZM48.5666 96.214L48.9439 97.1401L48.9439 97.1401L48.5666 96.214ZM34.0256 99.096V98.096C26.9081 98.096 20.3884 95.9403 14.4404 91.6068L13.8516 92.415L13.2627 93.2232C19.5414 97.7977 26.471 100.096 34.0256 100.096V99.096ZM13.8516 92.415L14.4404 91.6068C8.52708 87.2985 4.45432 81.2529 2.23786 73.41L1.27555 73.682L0.313241 73.954C2.63811 82.1804 6.94935 88.6235 13.2627 93.2232L13.8516 92.415ZM1.27555 73.682L1.65285 74.6081L12.2638 70.2851L11.8866 69.359L11.5093 68.4329L0.898254 72.7559L1.27555 73.682ZM11.8866 69.359L10.9201 69.6157C12.4511 75.3795 15.2997 80.1398 19.4742 83.8605L20.1396 83.114L20.8049 82.3675C16.9448 78.9269 14.2914 74.5172 12.853 69.1023L11.8866 69.359ZM20.1396 83.114L19.4742 83.8605C23.6759 87.6056 28.6292 89.485 34.2876 89.485V88.485V87.485C29.1166 87.485 24.6378 85.7838 20.8049 82.3675L20.1396 83.114ZM34.2876 88.485V89.485C39.8892 89.485 44.6968 87.9902 48.6514 84.9553L48.0426 84.162L47.4337 83.3687C43.8776 86.0978 39.5152 87.485 34.2876 87.485V88.485ZM48.0426 84.162L48.6628 84.9464C52.6736 81.7751 54.6756 77.4606 54.6756 72.11H53.6756H52.6756C52.6756 76.8901 50.9221 80.6103 47.4223 83.3776L48.0426 84.162ZM53.6756 72.11H54.6756C54.6756 67.4603 52.9392 63.601 49.4827 60.6116L48.8286 61.368L48.1744 62.1244C51.1806 64.7243 52.6756 68.0263 52.6756 72.11H53.6756ZM48.8286 61.368L49.5043 60.6308C46.2059 57.6073 40.8515 54.8895 33.5592 52.4295L33.2396 53.377L32.9199 54.3245C40.1249 56.7551 45.1632 59.3647 48.1528 62.1052L48.8286 61.368ZM33.2396 53.377L33.5746 52.4348L27.6796 50.3388L27.3446 51.281L27.0095 52.2232L32.9045 54.3192L33.2396 53.377ZM27.3446 51.281L27.6793 50.3387C21.139 48.0152 15.849 44.9761 11.7763 41.2428L11.1006 41.98L10.4248 42.7172C14.7361 46.6692 20.2754 49.8308 27.0098 52.2233L27.3446 51.281ZM11.1006 41.98L11.7763 41.2428C7.83149 37.6268 5.81255 32.5899 5.81255 25.998H4.81255H3.81255C3.81255 33.0301 5.98562 38.6479 10.4248 42.7172L11.1006 41.98ZM4.81255 25.998H5.81255C5.81255 21.739 6.97825 17.8237 9.31855 14.2297L8.48055 13.684L7.64255 13.1383C5.09219 17.055 3.81255 21.349 3.81255 25.998H4.81255ZM8.48055 13.684L9.32421 14.2209C11.6676 10.5384 14.9363 7.5975 19.1599 5.40121L18.6986 4.514L18.2372 3.62678C13.7275 5.97183 10.1842 9.14422 7.63689 13.1471L8.48055 13.684ZM18.6986 4.514L19.1599 5.40121C23.3702 3.21185 28.1001 2.10799 33.3706 2.10799V1.10799V0.107993C27.8117 0.107993 22.7602 1.27481 18.2372 3.62678L18.6986 4.514ZM33.3706 1.10799V2.10799C38.6615 2.10799 43.2186 3.08903 47.0713 5.01542L47.5186 4.12099L47.9658 3.22657C43.7839 1.13562 38.9089 0.107993 33.3706 0.107993V1.10799ZM47.5186 4.12099L47.0713 5.01542C50.9881 6.97379 54.0553 9.33746 56.3076 12.0902L57.0816 11.457L57.8555 10.8238C55.3918 7.81253 52.0837 5.28553 47.9658 3.22657L47.5186 4.12099ZM57.0816 11.457L56.319 12.104C58.7053 14.9163 60.3342 17.648 61.2449 20.2971L62.1906 19.972L63.1362 19.6469C62.1255 16.7067 60.3485 13.7617 57.8441 10.81L57.0816 11.457ZM62.1906 19.972L61.7994 19.0517L51.3194 23.5057L51.7106 24.426L52.1017 25.3463L62.5817 20.8923L62.1906 19.972ZM51.7106 24.426L52.6759 24.1651C51.738 20.6947 49.591 17.6027 46.3247 14.8808L45.6846 15.649L45.0444 16.4172C48.0661 18.9353 49.9365 21.6947 50.7452 24.6869L51.7106 24.426ZM45.6846 15.649L46.3353 14.8897C43.0544 12.0775 38.7421 10.719 33.5016 10.719V11.719V12.719C38.3917 12.719 42.2013 13.9805 45.0338 16.4083L45.6846 15.649ZM33.5016 11.719V10.719C28.4972 10.719 24.1668 12.1344 20.5653 14.9972L21.1876 15.78L21.8098 16.5628C25.0203 14.0109 28.8993 12.719 33.5016 12.719V11.719ZM21.1876 15.78L20.5653 14.9972C16.9372 17.8811 15.0786 21.5679 15.0786 25.998H16.0786H17.0786C17.0786 22.2187 18.6259 19.0936 21.8098 16.5628L21.1876 15.78ZM16.0786 25.998H15.0786C15.0786 29.9712 16.6583 33.2664 19.7683 35.811L20.4016 35.037L21.0348 34.263C18.3808 32.0916 17.0786 29.3608 17.0786 25.998H16.0786ZM20.4016 35.037L19.7827 35.8225C22.7932 38.1944 27.2817 40.3781 33.1769 42.4018L33.5016 41.456L33.8262 40.5102C28.0187 38.5166 23.7739 36.4209 21.0204 34.2515L20.4016 35.037ZM33.5016 41.456L33.1793 42.4026L39.3363 44.4986L39.6586 43.552L39.9808 42.6053L33.8238 40.5093L33.5016 41.456ZM39.6586 43.552L39.3176 44.4921C47.1756 47.3417 53.2381 50.9015 57.5605 55.1391L58.2606 54.425L58.9606 53.7109C54.375 49.2152 48.0362 45.5263 39.9995 42.6119L39.6586 43.552ZM58.2606 54.425L57.5677 55.1461C61.7866 59.1995 63.9416 64.7687 63.9416 71.979H64.9416H65.9416C65.9416 64.3427 63.6425 58.2092 58.9534 53.7039L58.2606 54.425ZM64.9416 71.979H63.9416C63.9416 77.823 62.4207 82.6646 59.4317 86.5669L60.2256 87.175L61.0194 87.7831C64.3184 83.476 65.9416 78.187 65.9416 71.979H64.9416ZM60.2256 87.175L59.4235 86.5777C56.4752 90.5369 52.7354 93.4358 48.1893 95.2879L48.5666 96.214L48.9439 97.1401C53.8297 95.1496 57.8626 92.0225 61.0276 87.7723L60.2256 87.175ZM48.5666 96.214L48.1893 95.2879C43.5902 97.1616 38.8712 98.096 34.0256 98.096V99.096V100.096C39.1359 100.096 44.1109 99.1091 48.9439 97.1401L48.5666 96.214ZM81.4342 92.022L80.6868 92.6864L80.6937 92.694L81.4342 92.022ZM75.1462 30.19V29.19H74.1462V30.19H75.1462ZM86.2812 30.19H87.2812V29.19H86.2812V30.19ZM90.6042 84.555L89.8867 85.2515L89.8867 85.2515L90.6042 84.555ZM112.219 85.996L111.659 85.1676L111.647 85.1756L112.219 85.996ZM119.031 78.136L118.142 77.6792L118.137 77.6888L118.132 77.6985L119.031 78.136ZM121.52 30.19V29.19H120.52V30.19H121.52ZM132.655 30.19H133.655V29.19H132.655V30.19ZM132.655 97V98H133.655V97H132.655ZM122.044 97H121.044V98H122.044V97ZM122.044 87.306H123.044V86.306H122.044V87.306ZM121.52 87.306V86.306H120.93L120.645 86.8223L121.52 87.306ZM99.9052 99.096V98.096C92.0737 98.096 86.2173 95.805 82.1748 91.35L81.4342 92.022L80.6937 92.694C85.2098 97.671 91.6675 100.096 99.9052 100.096V99.096ZM81.4342 92.022L82.1817 91.3576C78.2011 86.8795 76.1462 80.5524 76.1462 72.241H75.1462H74.1462C74.1462 80.8723 76.2834 87.7325 80.6868 92.6864L81.4342 92.022ZM75.1462 72.241H76.1462V30.19H75.1462H74.1462V72.241H75.1462ZM75.1462 30.19V31.19H86.2812V30.19V29.19H75.1462V30.19ZM86.2812 30.19H85.2812V70.538H86.2812H87.2812V30.19H86.2812ZM86.2812 70.538H85.2812C85.2812 77.0365 86.7465 82.0162 89.8867 85.2515L90.6042 84.555L91.3218 83.8585C88.6979 81.1551 87.2812 76.7901 87.2812 70.538H86.2812ZM90.6042 84.555L89.8867 85.2515C92.991 88.4499 97.1553 90.009 102.263 90.009V89.009V88.009C97.5898 88.009 93.9815 86.5987 91.3218 83.8585L90.6042 84.555ZM102.263 89.009V90.009C106.208 90.009 109.729 88.9502 112.791 86.8164L112.219 85.996L111.647 85.1756C108.945 87.0591 105.829 88.009 102.263 88.009V89.009ZM112.219 85.996L112.78 86.8243C115.895 84.7171 118.282 81.9621 119.93 78.5735L119.031 78.136L118.132 77.6985C116.637 80.7725 114.483 83.2576 111.659 85.1677L112.219 85.996ZM119.031 78.136L119.921 78.5928C121.652 75.2223 122.52 71.6599 122.52 67.918H121.52H120.52C120.52 71.3374 119.73 74.5871 118.142 77.6792L119.031 78.136ZM121.52 67.918H122.52V30.19H121.52H120.52V67.918H121.52ZM121.52 30.19V31.19H132.655V30.19V29.19H121.52V30.19ZM132.655 30.19H131.655V97H132.655H133.655V30.19H132.655ZM132.655 97V96H122.044V97V98H132.655V97ZM122.044 97H123.044V87.306H122.044H121.044V97H122.044ZM122.044 87.306V86.306H121.52V87.306V88.306H122.044V87.306ZM121.52 87.306L120.645 86.8223C118.918 89.9471 116.143 92.62 112.251 94.8194L112.743 95.69L113.235 96.5606C117.379 94.2187 120.454 91.3022 122.395 87.7897L121.52 87.306ZM112.743 95.69L112.251 94.8194C108.381 97.0067 104.271 98.096 99.9052 98.096V99.096V100.096C104.622 100.096 109.07 98.9146 113.235 96.5606L112.743 95.69ZM167.835 95.69L167.329 96.5524L167.34 96.5589L167.351 96.565L167.835 95.69ZM158.796 87.175L159.651 86.6572L159.36 86.175H158.796V87.175ZM158.272 87.175V86.175H157.272V87.175H158.272ZM158.272 97V98H159.272V97H158.272ZM147.661 97H146.661V98H147.661V97ZM147.661 3.204V2.204H146.661V3.204H147.661ZM158.796 3.204H159.796V2.204H158.796V3.204ZM158.796 30.845L159.794 30.9012L159.796 30.8731V30.845H158.796ZM158.272 40.146L157.273 40.0897L157.214 41.146H158.272V40.146ZM158.796 40.146V41.146H159.367L159.657 40.654L158.796 40.146ZM167.835 31.631L168.327 32.5016L168.333 32.4981L167.835 31.631ZM197.834 32.679L197.304 33.527L197.304 33.527L197.834 32.679ZM209.362 81.935L210.247 82.3996L210.251 82.3936L209.362 81.935ZM197.834 94.511L197.304 93.663L197.304 93.663L197.834 94.511ZM191.153 85.865L191.677 86.7167L191.677 86.7167L191.153 85.865ZM199.275 76.957L198.393 76.4864L198.389 76.4937L199.275 76.957ZM199.275 50.364L198.384 50.8191L198.391 50.8311L198.397 50.8429L199.275 50.364ZM191.153 41.325L190.629 42.1767L190.629 42.1767L191.153 41.325ZM169.407 41.325L169.931 42.1767L169.931 42.1767L169.407 41.325ZM161.285 76.957L162.171 76.4937L162.171 76.4937L161.285 76.957ZM169.407 85.865L169.931 85.0133L169.931 85.0133L169.407 85.865ZM181.59 99.096V98.096C176.68 98.096 172.264 96.9972 168.319 94.815L167.835 95.69L167.351 96.565C171.615 98.9241 176.369 100.096 181.59 100.096V99.096ZM167.835 95.69L168.341 94.8276C164.438 92.5369 161.558 89.8078 159.651 86.6572L158.796 87.175L157.94 87.6928C160.051 91.1795 163.197 94.1271 167.329 96.5524L167.835 95.69ZM158.796 87.175V86.175H158.272V87.175V88.175H158.796V87.175ZM158.272 87.175H157.272V97H158.272H159.272V87.175H158.272ZM158.272 97V96H147.661V97V98H158.272V97ZM147.661 97H148.661V3.204H147.661H146.661V97H147.661ZM147.661 3.204V4.204H158.796V3.204V2.204H147.661V3.204ZM158.796 3.204H157.796V30.845H158.796H159.796V3.204H158.796ZM158.796 30.845L157.797 30.7888L157.273 40.0897L158.272 40.146L159.27 40.2022L159.794 30.9012L158.796 30.845ZM158.272 40.146V41.146H158.796V40.146V39.146H158.272V40.146ZM158.796 40.146L159.657 40.654C161.563 37.4228 164.437 34.7004 168.327 32.5016L167.835 31.631L167.343 30.7604C163.198 33.1029 160.046 36.0572 157.935 39.638L158.796 40.146ZM167.835 31.631L168.333 32.4981C172.275 30.2333 176.687 29.094 181.59 29.094V28.094V27.094C176.362 27.094 171.604 28.3127 167.337 30.7639L167.835 31.631ZM181.59 28.094V29.094C187.347 29.094 192.577 30.5727 197.304 33.527L197.834 32.679L198.364 31.831C193.309 28.6719 187.71 27.094 181.59 27.094V28.094ZM197.834 32.679L197.304 33.527C202.033 36.483 205.756 40.5802 208.473 45.8446L209.362 45.386L210.251 44.9274C207.378 39.3624 203.416 34.9883 198.364 31.831L197.834 32.679ZM209.362 45.386L208.473 45.8446C211.187 51.1033 212.554 57.0131 212.554 63.595H213.554H214.554C214.554 56.7276 213.126 50.498 210.251 44.9274L209.362 45.386ZM213.554 63.595H212.554C212.554 70.2665 211.186 76.2195 208.473 81.4764L209.362 81.935L210.251 82.3936C213.127 76.8211 214.554 70.5475 214.554 63.595H213.554ZM209.362 81.935L208.476 81.4705C205.76 86.6478 202.038 90.7045 197.304 93.663L197.834 94.511L198.364 95.359C203.412 92.2042 207.374 87.8769 210.247 82.3995L209.362 81.935ZM197.834 94.511L197.304 93.663C192.577 96.6173 187.347 98.096 181.59 98.096V99.096V100.096C187.71 100.096 193.309 98.5181 198.364 95.359L197.834 94.511ZM180.28 89.009V90.009C184.315 90.009 188.12 88.9055 191.677 86.7167L191.153 85.865L190.629 85.0133C187.374 87.0165 183.93 88.009 180.28 88.009V89.009ZM191.153 85.865L191.677 86.7167C195.249 84.5183 198.076 81.4087 200.161 77.4203L199.275 76.957L198.389 76.4937C196.456 80.1906 193.868 83.0197 190.629 85.0133L191.153 85.865ZM199.275 76.957L200.157 77.4276C202.339 73.3364 203.419 68.7175 203.419 63.595H202.419H201.419C201.419 68.4285 200.403 72.7176 198.393 76.4864L199.275 76.957ZM202.419 63.595H203.419C203.419 58.4729 202.339 53.8938 200.153 49.8851L199.275 50.364L198.397 50.8429C200.402 54.5195 201.419 58.7611 201.419 63.595H202.419ZM199.275 50.364L200.165 49.9089C198.082 45.8331 195.255 42.6752 191.677 40.4733L191.153 41.325L190.629 42.1767C193.863 44.1668 196.45 47.0349 198.384 50.8191L199.275 50.364ZM191.153 41.325L191.677 40.4733C188.12 38.2845 184.315 37.181 180.28 37.181V38.181V39.181C183.93 39.181 187.374 40.1735 190.629 42.1767L191.153 41.325ZM180.28 38.181V37.181C176.244 37.181 172.44 38.2845 168.883 40.4733L169.407 41.325L169.931 42.1767C173.186 40.1735 176.63 39.181 180.28 39.181V38.181ZM169.407 41.325L168.883 40.4733C165.31 42.6717 162.484 45.7812 160.399 49.7697L161.285 50.233L162.171 50.6963C164.104 46.9994 166.691 44.1703 169.931 42.1767L169.407 41.325ZM161.285 50.233L160.399 49.7697C158.304 53.7777 157.272 58.3955 157.272 63.595H158.272H159.272C159.272 58.6638 160.249 54.3737 162.171 50.6963L161.285 50.233ZM158.272 63.595H157.272C157.272 68.7945 158.304 73.4123 160.399 77.4203L161.285 76.957L162.171 76.4937C160.249 72.8163 159.272 68.5262 159.272 63.595H158.272ZM161.285 76.957L160.399 77.4203C162.484 81.4087 165.31 84.5183 168.883 86.7167L169.407 85.865L169.931 85.0133C166.691 83.0197 164.104 80.1906 162.171 76.4937L161.285 76.957ZM169.407 85.865L168.883 86.7167C172.44 88.9055 176.244 90.009 180.28 90.009V89.009V88.009C176.63 88.009 173.186 87.0165 169.931 85.0133L169.407 85.865ZM229.756 94.118L229.177 94.9338L229.187 94.9407L229.756 94.118ZM219.538 81.149L219.13 80.2362L218.265 80.6228L218.604 81.5069L219.538 81.149ZM229.494 76.695L230.418 76.3132L230.025 75.3618L229.086 75.7822L229.494 76.695ZM236.83 85.996L236.27 86.8247L236.28 86.8314L236.83 85.996ZM258.445 86.782L258.933 87.6549L258.942 87.6495L258.952 87.6439L258.445 86.782ZM259.362 72.765L258.767 73.5686L258.776 73.5758L258.786 73.5828L259.362 72.765ZM248.227 68.311L247.977 69.2793L247.985 69.2812L247.992 69.2831L248.227 68.311ZM240.105 66.215L240.355 65.2467L240.344 65.2439L240.105 66.215ZM227.005 59.534L226.327 60.2688L226.327 60.2688L227.005 59.534ZM225.302 37.264L224.519 36.6421L224.516 36.6451L225.302 37.264ZM234.603 30.452L234.224 29.5265L234.603 30.452ZM262.637 31.893L262.15 32.7664L262.157 32.7703L262.637 31.893ZM272.462 42.504L272.879 43.4127L273.761 43.0077L273.383 42.1144L272.462 42.504ZM262.768 46.958L261.874 47.4052L262.306 48.2706L263.185 47.8667L262.768 46.958ZM237.223 40.67L237.746 41.5226L237.753 41.518L237.223 40.67ZM236.044 53.115L235.411 53.889L235.421 53.8978L235.432 53.9063L236.044 53.115ZM244.69 56.783L244.939 55.8144L244.932 55.8129L244.69 56.783ZM254.384 59.272L254.135 60.2406L254.138 60.2414L254.384 59.272ZM269.187 66.739L268.48 67.4462L268.489 67.4555L269.187 66.739ZM270.628 89.533L271.42 90.1439L271.428 90.133L270.628 89.533ZM261.065 96.607L261.447 97.5313L261.447 97.5313L261.065 96.607ZM247.703 99.096V98.096C240.698 98.096 234.926 96.4746 230.324 93.2953L229.756 94.118L229.187 94.9407C234.193 98.3987 240.385 100.096 247.703 100.096V99.096ZM229.756 94.118L230.334 93.3023C225.684 90.0045 222.406 85.8374 220.472 80.7911L219.538 81.149L218.604 81.5069C220.687 86.9406 224.222 91.4195 229.177 94.9337L229.756 94.118ZM219.538 81.149L219.946 82.0618L229.902 77.6078L229.494 76.695L229.086 75.7822L219.13 80.2362L219.538 81.149ZM229.494 76.695L228.57 77.0768C230.295 81.254 232.858 84.519 236.27 86.8246L236.83 85.996L237.39 85.1674C234.339 83.1064 232.011 80.1706 230.418 76.3132L229.494 76.695ZM236.83 85.996L236.28 86.8314C239.76 89.1209 243.575 90.271 247.703 90.271V89.271V88.271C243.971 88.271 240.537 87.2378 237.38 85.1606L236.83 85.996ZM247.703 89.271V90.271C252.026 90.271 255.783 89.4149 258.933 87.6549L258.445 86.782L257.957 85.9091C255.168 87.4678 251.763 88.271 247.703 88.271V89.271ZM258.445 86.782L258.952 87.6439C262.191 85.7384 263.899 82.9836 263.899 79.446H262.899H261.899C261.899 82.1964 260.637 84.3323 257.938 85.9201L258.445 86.782ZM262.899 79.446H263.899C263.899 76.3138 262.552 73.7868 259.937 71.9472L259.362 72.765L258.786 73.5828C260.888 75.0619 261.899 76.9889 261.899 79.446H262.899ZM259.362 72.765L259.957 71.9614C257.438 70.0955 253.572 68.5724 248.462 67.3389L248.227 68.311L247.992 69.2831C253.013 70.4949 256.57 71.9411 258.767 73.5686L259.362 72.765ZM248.227 68.311L248.477 67.3427L240.355 65.2467L240.105 66.215L239.855 67.1833L247.977 69.2793L248.227 68.311ZM240.105 66.215L240.344 65.2439C235.15 63.9669 230.944 61.8092 227.683 58.7992L227.005 59.534L226.327 60.2688C229.878 63.5468 234.405 65.8431 239.866 67.1861L240.105 66.215ZM227.005 59.534L227.683 58.7992C224.499 55.8596 222.896 52.073 222.896 47.351H221.896H220.896C220.896 52.585 222.699 56.9204 226.327 60.2688L227.005 59.534ZM221.896 47.351H222.896C222.896 43.7214 223.963 40.5797 226.087 37.8829L225.302 37.264L224.516 36.6451C222.1 39.7123 220.896 43.2952 220.896 47.351H221.896ZM225.302 37.264L226.085 37.8859C228.327 35.0633 231.282 32.891 234.982 31.3775L234.603 30.452L234.224 29.5265C230.238 31.157 226.993 33.5261 224.519 36.6421L225.302 37.264ZM234.603 30.452L234.982 31.3775C238.696 29.8582 242.714 29.094 247.048 29.094V28.094V27.094C242.474 27.094 238.196 27.9018 234.224 29.5265L234.603 30.452ZM247.048 28.094V29.094C252.751 29.094 257.775 30.3267 262.15 32.7664L262.637 31.893L263.124 31.0196C258.416 28.3939 253.048 27.094 247.048 27.094V28.094ZM262.637 31.893L262.157 32.7703C266.603 35.2028 269.714 38.5749 271.541 42.8936L272.462 42.504L273.383 42.1144C271.367 37.3504 267.929 33.6485 263.117 31.0157L262.637 31.893ZM272.462 42.504L272.044 41.5953L262.35 46.0493L262.768 46.958L263.185 47.8667L272.879 43.4127L272.462 42.504ZM262.768 46.958L263.662 46.5108C262.097 43.3805 259.901 40.9971 257.068 39.4052C254.243 37.8177 250.845 37.05 246.917 37.05V38.05V39.05C250.587 39.05 253.629 39.7669 256.088 41.1488C258.539 42.5262 260.469 44.5968 261.874 47.4052L262.768 46.958ZM246.917 38.05V37.05C243.083 37.05 239.664 37.965 236.693 39.822L237.223 40.67L237.753 41.518C240.371 39.8816 243.415 39.05 246.917 39.05V38.05ZM237.223 40.67L236.7 39.8174C233.77 41.6137 232.162 44.0431 232.162 47.089H233.162H234.162C234.162 44.8949 235.262 43.045 237.745 41.5226L237.223 40.67ZM233.162 47.089H232.162C232.162 49.8395 233.261 52.1304 235.411 53.889L236.044 53.115L236.677 52.341C234.984 50.9556 234.162 49.2291 234.162 47.089H233.162ZM236.044 53.115L235.432 53.9063C237.511 55.5122 240.545 56.7775 244.447 57.7531L244.69 56.783L244.932 55.8129C241.15 54.8671 238.42 53.6871 236.655 52.3237L236.044 53.115ZM244.69 56.783L244.441 57.7516L254.135 60.2406L254.384 59.272L254.633 58.3034L244.939 55.8144L244.69 56.783ZM254.384 59.272L254.138 60.2414C260.586 61.8748 265.333 64.2989 268.48 67.4461L269.187 66.739L269.894 66.0319C266.404 62.5417 261.282 59.9879 254.63 58.3026L254.384 59.272ZM269.187 66.739L268.489 67.4555C271.611 70.4947 273.165 74.2083 273.165 78.66H274.165H275.165C275.165 73.6797 273.4 69.4459 269.885 66.0225L269.187 66.739ZM274.165 78.66H273.165C273.165 82.5586 272.05 85.9702 269.828 88.933L270.628 89.533L271.428 90.133C273.922 86.8078 275.165 82.9707 275.165 78.66H274.165ZM270.628 89.533L269.836 88.9222C267.598 91.8235 264.56 94.0816 260.683 95.6827L261.065 96.607L261.447 97.5313C265.605 95.8137 268.942 93.3558 271.42 90.1438L270.628 89.533ZM261.065 96.607L260.683 95.6827C256.801 97.2862 252.479 98.096 247.703 98.096V99.096V100.096C252.708 100.096 257.294 99.2465 261.447 97.5313L261.065 96.607ZM298.34 94.511L297.819 95.3647L297.829 95.3711L298.34 94.511ZM286.288 81.804L285.405 82.2739L285.408 82.2798L286.288 81.804ZM286.288 45.386L287.17 45.8558L287.17 45.8558L286.288 45.386ZM298.34 32.679L298.85 33.5391L298.85 33.5391L298.34 32.679ZM333.972 33.203L333.4 34.0236L333.408 34.0294L333.417 34.035L333.972 33.203ZM344.583 46.565L344.966 47.4884L345.858 47.1179L345.519 46.2139L344.583 46.565ZM334.496 50.757L333.568 51.1318L333.947 52.0679L334.879 51.6804L334.496 50.757ZM327.029 41.456L326.469 42.2846L326.481 42.2932L326.495 42.3015L327.029 41.456ZM304.235 41.456L304.759 42.3077L304.766 42.3028L304.774 42.2979L304.235 41.456ZM295.982 50.364L295.104 49.8851L295.099 49.8929L295.095 49.9007L295.982 50.364ZM295.982 76.826L295.095 77.2893L295.099 77.2971L295.104 77.3049L295.982 76.826ZM304.235 85.865L303.695 86.7069L303.703 86.7118L303.71 86.7167L304.235 85.865ZM327.422 85.734L327.961 86.5759L327.961 86.5759L327.422 85.734ZM335.02 76.433L335.408 75.5114L334.48 75.1207L334.095 76.0512L335.02 76.433ZM344.976 80.625L345.9 81.0065L346.279 80.0887L345.364 79.7034L344.976 80.625ZM333.972 93.987L333.414 93.1571L333.407 93.1617L333.972 93.987ZM315.763 99.096V98.096C309.465 98.096 303.836 96.6088 298.85 93.6509L298.34 94.511L297.829 95.3711C303.149 98.5265 309.135 100.096 315.763 100.096V99.096ZM298.34 94.511L298.86 93.6574C293.859 90.6057 289.965 86.5007 287.167 81.3282L286.288 81.804L285.408 82.2798C288.374 87.762 292.515 92.1283 297.819 95.3646L298.34 94.511ZM286.288 81.804L287.17 81.3342C284.373 76.0777 282.965 70.1719 282.965 63.595H281.965H280.965C280.965 70.4674 282.439 76.7009 285.405 82.2738L286.288 81.804ZM281.965 63.595H282.965C282.965 57.0181 284.373 51.1123 287.17 45.8558L286.288 45.386L285.405 44.9161C282.439 50.489 280.965 56.7226 280.965 63.595H281.965ZM286.288 45.386L287.17 45.8558C289.968 40.5989 293.859 36.4999 298.85 33.5391L298.34 32.679L297.829 31.8189C292.515 34.9714 288.371 39.3438 285.405 44.9161L286.288 45.386ZM298.34 32.679L298.85 33.5391C303.836 30.5812 309.465 29.094 315.763 29.094V28.094V27.094C309.135 27.094 303.149 28.6635 297.829 31.8189L298.34 32.679ZM315.763 28.094V29.094C322.852 29.094 328.71 30.7576 333.4 34.0236L333.972 33.203L334.543 32.3824C329.451 28.8363 323.171 27.094 315.763 27.094V28.094ZM333.972 33.203L333.417 34.035C338.221 37.2377 341.624 41.5236 343.646 46.9161L344.583 46.565L345.519 46.2139C343.349 40.4277 339.678 35.8057 334.526 32.3709L333.972 33.203ZM344.583 46.565L344.199 45.6416L334.112 49.8336L334.496 50.757L334.879 51.6804L344.966 47.4884L344.583 46.565ZM334.496 50.757L335.423 50.3822C333.695 46.1093 331.081 42.8324 327.563 40.6105L327.029 41.456L326.495 42.3015C329.614 44.2716 331.977 47.1954 333.568 51.1318L334.496 50.757ZM327.029 41.456L327.588 40.6274C324.163 38.3128 320.029 37.181 315.239 37.181V38.181V39.181C319.706 39.181 323.432 40.2325 326.469 42.2846L327.029 41.456ZM315.239 38.181V37.181C311.111 37.181 307.257 38.3308 303.695 40.6141L304.235 41.456L304.774 42.2979C308.024 40.2146 311.506 39.181 315.239 39.181V38.181ZM304.235 41.456L303.71 40.6043C300.142 42.8001 297.275 45.9044 295.104 49.8851L295.982 50.364L296.859 50.8429C298.88 47.1383 301.515 44.3039 304.759 42.3077L304.235 41.456ZM295.982 50.364L295.095 49.9007C293.002 53.9063 291.969 58.4797 291.969 63.595H292.969H293.969C293.969 58.7543 294.944 54.5071 296.868 50.8273L295.982 50.364ZM292.969 63.595H291.969C291.969 68.7103 293.002 73.2837 295.095 77.2893L295.982 76.826L296.868 76.3627C294.944 72.6829 293.969 68.4357 293.969 63.595H292.969ZM295.982 76.826L295.104 77.3049C297.273 81.2826 300.136 84.4255 303.695 86.7069L304.235 85.865L304.774 85.0231C301.521 82.9378 298.882 80.0547 296.859 76.3471L295.982 76.826ZM304.235 85.865L303.71 86.7167C307.271 88.9078 311.12 90.009 315.239 90.009V89.009V88.009C311.497 88.009 308.01 87.0142 304.759 85.0133L304.235 85.865ZM315.239 89.009V90.009C320.114 90.009 324.369 88.8786 327.961 86.5759L327.422 85.734L326.882 84.8921C323.662 86.9561 319.796 88.009 315.239 88.009V89.009ZM327.422 85.734L327.961 86.5759C331.552 84.2738 334.212 81.0064 335.944 76.8148L335.02 76.433L334.095 76.0512C332.508 79.8943 330.103 82.8275 326.882 84.8921L327.422 85.734ZM335.02 76.433L334.631 77.3546L344.587 81.5466L344.976 80.625L345.364 79.7034L335.408 75.5114L335.02 76.433ZM344.976 80.625L344.051 80.2435C341.858 85.5583 338.32 89.8582 333.414 93.1572L333.972 93.987L334.53 94.8168C339.754 91.3038 343.552 86.6957 345.9 81.0065L344.976 80.625ZM333.972 93.987L333.407 93.1617C328.624 96.4339 322.761 98.096 315.763 98.096V99.096V100.096C323.087 100.096 329.363 98.3521 334.536 94.8123L333.972 93.987ZM354.934 30.19V29.19H353.934V30.19H354.934ZM365.545 30.19H366.545V29.19H365.545V30.19ZM365.545 40.932H364.545V41.932H365.545V40.932ZM366.069 40.932V41.932H366.773L367.01 41.2683L366.069 40.932ZM373.667 31.893L374.198 32.7399L374.205 32.7355L374.212 32.731L373.667 31.893ZM393.317 29.535H394.317V28.858L393.688 28.6065L393.317 29.535ZM393.317 41.587L392.869 42.4814L394.317 43.205V41.587H393.317ZM368.427 49.709L367.542 49.2422L367.537 49.2516L368.427 49.709ZM366.069 97V98H367.069V97H366.069ZM354.934 97H353.934V98H354.934V97ZM354.934 30.19V31.19H365.545V30.19V29.19H354.934V30.19ZM365.545 30.19H364.545V40.932H365.545H366.545V30.19H365.545ZM365.545 40.932V41.932H366.069V40.932V39.932H365.545V40.932ZM366.069 40.932L367.01 41.2683C368.235 37.8405 370.605 34.9959 374.198 32.7399L373.667 31.893L373.135 31.0461C369.217 33.5061 366.523 36.6874 365.127 40.5957L366.069 40.932ZM373.667 31.893L374.212 32.731C377.821 30.3813 381.563 29.225 385.457 29.225V28.225V27.225C381.14 27.225 377.023 28.514 373.121 31.055L373.667 31.893ZM385.457 28.225V29.225C388.422 29.225 390.91 29.6492 392.945 30.4635L393.317 29.535L393.688 28.6065C391.357 27.6741 388.604 27.225 385.457 27.225V28.225ZM393.317 29.535H392.317V41.587H393.317H394.317V29.535H393.317ZM393.317 41.587L393.764 40.6926C390.815 39.218 387.515 38.491 383.885 38.491V39.491V40.491C387.241 40.491 390.229 41.1614 392.869 42.4814L393.317 41.587ZM383.885 39.491V38.491C380.451 38.491 377.287 39.4694 374.416 41.4141L374.977 42.242L375.537 43.0699C378.081 41.3466 380.856 40.491 383.885 40.491V39.491ZM374.977 42.242L374.416 41.4141C371.561 43.348 369.271 45.9661 367.542 49.2422L368.427 49.709L369.311 50.1758C370.901 47.1639 372.978 44.804 375.537 43.0699L374.977 42.242ZM368.427 49.709L367.537 49.2516C365.889 52.4558 365.069 55.9321 365.069 59.665H366.069H367.069C367.069 56.2366 367.82 53.0756 369.316 50.1663L368.427 49.709ZM366.069 59.665H365.069V97H366.069H367.069V59.665H366.069ZM366.069 97V96H354.934V97V98H366.069V97ZM354.934 97H355.934V30.19H354.934H353.934V97H354.934ZM403.535 15.518L402.827 16.2251L402.827 16.2251L403.535 15.518ZM403.535 4.383L404.221 5.11001L404.232 5.1002L404.242 5.0901L403.535 4.383ZM414.801 4.383L414.093 5.0901L414.104 5.1002L414.114 5.11001L414.801 4.383ZM414.801 15.518L414.093 14.8109L414.083 14.821L414.074 14.8314L414.801 15.518ZM403.666 30.19V29.19H402.666V30.19H403.666ZM414.67 30.19H415.67V29.19H414.67V30.19ZM414.67 97V98H415.67V97H414.67ZM403.666 97H402.666V98H403.666V97ZM409.168 17.876V16.876C407.255 16.876 405.63 16.1992 404.242 14.8109L403.535 15.518L402.827 16.2251C404.583 17.9808 406.714 18.876 409.168 18.876V17.876ZM403.535 15.518L404.242 14.8109C402.853 13.4226 402.177 11.7977 402.177 9.885H401.177H400.177C400.177 12.3389 401.072 14.4694 402.827 16.2251L403.535 15.518ZM401.177 9.885H402.177C402.177 7.97375 402.851 6.40369 404.221 5.11001L403.535 4.383L402.848 3.65598C401.074 5.33164 400.177 7.42957 400.177 9.885H401.177ZM403.535 4.383L404.242 5.0901C405.63 3.7018 407.255 3.025 409.168 3.025V2.025V1.025C406.714 1.025 404.583 1.92019 402.827 3.67589L403.535 4.383ZM409.168 2.025V3.025C411.08 3.025 412.705 3.7018 414.093 5.0901L414.801 4.383L415.508 3.67589C413.752 1.92019 411.622 1.025 409.168 1.025V2.025ZM414.801 4.383L414.114 5.11001C415.484 6.40369 416.159 7.97375 416.159 9.885H417.159H418.159C418.159 7.42957 417.261 5.33163 415.487 3.65598L414.801 4.383ZM417.159 9.885H416.159C416.159 11.7977 415.482 13.4226 414.093 14.8109L414.801 15.518L415.508 16.2251C417.263 14.4694 418.159 12.3389 418.159 9.885H417.159ZM414.801 15.518L414.074 14.8314C412.788 16.1924 411.179 16.876 409.168 16.876V17.876V18.876C411.698 18.876 413.844 17.9876 415.528 16.2046L414.801 15.518ZM403.666 30.19V31.19H414.67V30.19V29.19H403.666V30.19ZM414.67 30.19H413.67V97H414.67H415.67V30.19H414.67ZM414.67 97V96H403.666V97V98H414.67V97ZM403.666 97H404.666V30.19H403.666H402.666V97H403.666ZM450.902 95.69L450.396 96.5524L450.407 96.5589L450.418 96.565L450.902 95.69ZM441.863 87.175L442.719 86.6572L442.427 86.175H441.863V87.175ZM441.339 87.175V86.175H440.339V87.175H441.339ZM441.339 97V98H442.339V97H441.339ZM430.728 97H429.728V98H430.728V97ZM430.728 3.204V2.204H429.728V3.204H430.728ZM441.863 3.204H442.863V2.204H441.863V3.204ZM441.863 30.845L442.862 30.9012L442.863 30.8731V30.845H441.863ZM441.339 40.146L440.341 40.0897L440.281 41.146H441.339V40.146ZM441.863 40.146V41.146H442.435L442.725 40.654L441.863 40.146ZM450.902 31.631L451.394 32.5016L451.4 32.4981L450.902 31.631ZM480.901 32.679L480.371 33.527L480.371 33.527L480.901 32.679ZM492.429 81.935L493.315 82.3996L493.318 82.3936L492.429 81.935ZM480.901 94.511L480.371 93.663L480.371 93.663L480.901 94.511ZM474.22 85.865L474.744 86.7167L474.744 86.7167L474.22 85.865ZM482.342 76.957L481.46 76.4864L481.456 76.4937L482.342 76.957ZM482.342 50.364L481.452 50.8191L481.458 50.8311L481.464 50.8429L482.342 50.364ZM474.22 41.325L473.696 42.1767L473.696 42.1767L474.22 41.325ZM452.474 41.325L452.998 42.1767L452.998 42.1767L452.474 41.325ZM444.352 76.957L445.239 76.4937L445.239 76.4937L444.352 76.957ZM452.474 85.865L452.998 85.0133L452.998 85.0133L452.474 85.865ZM464.657 99.096V98.096C459.747 98.096 455.331 96.9972 451.386 94.815L450.902 95.69L450.418 96.565C454.683 98.9241 459.437 100.096 464.657 100.096V99.096ZM450.902 95.69L451.409 94.8276C447.506 92.5369 444.626 89.8078 442.719 86.6572L441.863 87.175L441.008 87.6928C443.118 91.1795 446.264 94.1271 450.396 96.5524L450.902 95.69ZM441.863 87.175V86.175H441.339V87.175V88.175H441.863V87.175ZM441.339 87.175H440.339V97H441.339H442.339V87.175H441.339ZM441.339 97V96H430.728V97V98H441.339V97ZM430.728 97H431.728V3.204H430.728H429.728V97H430.728ZM430.728 3.204V4.204H441.863V3.204V2.204H430.728V3.204ZM441.863 3.204H440.863V30.845H441.863H442.863V3.204H441.863ZM441.863 30.845L440.865 30.7888L440.341 40.0897L441.339 40.146L442.338 40.2022L442.862 30.9012L441.863 30.845ZM441.339 40.146V41.146H441.863V40.146V39.146H441.339V40.146ZM441.863 40.146L442.725 40.654C444.63 37.4228 447.504 34.7004 451.394 32.5016L450.902 31.631L450.41 30.7604C446.266 33.1029 443.114 36.0572 441.002 39.638L441.863 40.146ZM450.902 31.631L451.4 32.4981C455.343 30.2333 459.754 29.094 464.657 29.094V28.094V27.094C459.43 27.094 454.671 28.3127 450.404 30.7639L450.902 31.631ZM464.657 28.094V29.094C470.414 29.094 475.645 30.5727 480.371 33.527L480.901 32.679L481.431 31.831C476.377 28.6719 470.778 27.094 464.657 27.094V28.094ZM480.901 32.679L480.371 33.527C485.101 36.483 488.824 40.5802 491.541 45.8446L492.429 45.386L493.318 44.9274C490.446 39.3624 486.483 34.9883 481.431 31.831L480.901 32.679ZM492.429 45.386L491.541 45.8446C494.255 51.1033 495.621 57.0131 495.621 63.595H496.621H497.621C497.621 56.7276 496.193 50.498 493.318 44.9274L492.429 45.386ZM496.621 63.595H495.621C495.621 70.2665 494.254 76.2195 491.541 81.4764L492.429 81.935L493.318 82.3936C496.194 76.8211 497.621 70.5475 497.621 63.595H496.621ZM492.429 81.935L491.544 81.4705C488.828 86.6478 485.105 90.7045 480.371 93.663L480.901 94.511L481.431 95.359C486.479 92.2042 490.442 87.8769 493.315 82.3995L492.429 81.935ZM480.901 94.511L480.371 93.663C475.645 96.6173 470.414 98.096 464.657 98.096V99.096V100.096C470.778 100.096 476.377 98.5181 481.431 95.359L480.901 94.511ZM463.347 89.009V90.009C467.383 90.009 471.188 88.9055 474.744 86.7167L474.22 85.865L473.696 85.0133C470.441 87.0165 466.997 88.009 463.347 88.009V89.009ZM474.22 85.865L474.744 86.7167C478.317 84.5183 481.144 81.4087 483.229 77.4203L482.342 76.957L481.456 76.4937C479.524 80.1906 476.936 83.0197 473.696 85.0133L474.22 85.865ZM482.342 76.957L483.225 77.4276C485.407 73.3364 486.486 68.7175 486.486 63.595H485.486H484.486C484.486 68.4285 483.47 72.7176 481.46 76.4864L482.342 76.957ZM485.486 63.595H486.486C486.486 58.4729 485.407 53.8938 483.22 49.8851L482.342 50.364L481.464 50.8429C483.47 54.5195 484.486 58.7611 484.486 63.595H485.486ZM482.342 50.364L483.233 49.9089C481.15 45.8331 478.322 42.6752 474.744 40.4733L474.22 41.325L473.696 42.1767C476.93 44.1668 479.518 47.0349 481.452 50.8191L482.342 50.364ZM474.22 41.325L474.744 40.4733C471.188 38.2845 467.383 37.181 463.347 37.181V38.181V39.181C466.997 39.181 470.441 40.1735 473.696 42.1767L474.22 41.325ZM463.347 38.181V37.181C459.312 37.181 455.507 38.2845 451.95 40.4733L452.474 41.325L452.998 42.1767C456.254 40.1735 459.697 39.181 463.347 39.181V38.181ZM452.474 41.325L451.95 40.4733C448.378 42.6717 445.551 45.7812 443.466 49.7697L444.352 50.233L445.239 50.6963C447.171 46.9994 449.759 44.1703 452.998 42.1767L452.474 41.325ZM444.352 50.233L443.466 49.7697C441.371 53.7777 440.339 58.3955 440.339 63.595H441.339H442.339C442.339 58.6638 443.316 54.3737 445.239 50.6963L444.352 50.233ZM441.339 63.595H440.339C440.339 68.7945 441.371 73.4123 443.466 77.4203L444.352 76.957L445.239 76.4937C443.316 72.8163 442.339 68.5262 442.339 63.595H441.339ZM444.352 76.957L443.466 77.4203C445.551 81.4087 448.378 84.5183 451.95 86.7167L452.474 85.865L452.998 85.0133C449.759 83.0197 447.171 80.1906 445.239 76.4937L444.352 76.957ZM452.474 85.865L451.95 86.7167C455.507 88.9055 459.312 90.009 463.347 90.009V89.009V88.009C459.697 88.009 456.254 87.0165 452.998 85.0133L452.474 85.865ZM520.668 94.511L521.185 93.6548L521.185 93.6548L520.668 94.511ZM508.747 81.935L507.858 82.3936L507.863 82.4023L507.867 82.4108L508.747 81.935ZM508.485 45.91L507.591 45.4627L507.585 45.4744L508.485 45.91ZM519.882 32.941L520.433 33.7753L520.433 33.7753L519.882 32.941ZM553.942 32.548L553.416 33.3987L553.428 33.4055L553.942 32.548ZM564.946 44.6L564.048 45.0412L564.055 45.0532L564.946 44.6ZM568.483 65.691V66.691H569.247L569.448 65.9541L568.483 65.691ZM515.69 65.691V64.691H514.637L514.691 65.7427L515.69 65.691ZM519.358 78.529L518.51 79.059L518.51 79.059L519.358 78.529ZM527.611 86.389L527.145 87.274L527.155 87.2788L527.611 86.389ZM558.003 76.957L558.44 76.0576L557.602 75.6501L557.137 76.4578L558.003 76.957ZM567.435 81.542L568.318 82.0118L568.805 81.0961L567.872 80.6426L567.435 81.542ZM555.645 94.38L555.111 93.5345L555.104 93.5388L555.645 94.38ZM557.086 56.521V57.521H558.15L558.084 56.4586L557.086 56.521ZM548.047 41.063L547.504 41.9026L547.515 41.9096L548.047 41.063ZM523.419 43.29L524.099 44.0234L524.099 44.0228L523.419 43.29ZM516.345 56.521L515.366 56.3189L515.118 57.521H516.345V56.521ZM537.829 99.096V98.096C531.621 98.096 526.082 96.6101 521.185 93.6548L520.668 94.511L520.151 95.3672C525.385 98.5252 531.286 100.096 537.829 100.096V99.096ZM520.668 94.511L521.185 93.6548C516.276 90.6926 512.426 86.6335 509.627 81.4592L508.747 81.935L507.867 82.4108C510.832 87.8911 514.93 92.2161 520.151 95.3672L520.668 94.511ZM508.747 81.935L509.636 81.4764C506.922 76.2177 505.555 70.3079 505.555 63.726H504.555H503.555C503.555 70.5934 504.983 76.8229 507.858 82.3936L508.747 81.935ZM504.555 63.726H505.555C505.555 57.4027 506.836 51.6145 509.385 46.3456L508.485 45.91L507.585 45.4744C504.894 51.0348 503.555 57.1239 503.555 63.726H504.555ZM508.485 45.91L509.379 46.3572C512.011 41.0941 515.694 36.9067 520.433 33.7753L519.882 32.941L519.331 32.1067C514.289 35.438 510.374 39.8966 507.591 45.4628L508.485 45.91ZM519.882 32.941L520.433 33.7753C525.144 30.663 530.624 29.094 536.912 29.094V28.094V27.094C530.274 27.094 524.402 28.7563 519.331 32.1067L519.882 32.941ZM536.912 28.094V29.094C543.307 29.094 548.795 30.5417 553.416 33.3986L553.942 32.548L554.468 31.6974C549.483 28.6156 543.618 27.094 536.912 27.094V28.094ZM553.942 32.548L553.428 33.4055C558.061 36.1859 561.599 40.0566 564.049 45.0411L564.946 44.6L565.843 44.1589C563.228 38.838 559.429 34.6741 554.457 31.6905L553.942 32.548ZM564.946 44.6L564.055 45.0532C566.593 50.046 567.876 55.7817 567.876 62.285H568.876H569.876C569.876 55.5136 568.539 49.4593 565.837 44.1468L564.946 44.6ZM568.876 62.285H567.876C567.876 63.5323 567.751 64.575 567.518 65.4279L568.483 65.691L569.448 65.9541C569.739 64.8856 569.876 63.6577 569.876 62.285H568.876ZM568.483 65.691V64.691H515.69V65.691V66.691H568.483V65.691ZM515.69 65.691L514.691 65.7427C514.96 70.9388 516.218 75.3919 518.51 79.059L519.358 78.529L520.206 77.999C518.131 74.6794 516.944 70.5738 516.689 65.6393L515.69 65.691ZM519.358 78.529L518.51 79.059C520.778 82.6872 523.655 85.4369 527.145 87.2739L527.611 86.389L528.077 85.5041C524.93 83.8478 522.305 81.3575 520.206 77.999L519.358 78.529ZM527.611 86.389L527.155 87.2788C530.696 89.0946 534.388 90.009 538.222 90.009V89.009V88.009C534.72 88.009 531.338 87.1767 528.067 85.4992L527.611 86.389ZM538.222 89.009V90.009C547.173 90.009 554.08 85.7692 558.87 77.4562L558.003 76.957L557.137 76.4578C552.668 84.2141 546.388 88.009 538.222 88.009V89.009ZM558.003 76.957L557.566 77.8564L566.998 82.4414L567.435 81.542L567.872 80.6426L558.44 76.0576L558.003 76.957ZM567.435 81.542L566.552 81.0721C563.748 86.3401 559.936 90.4873 555.111 93.5345L555.645 94.38L556.179 95.2255C561.31 91.9847 565.358 87.5732 568.318 82.0118L567.435 81.542ZM555.645 94.38L555.104 93.5388C550.405 96.5598 544.663 98.096 537.829 98.096V99.096V100.096C544.968 100.096 551.104 98.4882 556.186 95.2212L555.645 94.38ZM557.086 56.521L558.084 56.4586C557.9 53.5153 557.073 50.5906 555.622 47.6898L554.728 48.137L553.834 48.5842C555.178 51.2728 555.923 53.9373 556.088 56.5834L557.086 56.521ZM554.728 48.137L555.622 47.6898C554.131 44.7072 551.766 42.2197 548.579 40.2164L548.047 41.063L547.515 41.9096C550.441 43.7489 552.53 45.9774 553.834 48.5842L554.728 48.137ZM548.047 41.063L548.59 40.2234C545.419 38.1714 541.461 37.181 536.781 37.181V38.181V39.181C541.184 39.181 544.736 40.1119 547.504 41.9026L548.047 41.063ZM536.781 38.181V37.181C531.302 37.181 526.601 38.9708 522.739 42.5572L523.419 43.29L524.099 44.0228C527.573 40.7972 531.78 39.181 536.781 39.181V38.181ZM523.419 43.29L522.739 42.5566C518.984 46.0374 516.537 50.6448 515.366 56.3189L516.345 56.521L517.324 56.7231C518.424 51.3932 520.693 47.1799 524.099 44.0234L523.419 43.29ZM516.345 56.521V57.521H557.086V56.521V55.521H516.345V56.521Z" fill="url(#paint0_linear_113_6009)" mask="url(#path-1-outside-1_113_6009)"/>
<defs>
<linearGradient id="paint0_linear_113_6009" x1="482.396" y1="74" x2="481.921" y2="-29.0075" gradientUnits="userSpaceOnUse">
<stop/>
<stop offset="0.9999" stop-color="#A098FF"/>
</linearGradient>
</defs>
</svg>
