<svg width="462" height="127" viewBox="0 0 462 127" fill="none" xmlns="http://www.w3.org/2000/svg">
<g clip-path="url(#clip0_343_296)">
<mask id="mask0_343_296" style="mask-type:luminance" maskUnits="userSpaceOnUse" x="0" y="0" width="462" height="127">
<path d="M462 0H0V127H462V0Z" fill="white"/>
<path d="M1.30029 2.20402H32.8713C38.1113 2.20402 42.9583 3.38302 47.4123 5.74102C51.8663 8.09901 55.4033 11.4177 58.0233 15.697C60.7306 19.889 62.0843 24.6487 62.0843 29.976C62.0843 35.3033 60.7306 40.1067 58.0233 44.386C55.4033 48.578 51.8663 51.853 47.4123 54.211C42.9583 56.569 38.1113 57.748 32.8713 57.748H12.3043V96H1.30029V2.20402ZM33.1333 47.137C36.6266 47.137 39.6833 46.3073 42.3033 44.648C45.0106 42.9887 47.1066 40.849 48.5913 38.229C50.0759 35.609 50.8183 32.858 50.8183 29.976C50.8183 27.094 50.0759 24.343 48.5913 21.723C47.1066 19.103 45.0106 16.9633 42.3033 15.304C39.6833 13.6447 36.6266 12.815 33.1333 12.815H12.3043V47.137H33.1333ZM73.1108 29.19H83.7218V39.932H84.2458C85.5558 36.264 88.0884 33.251 91.8438 30.893C95.5991 28.4477 99.5291 27.225 103.634 27.225C106.691 27.225 109.311 27.6617 111.494 28.535V40.587C108.699 39.1897 105.555 38.491 102.062 38.491C98.8304 38.491 95.8611 39.408 93.1538 41.242C90.4464 43.076 88.2631 45.565 86.6038 48.709C85.0318 51.7657 84.2458 55.0843 84.2458 58.665V96H73.1108V29.19ZM147.614 98.096C141.064 98.096 135.169 96.524 129.929 93.38C124.689 90.236 120.584 85.9567 117.615 80.542C114.733 75.1273 113.292 69.145 113.292 62.595C113.292 56.045 114.733 50.0627 117.615 44.648C120.584 39.2333 124.689 34.954 129.929 31.81C135.169 28.666 141.064 27.094 147.614 27.094C154.164 27.094 160.059 28.666 165.299 31.81C170.539 34.954 174.6 39.2333 177.482 44.648C180.451 50.0627 181.936 56.045 181.936 62.595C181.936 69.145 180.451 75.1273 177.482 80.542C174.6 85.9567 170.539 90.236 165.299 93.38C160.059 96.524 154.164 98.096 147.614 98.096ZM147.614 88.009C151.719 88.009 155.518 87.0047 159.011 84.996C162.592 82.9 165.43 79.9307 167.526 76.088C169.709 72.2453 170.801 67.7477 170.801 62.595C170.801 57.4423 169.709 52.9447 167.526 49.102C165.43 45.2593 162.592 42.3337 159.011 40.325C155.518 38.229 151.719 37.181 147.614 37.181C143.509 37.181 139.667 38.229 136.086 40.325C132.505 42.3337 129.623 45.2593 127.44 49.102C125.344 52.9447 124.296 57.4423 124.296 62.595C124.296 67.7477 125.344 72.2453 127.44 76.088C129.623 79.9307 132.505 82.9 136.086 84.996C139.667 87.0047 143.509 88.009 147.614 88.009ZM199.336 16.876C197.152 16.876 195.275 16.09 193.703 14.518C192.131 12.946 191.345 11.0683 191.345 8.88502C191.345 6.70168 192.131 4.86768 193.703 3.38302C195.275 1.81102 197.152 1.02502 199.336 1.02502C201.519 1.02502 203.397 1.81102 204.969 3.38302C206.541 4.86768 207.327 6.70168 207.327 8.88502C207.327 11.0683 206.541 12.946 204.969 14.518C203.484 16.09 201.606 16.876 199.336 16.876ZM186.498 125.606C184.402 125.606 182.437 125.3 180.603 124.689V114.078C181.301 114.515 182.175 114.864 183.223 115.126C184.271 115.388 185.231 115.519 186.105 115.519C188.812 115.519 190.777 114.646 192 112.899C193.222 111.24 193.834 108.751 193.834 105.432V29.19H204.838V105.432C204.838 112.157 203.222 117.178 199.991 120.497C196.759 123.903 192.262 125.606 186.498 125.606ZM249.994 98.096C243.618 98.096 237.898 96.5677 232.833 93.511C227.767 90.4543 223.794 86.2623 220.912 80.935C218.117 75.5203 216.72 69.4507 216.72 62.726C216.72 56.2633 218.03 50.3247 220.65 44.91C223.357 39.4953 227.156 35.1723 232.047 31.941C236.937 28.7097 242.614 27.094 249.077 27.094C255.627 27.094 261.303 28.5787 266.107 31.548C270.91 34.43 274.578 38.4473 277.111 43.6C279.731 48.7527 281.041 54.6477 281.041 61.285C281.041 62.595 280.91 63.7303 280.648 64.691H227.855C228.117 69.7563 229.339 74.0357 231.523 77.529C233.706 81.0223 236.457 83.6423 239.776 85.389C243.182 87.1357 246.719 88.009 250.387 88.009C258.945 88.009 265.539 83.9917 270.168 75.957L279.6 80.542C276.718 85.9567 272.788 90.236 267.81 93.38C262.919 96.524 256.98 98.096 249.994 98.096ZM269.251 55.521C269.076 52.7263 268.29 49.9317 266.893 47.137C265.495 44.3423 263.268 41.9843 260.212 40.063C257.242 38.1417 253.487 37.181 248.946 37.181C243.706 37.181 239.252 38.884 235.584 42.29C232.003 45.6087 229.645 50.019 228.51 55.521H269.251ZM323.532 98.096C317.069 98.096 311.261 96.5677 306.109 93.511C300.956 90.367 296.939 86.1313 294.057 80.804C291.175 75.3893 289.734 69.3197 289.734 62.595C289.734 55.8703 291.175 49.8007 294.057 44.386C296.939 38.9713 300.956 34.7357 306.109 31.679C311.261 28.6223 317.069 27.094 323.532 27.094C330.78 27.094 336.85 28.797 341.741 32.203C346.719 35.5217 350.256 39.9757 352.352 45.565L342.265 49.757C340.605 45.6523 338.116 42.552 334.798 40.456C331.566 38.2727 327.636 37.181 323.008 37.181C319.078 37.181 315.41 38.2727 312.004 40.456C308.598 42.552 305.847 45.5213 303.751 49.364C301.742 53.2067 300.738 57.617 300.738 62.595C300.738 67.573 301.742 71.9833 303.751 75.826C305.847 79.6687 308.598 82.6817 312.004 84.865C315.41 86.961 319.078 88.009 323.008 88.009C327.724 88.009 331.785 86.9173 335.191 84.734C338.597 82.5507 341.129 79.4503 342.789 75.433L352.745 79.625C350.474 85.127 346.806 89.581 341.741 92.987C336.763 96.393 330.693 98.096 323.532 98.096ZM388.379 97.048C385.671 97.048 383.139 96.6113 380.781 95.738C378.51 94.8647 376.589 93.6857 375.017 92.201C373.27 90.5417 371.96 88.6203 371.087 86.437C370.213 84.2537 369.777 81.59 369.777 78.446V39.277H358.118V29.19H369.777V10.326H380.912V29.19H397.156V39.277H380.912V75.695C380.912 79.363 381.61 82.0703 383.008 83.817C384.667 85.7383 387.069 86.699 390.213 86.699C392.745 86.699 395.191 85.9567 397.549 84.472V95.345C396.239 95.9563 394.885 96.393 393.488 96.655C392.178 96.917 390.475 97.048 388.379 97.048ZM433.833 98.096C426.671 98.096 420.689 96.4367 415.886 93.118C411.082 89.712 407.676 85.389 405.668 80.149L415.624 75.695C417.283 79.7123 419.728 82.8127 422.96 84.996C426.278 87.1793 429.903 88.271 433.833 88.271C438.025 88.271 441.605 87.4413 444.575 85.782C447.544 84.0353 449.029 81.59 449.029 78.446C449.029 75.6513 447.85 73.4243 445.492 71.765C443.134 70.0183 439.422 68.5337 434.357 67.311L426.235 65.215C420.907 63.905 416.541 61.678 413.135 58.534C409.729 55.39 408.026 51.329 408.026 46.351C408.026 42.5083 409.161 39.146 411.432 36.264C413.79 33.2947 416.89 31.024 420.733 29.452C424.575 27.88 428.724 27.094 433.178 27.094C439.029 27.094 444.225 28.3603 448.767 30.893C453.395 33.4257 456.67 36.9627 458.592 41.504L448.898 45.958C445.928 40.0193 440.645 37.05 433.047 37.05C429.379 37.05 426.147 37.9233 423.353 39.67C420.645 41.3293 419.292 43.469 419.292 46.089C419.292 48.5343 420.252 50.543 422.174 52.115C424.095 53.5997 426.977 54.8223 430.82 55.783L440.514 58.272C447.064 59.9313 451.998 62.4203 455.317 65.739C458.635 68.9703 460.295 72.944 460.295 77.66C460.295 81.7647 459.116 85.389 456.758 88.533C454.4 91.5897 451.212 93.9477 447.195 95.607C443.177 97.2663 438.723 98.096 433.833 98.096Z" fill="black"/>
</mask>
<g mask="url(#mask0_343_296)">
<path d="M1.30029 2.20403V1.20403H0.300293V2.20403H1.30029ZM58.0233 15.697L57.1704 16.2191L57.1767 16.2294L57.1832 16.2395L58.0233 15.697ZM58.0233 44.386L57.1782 43.8513L57.1753 43.856L58.0233 44.386ZM12.3043 57.748V56.748H11.3043V57.748H12.3043ZM12.3043 96V97H13.3043V96H12.3043ZM1.30029 96H0.300293V97H1.30029V96ZM42.3033 44.648L41.7807 43.7954L41.7744 43.7992L41.7682 43.8032L42.3033 44.648ZM42.3033 15.304L41.7682 16.1488L41.7744 16.1527L41.7807 16.1566L42.3033 15.304ZM12.3043 12.815V11.815H11.3043V12.815H12.3043ZM12.3043 47.137H11.3043V48.137H12.3043V47.137ZM1.30029 2.20403V3.20403H32.8713V2.20403V1.20403H1.30029V2.20403ZM32.8713 2.20403V3.20403C37.9549 3.20403 42.6403 4.34621 46.9444 6.62482L47.4123 5.74103L47.8801 4.85724C43.2762 2.41984 38.2677 1.20403 32.8713 1.20403V2.20403ZM47.4123 5.74103L46.9444 6.62482C51.2407 8.89933 54.6444 12.0934 57.1704 16.2191L58.0233 15.697L58.8761 15.1748C56.1621 10.7419 52.4918 7.29871 47.8801 4.85724L47.4123 5.74103ZM58.0233 15.697L57.1832 16.2395C59.779 20.2588 61.0843 24.8275 61.0843 29.976H62.0843H63.0843C63.0843 24.4698 61.6822 19.5192 58.8633 15.1545L58.0233 15.697ZM62.0843 29.976H61.0843C61.0843 35.1244 59.7789 39.7404 57.1782 43.8513L58.0233 44.386L58.8683 44.9206C61.6823 40.4728 63.0843 35.4823 63.0843 29.976H62.0843ZM58.0233 44.386L57.1753 43.856C54.6505 47.8956 51.2459 51.0499 46.9444 53.3272L47.4123 54.211L47.8801 55.0948C52.4866 52.6561 56.156 49.2604 58.8713 44.916L58.0233 44.386ZM47.4123 54.211L46.9444 53.3272C42.6403 55.6058 37.9549 56.748 32.8713 56.748V57.748V58.748C38.2677 58.748 43.2762 57.5322 47.8801 55.0948L47.4123 54.211ZM32.8713 57.748V56.748H12.3043V57.748V58.748H32.8713V57.748ZM12.3043 57.748H11.3043V96H12.3043H13.3043V57.748H12.3043ZM12.3043 96V95H1.30029V96V97H12.3043V96ZM1.30029 96H2.30029V2.20403H1.30029H0.300293V96H1.30029ZM33.1333 47.137V48.137C36.7914 48.137 40.0386 47.2659 42.8383 45.4928L42.3033 44.648L41.7682 43.8032C39.3279 45.3487 36.4618 46.137 33.1333 46.137V47.137ZM42.3033 44.648L42.8258 45.5006C45.6694 43.7578 47.8885 41.4975 49.4613 38.722L48.5913 38.229L47.7212 37.736C46.3247 40.2005 44.3518 42.2196 41.7807 43.7954L42.3033 44.648ZM48.5913 38.229L49.4613 38.722C51.0272 35.9587 51.8183 33.0387 51.8183 29.976H50.8183H49.8183C49.8183 32.6773 49.1247 35.2593 47.7212 37.736L48.5913 38.229ZM50.8183 29.976H51.8183C51.8183 26.9133 51.0272 23.9933 49.4613 21.23L48.5913 21.723L47.7212 22.216C49.1247 24.6927 49.8183 27.2747 49.8183 29.976H50.8183ZM48.5913 21.723L49.4613 21.23C47.8885 18.4545 45.6694 16.1942 42.8258 14.4514L42.3033 15.304L41.7807 16.1566C44.3518 17.7324 46.3247 19.7515 47.7212 22.216L48.5913 21.723ZM42.3033 15.304L42.8383 14.4592C40.0386 12.686 36.7914 11.815 33.1333 11.815V12.815V13.815C36.4618 13.815 39.3279 14.6033 41.7682 16.1488L42.3033 15.304ZM33.1333 12.815V11.815H12.3043V12.815V13.815H33.1333V12.815ZM12.3043 12.815H11.3043V47.137H12.3043H13.3043V12.815H12.3043ZM12.3043 47.137V48.137H33.1333V47.137V46.137H12.3043V47.137ZM73.1108 29.19V28.19H72.1108V29.19H73.1108ZM83.7218 29.19H84.7218V28.19H83.7218V29.19ZM83.7218 39.932H82.7218V40.932H83.7218V39.932ZM84.2458 39.932V40.932H84.9505L85.1875 40.2683L84.2458 39.932ZM91.8438 30.893L92.3755 31.7399L92.3825 31.7355L92.3895 31.731L91.8438 30.893ZM111.494 28.535H112.494V27.858L111.865 27.6065L111.494 28.535ZM111.494 40.587L111.047 41.4814L112.494 42.205V40.587H111.494ZM86.6038 48.709L85.7193 48.2422L85.7145 48.2516L86.6038 48.709ZM84.2458 96V97H85.2458V96H84.2458ZM73.1108 96H72.1108V97H73.1108V96ZM73.1108 29.19V30.19H83.7218V29.19V28.19H73.1108V29.19ZM83.7218 29.19H82.7218V39.932H83.7218H84.7218V29.19H83.7218ZM83.7218 39.932V40.932H84.2458V39.932V38.932H83.7218V39.932ZM84.2458 39.932L85.1875 40.2683C86.4117 36.8405 88.7826 33.9959 92.3755 31.7399L91.8438 30.893L91.312 30.0461C87.3943 32.5061 84.6998 35.6874 83.304 39.5957L84.2458 39.932ZM91.8438 30.893L92.3895 31.731C95.9979 29.3813 99.7406 28.225 103.634 28.225V27.225V26.225C99.3177 26.225 95.2003 27.514 91.2981 30.055L91.8438 30.893ZM103.634 27.225V28.225C106.6 28.225 109.087 28.6492 111.122 29.4635L111.494 28.535L111.865 27.6065C109.534 26.6741 106.781 26.225 103.634 26.225V27.225ZM111.494 28.535H110.494V40.587H111.494H112.494V28.535H111.494ZM111.494 40.587L111.941 39.6926C108.992 38.218 105.692 37.491 102.062 37.491V38.491V39.491C105.418 39.491 108.407 40.1614 111.047 41.4814L111.494 40.587ZM102.062 38.491V37.491C98.628 37.491 95.4637 38.4694 92.5929 40.4141L93.1538 41.242L93.7146 42.0699C96.2585 40.3466 99.0329 39.491 102.062 39.491V38.491ZM93.1538 41.242L92.5929 40.4141C89.7381 42.348 87.4484 44.9661 85.7193 48.2422L86.6038 48.709L87.4882 49.1758C89.0777 46.1639 91.1548 43.804 93.7146 42.0699L93.1538 41.242ZM86.6038 48.709L85.7145 48.2516C84.0667 51.4558 83.2458 54.9321 83.2458 58.665H84.2458H85.2458C85.2458 55.2366 85.9969 52.0756 87.4931 49.1663L86.6038 48.709ZM84.2458 58.665H83.2458V96H84.2458H85.2458V58.665H84.2458ZM84.2458 96V95H73.1108V96V97H84.2458V96ZM73.1108 96H74.1108V29.19H73.1108H72.1108V96H73.1108ZM117.615 80.542L116.732 81.0119L116.738 81.0228L117.615 80.542ZM117.615 44.648L116.738 44.1671L116.732 44.1781L117.615 44.648ZM177.482 44.648L176.599 45.1179L176.605 45.1288L177.482 44.648ZM177.482 80.542L176.605 80.0611L176.599 80.0721L177.482 80.542ZM159.011 84.996L159.51 85.8629L159.516 85.859L159.011 84.996ZM167.526 76.088L166.657 75.594L166.652 75.6015L166.648 75.6091L167.526 76.088ZM167.526 49.102L166.648 49.5809L166.652 49.5885L166.657 49.596L167.526 49.102ZM159.011 40.325L158.497 41.1825L158.509 41.19L158.522 41.1971L159.011 40.325ZM136.086 40.325L136.575 41.1971L136.583 41.1927L136.591 41.188L136.086 40.325ZM127.44 49.102L126.571 48.608L126.566 48.6155L126.562 48.6231L127.44 49.102ZM127.44 76.088L126.562 76.5669L126.566 76.5745L126.571 76.582L127.44 76.088ZM136.086 84.996L135.581 85.859L135.589 85.8637L135.597 85.8681L136.086 84.996ZM147.614 98.096V97.096C141.232 97.096 135.517 95.5665 130.444 92.5225L129.929 93.38L129.415 94.2375C134.821 97.4815 140.896 99.096 147.614 99.096V98.096ZM129.929 93.38L130.444 92.5225C125.357 89.4707 121.377 85.3221 118.492 80.0612L117.615 80.542L116.738 81.0228C119.792 86.5912 124.021 91.0013 129.415 94.2375L129.929 93.38ZM117.615 80.542L118.498 80.0721C115.698 74.8119 114.292 68.9926 114.292 62.595H113.292H112.292C112.292 69.2974 113.768 75.4429 116.732 81.0119L117.615 80.542ZM113.292 62.595H114.292C114.292 56.1974 115.698 50.3781 118.498 45.1178L117.615 44.648L116.732 44.1781C113.768 49.7472 112.292 55.8926 112.292 62.595H113.292ZM117.615 44.648L118.492 45.1288C121.377 39.8679 125.357 35.7193 130.444 32.6675L129.929 31.81L129.415 30.9525C124.021 34.1887 119.792 38.5987 116.738 44.1671L117.615 44.648ZM129.929 31.81L130.444 32.6675C135.517 29.6235 141.232 28.094 147.614 28.094V27.094V26.094C140.896 26.094 134.821 27.7085 129.415 30.9525L129.929 31.81ZM147.614 27.094V28.094C153.996 28.094 159.711 29.6235 164.785 32.6675L165.299 31.81L165.814 30.9525C160.407 27.7085 154.332 26.094 147.614 26.094V27.094ZM165.299 31.81L164.785 32.6675C169.868 35.7177 173.802 39.8629 176.599 45.1179L177.482 44.648L178.365 44.1781C175.398 38.6039 171.21 34.1903 165.814 30.9525L165.299 31.81ZM177.482 44.648L176.605 45.1288C179.489 50.3872 180.936 56.2025 180.936 62.595H181.936H182.936C182.936 55.8874 181.414 49.7382 178.359 44.1672L177.482 44.648ZM181.936 62.595H180.936C180.936 68.9874 179.489 74.8027 176.605 80.0611L177.482 80.542L178.359 81.0228C181.414 75.4518 182.936 69.3025 182.936 62.595H181.936ZM177.482 80.542L176.599 80.0721C173.802 85.3272 169.868 89.4723 164.785 92.5225L165.299 93.38L165.814 94.2375C171.21 90.9997 175.398 86.5861 178.365 81.0118L177.482 80.542ZM165.299 93.38L164.785 92.5225C159.711 95.5665 153.996 97.096 147.614 97.096V98.096V99.096C154.332 99.096 160.407 97.4815 165.814 94.2375L165.299 93.38ZM147.614 88.009V89.009C151.89 89.009 155.862 87.9605 159.51 85.8629L159.011 84.996L158.513 84.1291C155.174 86.0489 151.547 87.009 147.614 87.009V88.009ZM159.011 84.996L159.516 85.859C163.262 83.6661 166.226 80.5599 168.404 76.5669L167.526 76.088L166.648 75.6091C164.634 79.3014 161.921 82.1339 158.506 84.133L159.011 84.996ZM167.526 76.088L168.396 76.582C170.678 72.5654 171.801 67.8919 171.801 62.595H170.801H169.801C169.801 67.6034 168.741 71.9252 166.657 75.594L167.526 76.088ZM170.801 62.595H171.801C171.801 57.2981 170.678 52.6246 168.396 48.608L167.526 49.102L166.657 49.596C168.741 53.2648 169.801 57.5866 169.801 62.595H170.801ZM167.526 49.102L168.404 48.6231C166.224 44.6269 163.256 41.5596 159.5 39.4529L159.011 40.325L158.522 41.1971C161.928 43.1077 164.636 45.8918 166.648 49.5809L167.526 49.102ZM159.011 40.325L159.526 39.4675C155.876 37.2775 151.899 36.181 147.614 36.181V37.181V38.181C151.539 38.181 155.16 39.1805 158.497 41.1825L159.011 40.325ZM147.614 37.181V36.181C143.33 36.181 139.313 37.2773 135.581 39.462L136.086 40.325L136.591 41.188C140.02 39.1807 143.689 38.181 147.614 38.181V37.181ZM136.086 40.325L135.597 39.4529C131.845 41.5574 128.837 44.6196 126.571 48.608L127.44 49.102L128.31 49.596C130.41 45.8991 133.166 43.1099 136.575 41.1971L136.086 40.325ZM127.44 49.102L126.562 48.6231C124.373 52.6367 123.296 57.3047 123.296 62.595H124.296H125.296C125.296 57.5799 126.315 53.2526 128.318 49.5809L127.44 49.102ZM124.296 62.595H123.296C123.296 67.8853 124.373 72.5533 126.562 76.5669L127.44 76.088L128.318 75.6091C126.315 71.9374 125.296 67.6101 125.296 62.595H124.296ZM127.44 76.088L126.571 76.582C128.835 80.5672 131.839 83.6684 135.581 85.859L136.086 84.996L136.591 84.133C133.172 82.1316 130.412 79.2941 128.31 75.594L127.44 76.088ZM136.086 84.996L135.597 85.8681C139.327 87.9606 143.338 89.009 147.614 89.009V88.009V87.009C143.681 87.009 140.007 86.0487 136.575 84.1239L136.086 84.996ZM193.703 3.38303L194.389 4.11004L194.4 4.10023L194.41 4.09013L193.703 3.38303ZM204.969 3.38303L204.261 4.09013L204.272 4.10023L204.282 4.11004L204.969 3.38303ZM204.969 14.518L204.261 13.8109L204.251 13.821L204.242 13.8314L204.969 14.518ZM180.603 124.689H179.603V125.41L180.286 125.638L180.603 124.689ZM180.603 114.078L181.133 113.23L179.603 112.274V114.078H180.603ZM192 112.899L191.194 112.306L191.187 112.316L191.18 112.326L192 112.899ZM193.834 29.19V28.19H192.834V29.19H193.834ZM204.838 29.19H205.838V28.19H204.838V29.19ZM199.991 120.497L199.274 119.799L199.265 119.809L199.991 120.497ZM199.336 16.876V15.876C197.423 15.876 195.798 15.1992 194.41 13.8109L193.703 14.518L192.995 15.2251C194.751 16.9808 196.882 17.876 199.336 17.876V16.876ZM193.703 14.518L194.41 13.8109C193.021 12.4226 192.345 10.7977 192.345 8.88503H191.345H190.345C190.345 11.3389 191.24 13.4694 192.995 15.2251L193.703 14.518ZM191.345 8.88503H192.345C192.345 6.97378 193.019 5.40372 194.389 4.11004L193.703 3.38303L193.016 2.65601C191.242 4.33167 190.345 6.4296 190.345 8.88503H191.345ZM193.703 3.38303L194.41 4.09013C195.798 2.70183 197.423 2.02503 199.336 2.02503V1.02503V0.0250244C196.882 0.0250244 194.751 0.920217 192.995 2.67592L193.703 3.38303ZM199.336 1.02503V2.02503C201.248 2.02503 202.873 2.70183 204.261 4.09013L204.969 3.38303L205.676 2.67592C203.92 0.920217 201.789 0.0250244 199.336 0.0250244V1.02503ZM204.969 3.38303L204.282 4.11004C205.652 5.40372 206.327 6.97378 206.327 8.88503H207.327H208.327C208.327 6.4296 207.429 4.33166 205.655 2.65601L204.969 3.38303ZM207.327 8.88503H206.327C206.327 10.7977 205.65 12.4226 204.261 13.8109L204.969 14.518L205.676 15.2251C207.431 13.4694 208.327 11.3389 208.327 8.88503H207.327ZM204.969 14.518L204.242 13.8314C202.956 15.1924 201.347 15.876 199.336 15.876V16.876V17.876C201.866 17.876 204.012 16.9876 205.696 15.2046L204.969 14.518ZM186.498 125.606V124.606C184.5 124.606 182.643 124.315 180.919 123.74L180.603 124.689L180.286 125.638C182.231 126.286 184.303 126.606 186.498 126.606V125.606ZM180.603 124.689H181.603V114.078H180.603H179.603V124.689H180.603ZM180.603 114.078L180.073 114.926C180.883 115.432 181.86 115.816 182.98 116.096L183.223 115.126L183.465 114.156C182.489 113.912 181.72 113.597 181.133 113.23L180.603 114.078ZM183.223 115.126L182.98 116.096C184.089 116.374 185.133 116.519 186.105 116.519V115.519V114.519C185.33 114.519 184.452 114.403 183.465 114.156L183.223 115.126ZM186.105 115.519V116.519C189.04 116.519 191.359 115.558 192.819 113.472L192 112.899L191.18 112.326C190.195 113.733 188.584 114.519 186.105 114.519V115.519ZM192 112.899L192.805 113.492C194.21 111.585 194.834 108.844 194.834 105.432H193.834H192.834C192.834 108.657 192.234 110.895 191.194 112.306L192 112.899ZM193.834 105.432H194.834V29.19H193.834H192.834V105.432H193.834ZM193.834 29.19V30.19H204.838V29.19V28.19H193.834V29.19ZM204.838 29.19H203.838V105.432H204.838H205.838V29.19H204.838ZM204.838 105.432H203.838C203.838 112.013 202.256 116.737 199.274 119.799L199.991 120.497L200.707 121.195C204.188 117.619 205.838 112.3 205.838 105.432H204.838ZM199.991 120.497L199.265 119.809C196.264 122.972 192.054 124.606 186.498 124.606V125.606V126.606C192.469 126.606 197.254 124.834 200.716 121.185L199.991 120.497ZM220.912 80.935L220.023 81.3936L220.027 81.4023L220.032 81.4108L220.912 80.935ZM220.65 44.91L219.755 44.4627L219.749 44.4744L220.65 44.91ZM266.107 31.548L265.581 32.3987L265.592 32.4055L266.107 31.548ZM277.111 43.6L276.213 44.0412L276.219 44.0532L277.111 43.6ZM280.648 64.691V65.691H281.411L281.612 64.9541L280.648 64.691ZM227.855 64.691V63.691H226.802L226.856 64.7427L227.855 64.691ZM239.776 85.389L239.31 86.274L239.319 86.2788L239.776 85.389ZM270.168 75.957L270.605 75.0576L269.766 74.6501L269.301 75.4578L270.168 75.957ZM279.6 80.542L280.482 81.0118L280.97 80.0961L280.037 79.6426L279.6 80.542ZM267.81 93.38L267.276 92.5345L267.269 92.5388L267.81 93.38ZM269.251 55.521V56.521H270.315L270.249 55.4586L269.251 55.521ZM260.212 40.063L259.668 40.9026L259.679 40.9096L260.212 40.063ZM235.584 42.29L236.263 43.0234L236.264 43.0228L235.584 42.29ZM228.51 55.521L227.53 55.3189L227.282 56.521H228.51V55.521ZM249.994 98.096V97.096C243.786 97.096 238.247 95.6101 233.349 92.6548L232.833 93.511L232.316 94.3672C237.549 97.5252 243.451 99.096 249.994 99.096V98.096ZM232.833 93.511L233.349 92.6548C228.44 89.6926 224.59 85.6335 221.791 80.4592L220.912 80.935L220.032 81.4108C222.997 86.8911 227.094 91.2161 232.316 94.3672L232.833 93.511ZM220.912 80.935L221.8 80.4764C219.086 75.2177 217.72 69.3079 217.72 62.726H216.72H215.72C215.72 69.5934 217.148 75.8229 220.023 81.3936L220.912 80.935ZM216.72 62.726H217.72C217.72 56.4027 219 50.6145 221.55 45.3456L220.65 44.91L219.749 44.4744C217.059 50.0348 215.72 56.1239 215.72 62.726H216.72ZM220.65 44.91L221.544 45.3572C224.176 40.0941 227.858 35.9067 232.598 32.7753L232.047 31.941L231.495 31.1067C226.453 34.438 222.538 38.8965 219.755 44.4627L220.65 44.91ZM232.047 31.941L232.598 32.7753C237.308 29.663 242.789 28.094 249.077 28.094V27.094V26.094C242.439 26.094 236.566 27.7563 231.495 31.1067L232.047 31.941ZM249.077 27.094V28.094C255.471 28.094 260.959 29.5418 265.581 32.3987L266.107 31.548L266.632 30.6974C261.647 27.6156 255.782 26.094 249.077 26.094V27.094ZM266.107 31.548L265.592 32.4055C270.226 35.1859 273.763 39.0567 276.213 44.0412L277.111 43.6L278.008 43.1589C275.393 37.838 271.594 33.6741 266.621 30.6905L266.107 31.548ZM277.111 43.6L276.219 44.0532C278.758 49.046 280.041 54.7817 280.041 61.285H281.041H282.041C282.041 54.5136 280.703 48.4593 278.002 43.1468L277.111 43.6ZM281.041 61.285H280.041C280.041 62.5323 279.915 63.575 279.683 64.4279L280.648 64.691L281.612 64.9541C281.904 63.8856 282.041 62.6577 282.041 61.285H281.041ZM280.648 64.691V63.691H227.855V64.691V65.691H280.648V64.691ZM227.855 64.691L226.856 64.7427C227.125 69.9388 228.383 74.3919 230.675 78.059L231.523 77.529L232.371 76.999C230.296 73.6794 229.108 69.5738 228.853 64.6393L227.855 64.691ZM231.523 77.529L230.675 78.059C232.942 81.6872 235.819 84.437 239.31 86.274L239.776 85.389L240.241 84.5041C237.094 82.8478 234.47 80.3575 232.371 76.999L231.523 77.529ZM239.776 85.389L239.319 86.2788C242.86 88.0946 246.553 89.009 250.387 89.009V88.009V87.009C246.884 87.009 243.503 86.1767 240.232 84.4992L239.776 85.389ZM250.387 88.009V89.009C259.338 89.009 266.245 84.7692 271.034 76.4562L270.168 75.957L269.301 75.4578C264.833 83.2141 258.553 87.009 250.387 87.009V88.009ZM270.168 75.957L269.73 76.8564L279.162 81.4414L279.6 80.542L280.037 79.6426L270.605 75.0576L270.168 75.957ZM279.6 80.542L278.717 80.0721C275.913 85.3401 272.1 89.4873 267.276 92.5345L267.81 93.38L268.344 94.2255C273.475 90.9847 277.522 86.5732 280.482 81.0118L279.6 80.542ZM267.81 93.38L267.269 92.5388C262.569 95.5598 256.828 97.096 249.994 97.096V98.096V99.096C257.133 99.096 263.268 97.4882 268.35 94.2212L267.81 93.38ZM269.251 55.521L270.249 55.4586C270.065 52.5153 269.237 49.5906 267.787 46.6898L266.893 47.137L265.998 47.5842C267.342 50.2728 268.087 52.9373 268.253 55.5834L269.251 55.521ZM266.893 47.137L267.787 46.6898C266.296 43.7072 263.931 41.2197 260.744 39.2164L260.212 40.063L259.679 40.9096C262.606 42.7489 264.695 44.9774 265.998 47.5842L266.893 47.137ZM260.212 40.063L260.755 39.2234C257.584 37.1714 253.626 36.181 248.946 36.181V37.181V38.181C253.348 38.181 256.901 39.1119 259.668 40.9026L260.212 40.063ZM248.946 37.181V36.181C243.466 36.181 238.765 37.9708 234.903 41.5572L235.584 42.29L236.264 43.0228C239.738 39.7972 243.945 38.181 248.946 38.181V37.181ZM235.584 42.29L234.904 41.5566C231.148 45.0374 228.701 49.6448 227.53 55.3189L228.51 55.521L229.489 55.7231C230.589 50.3932 232.858 46.1799 236.263 43.0234L235.584 42.29ZM228.51 55.521V56.521H269.251V55.521V54.521H228.51V55.521ZM306.109 93.511L305.588 94.3647L305.599 94.3711L306.109 93.511ZM294.057 80.804L293.174 81.2739L293.177 81.2798L294.057 80.804ZM341.741 32.203L341.169 33.0236L341.178 33.0294L341.186 33.035L341.741 32.203ZM352.352 45.565L352.735 46.4884L353.627 46.1179L353.288 45.2139L352.352 45.565ZM342.265 49.757L341.338 50.1318L341.716 51.0679L342.648 50.6804L342.265 49.757ZM334.798 40.456L334.238 41.2846L334.251 41.2932L334.264 41.3015L334.798 40.456ZM312.004 40.456L312.528 41.3077L312.536 41.3028L312.543 41.2979L312.004 40.456ZM303.751 49.364L302.873 48.8851L302.869 48.8929L302.864 48.9007L303.751 49.364ZM303.751 75.826L302.864 76.2893L302.869 76.2971L302.873 76.3049L303.751 75.826ZM312.004 84.865L311.464 85.7069L311.472 85.7118L311.48 85.7167L312.004 84.865ZM342.789 75.433L343.177 74.5114L342.249 74.1207L341.864 75.0512L342.789 75.433ZM352.745 79.625L353.669 80.0065L354.048 79.0887L353.133 78.7034L352.745 79.625ZM341.741 92.987L341.183 92.1571L341.176 92.1617L341.741 92.987ZM323.532 98.096V97.096C317.234 97.096 311.605 95.6088 306.619 92.6509L306.109 93.511L305.599 94.3711C310.918 97.5265 316.904 99.096 323.532 99.096V98.096ZM306.109 93.511L306.63 92.6574C301.628 89.6057 297.734 85.5007 294.936 80.3282L294.057 80.804L293.177 81.2798C296.143 86.762 300.284 91.1284 305.588 94.3647L306.109 93.511ZM294.057 80.804L294.939 80.3342C292.142 75.0777 290.734 69.1719 290.734 62.595H289.734H288.734C288.734 69.4674 290.208 75.701 293.174 81.2739L294.057 80.804ZM289.734 62.595H290.734C290.734 56.0181 292.142 50.1123 294.939 44.8558L294.057 44.386L293.174 43.9161C290.208 49.489 288.734 55.7226 288.734 62.595H289.734ZM294.057 44.386L294.939 44.8558C297.738 39.5989 301.628 35.4999 306.619 32.5391L306.109 31.679L305.599 30.8189C300.284 33.9714 296.14 38.3438 293.174 43.9161L294.057 44.386ZM306.109 31.679L306.619 32.5391C311.605 29.5812 317.234 28.094 323.532 28.094V27.094V26.094C316.904 26.094 310.918 27.6635 305.599 30.8189L306.109 31.679ZM323.532 27.094V28.094C330.621 28.094 336.48 29.7576 341.169 33.0236L341.741 32.203L342.312 31.3824C337.22 27.8363 330.94 26.094 323.532 26.094V27.094ZM341.741 32.203L341.186 33.035C345.99 36.2377 349.393 40.5236 351.415 45.9161L352.352 45.565L353.288 45.2139C351.118 39.4277 347.447 34.8057 342.295 31.3709L341.741 32.203ZM352.352 45.565L351.968 44.6416L341.881 48.8336L342.265 49.757L342.648 50.6804L352.735 46.4884L352.352 45.565ZM342.265 49.757L343.192 49.3822C341.464 45.1093 338.85 41.8324 335.332 39.6105L334.798 40.456L334.264 41.3015C337.383 43.2716 339.746 46.1954 341.338 50.1318L342.265 49.757ZM334.798 40.456L335.358 39.6274C331.932 37.3128 327.798 36.181 323.008 36.181V37.181V38.181C327.475 38.181 331.201 39.2325 334.238 41.2846L334.798 40.456ZM323.008 37.181V36.181C318.881 36.181 315.026 37.3308 311.464 39.6141L312.004 40.456L312.543 41.2979C315.793 39.2146 319.275 38.181 323.008 38.181V37.181ZM312.004 40.456L311.48 39.6043C307.911 41.8001 305.044 44.9044 302.873 48.8851L303.751 49.364L304.629 49.8429C306.649 46.1383 309.284 43.3039 312.528 41.3077L312.004 40.456ZM303.751 49.364L302.864 48.9007C300.771 52.9063 299.738 57.4797 299.738 62.595H300.738H301.738C301.738 57.7543 302.713 53.5071 304.637 49.8273L303.751 49.364ZM300.738 62.595H299.738C299.738 67.7103 300.771 72.2837 302.864 76.2893L303.751 75.826L304.637 75.3627C302.713 71.6829 301.738 67.4357 301.738 62.595H300.738ZM303.751 75.826L302.873 76.3049C305.042 80.2826 307.905 83.4255 311.464 85.7069L312.004 84.865L312.543 84.0231C309.29 81.9378 306.651 79.0547 304.629 75.3471L303.751 75.826ZM312.004 84.865L311.48 85.7167C315.04 87.9078 318.889 89.009 323.008 89.009V88.009V87.009C319.266 87.009 315.779 86.0142 312.528 84.0133L312.004 84.865ZM323.008 88.009V89.009C327.883 89.009 332.138 87.8786 335.73 85.5759L335.191 84.734L334.651 83.8921C331.431 85.9561 327.565 87.009 323.008 87.009V88.009ZM335.191 84.734L335.73 85.5759C339.322 83.2738 341.982 80.0064 343.713 75.8148L342.789 75.433L341.864 75.0512C340.277 78.8943 337.872 81.8275 334.651 83.8921L335.191 84.734ZM342.789 75.433L342.401 76.3546L352.357 80.5466L352.745 79.625L353.133 78.7034L343.177 74.5114L342.789 75.433ZM352.745 79.625L351.82 79.2435C349.627 84.5583 346.089 88.8581 341.183 92.1571L341.741 92.987L342.299 93.8168C347.523 90.3038 351.321 85.6957 353.669 80.0065L352.745 79.625ZM341.741 92.987L341.176 92.1617C336.394 95.4339 330.53 97.096 323.532 97.096V98.096V99.096C330.856 99.096 337.132 97.3521 342.305 93.8123L341.741 92.987ZM380.781 95.738L380.422 96.6714L380.433 96.6757L380.781 95.738ZM375.017 92.201L374.328 92.926L374.33 92.928L375.017 92.201ZM369.777 39.277H370.777V38.277H369.777V39.277ZM358.118 39.277H357.118V40.277H358.118V39.277ZM358.118 29.19V28.19H357.118V29.19H358.118ZM369.777 29.19V30.19H370.777V29.19H369.777ZM369.777 10.326V9.32602H368.777V10.326H369.777ZM380.912 10.326H381.912V9.32602H380.912V10.326ZM380.912 29.19H379.912V30.19H380.912V29.19ZM397.156 29.19H398.156V28.19H397.156V29.19ZM397.156 39.277V40.277H398.156V39.277H397.156ZM380.912 39.277V38.277H379.912V39.277H380.912ZM383.008 83.817L382.227 84.4417L382.239 84.4564L382.251 84.4706L383.008 83.817ZM397.549 84.472H398.549V82.6607L397.016 83.6258L397.549 84.472ZM397.549 95.345L397.972 96.2512L398.549 95.9819V95.345H397.549ZM393.488 96.655L393.303 95.6721L393.292 95.6744L393.488 96.655ZM388.379 97.048V96.048C385.781 96.048 383.367 95.6294 381.128 94.8003L380.781 95.738L380.433 96.6757C382.911 97.5933 385.562 98.048 388.379 98.048V97.048ZM380.781 95.738L381.14 94.8047C378.976 93.9723 377.17 92.8587 375.703 91.474L375.017 92.201L374.33 92.928C376.008 94.5127 378.045 95.7572 380.422 96.6714L380.781 95.738ZM375.017 92.201L375.706 91.476C374.061 89.9134 372.834 88.1118 372.015 86.0656L371.087 86.437L370.158 86.8084C371.086 89.1288 372.48 91.1699 374.328 92.926L375.017 92.201ZM371.087 86.437L372.015 86.0656C371.202 84.0329 370.777 81.5032 370.777 78.446H369.777H368.777C368.777 81.6768 369.225 84.4745 370.158 86.8084L371.087 86.437ZM369.777 78.446H370.777V39.277H369.777H368.777V78.446H369.777ZM369.777 39.277V38.277H358.118V39.277V40.277H369.777V39.277ZM358.118 39.277H359.118V29.19H358.118H357.118V39.277H358.118ZM358.118 29.19V30.19H369.777V29.19V28.19H358.118V29.19ZM369.777 29.19H370.777V10.326H369.777H368.777V29.19H369.777ZM369.777 10.326V11.326H380.912V10.326V9.32602H369.777V10.326ZM380.912 10.326H379.912V29.19H380.912H381.912V10.326H380.912ZM380.912 29.19V30.19H397.156V29.19V28.19H380.912V29.19ZM397.156 29.19H396.156V39.277H397.156H398.156V29.19H397.156ZM397.156 39.277V38.277H380.912V39.277V40.277H397.156V39.277ZM380.912 39.277H379.912V75.695H380.912H381.912V39.277H380.912ZM380.912 75.695H379.912C379.912 79.4559 380.622 82.4356 382.227 84.4417L383.008 83.817L383.789 83.1923C382.599 81.7051 381.912 79.2701 381.912 75.695H380.912ZM383.008 83.817L382.251 84.4706C384.144 86.6631 386.853 87.699 390.213 87.699V86.699V85.699C387.284 85.699 385.19 84.8136 383.765 83.1634L383.008 83.817ZM390.213 86.699V87.699C392.953 87.699 395.581 86.8929 398.082 85.3182L397.549 84.472L397.016 83.6258C394.801 85.0204 392.538 85.699 390.213 85.699V86.699ZM397.549 84.472H396.549V95.345H397.549H398.549V84.472H397.549ZM397.549 95.345L397.126 94.4388C395.891 95.0153 394.617 95.4258 393.303 95.6721L393.488 96.655L393.672 97.6379C395.153 97.3602 396.587 96.8974 397.972 96.2512L397.549 95.345ZM393.488 96.655L393.292 95.6744C392.072 95.9184 390.442 96.048 388.379 96.048V97.048V98.048C390.508 98.048 392.284 97.9156 393.684 97.6356L393.488 96.655ZM415.886 93.118L415.307 93.9338L415.317 93.9407L415.886 93.118ZM405.668 80.149L405.259 79.2362L404.395 79.6228L404.734 80.5069L405.668 80.149ZM415.624 75.695L416.548 75.3132L416.155 74.3618L415.215 74.7822L415.624 75.695ZM422.96 84.996L422.4 85.8247L422.41 85.8314L422.96 84.996ZM444.575 85.782L445.062 86.6549L445.072 86.6495L445.082 86.6439L444.575 85.782ZM445.492 71.765L444.896 72.5686L444.906 72.5758L444.916 72.5828L445.492 71.765ZM434.357 67.311L434.107 68.2793L434.114 68.2812L434.122 68.2831L434.357 67.311ZM426.235 65.215L426.485 64.2467L426.473 64.2439L426.235 65.215ZM411.432 36.264L410.649 35.6421L410.646 35.6451L411.432 36.264ZM448.767 30.893L448.28 31.7664L448.287 31.7703L448.767 30.893ZM458.592 41.504L459.009 42.4127L459.891 42.0077L459.513 41.1144L458.592 41.504ZM448.898 45.958L448.003 46.4052L448.436 47.2706L449.315 46.8667L448.898 45.958ZM423.353 39.67L423.875 40.5226L423.883 40.518L423.353 39.67ZM422.174 52.115L421.54 52.889L421.551 52.8978L421.562 52.9063L422.174 52.115ZM430.82 55.783L431.068 54.8144L431.062 54.8129L430.82 55.783ZM440.514 58.272L440.265 59.2406L440.268 59.2414L440.514 58.272ZM455.317 65.739L454.609 66.4462L454.619 66.4555L455.317 65.739ZM456.758 88.533L457.55 89.1439L457.558 89.133L456.758 88.533ZM433.833 98.096V97.096C426.828 97.096 421.056 95.4746 416.454 92.2953L415.886 93.118L415.317 93.9407C420.322 97.3987 426.515 99.096 433.833 99.096V98.096ZM415.886 93.118L416.464 92.3023C411.813 89.0045 408.536 84.8374 406.601 79.7911L405.668 80.149L404.734 80.5069C406.817 85.9406 410.351 90.4196 415.307 93.9338L415.886 93.118ZM405.668 80.149L406.076 81.0618L416.032 76.6078L415.624 75.695L415.215 74.7822L405.259 79.2362L405.668 80.149ZM415.624 75.695L414.699 76.0768C416.425 80.254 418.987 83.5191 422.4 85.8247L422.96 84.996L423.52 84.1674C420.469 82.1064 418.141 79.1706 416.548 75.3132L415.624 75.695ZM422.96 84.996L422.41 85.8314C425.89 88.1209 429.705 89.271 433.833 89.271V88.271V87.271C430.1 87.271 426.667 86.2378 423.509 84.1606L422.96 84.996ZM433.833 88.271V89.271C438.156 89.271 441.913 88.4149 445.062 86.6549L444.575 85.782L444.087 84.9091C441.297 86.4678 437.893 87.271 433.833 87.271V88.271ZM444.575 85.782L445.082 86.6439C448.321 84.7384 450.029 81.9836 450.029 78.446H449.029H448.029C448.029 81.1964 446.767 83.3323 444.068 84.9201L444.575 85.782ZM449.029 78.446H450.029C450.029 75.3138 448.681 72.7868 446.067 70.9472L445.492 71.765L444.916 72.5828C447.018 74.0619 448.029 75.9889 448.029 78.446H449.029ZM445.492 71.765L446.087 70.9614C443.568 69.0955 439.702 67.5724 434.591 66.3389L434.357 67.311L434.122 68.2831C439.142 69.4949 442.699 70.9411 444.896 72.5686L445.492 71.765ZM434.357 67.311L434.607 66.3427L426.485 64.2467L426.235 65.215L425.985 66.1833L434.107 68.2793L434.357 67.311ZM426.235 65.215L426.473 64.2439C421.28 62.9669 417.074 60.8092 413.813 57.7992L413.135 58.534L412.456 59.2688C416.008 62.5468 420.535 64.8431 425.996 66.1861L426.235 65.215ZM413.135 58.534L413.813 57.7992C410.628 54.8596 409.026 51.073 409.026 46.351H408.026H407.026C407.026 51.585 408.829 55.9204 412.456 59.2688L413.135 58.534ZM408.026 46.351H409.026C409.026 42.7214 410.092 39.5797 412.217 36.8829L411.432 36.264L410.646 35.6451C408.23 38.7123 407.026 42.2952 407.026 46.351H408.026ZM411.432 36.264L412.215 36.8859C414.456 34.0633 417.412 31.891 421.111 30.3775L420.733 29.452L420.354 28.5265C416.368 30.157 413.123 32.5261 410.649 35.6421L411.432 36.264ZM420.733 29.452L421.111 30.3775C424.825 28.8582 428.844 28.094 433.178 28.094V27.094V26.094C428.603 26.094 424.325 26.9018 420.354 28.5265L420.733 29.452ZM433.178 27.094V28.094C438.88 28.094 443.905 29.3267 448.28 31.7664L448.767 30.893L449.254 30.0196C444.546 27.3939 439.178 26.094 433.178 26.094V27.094ZM448.767 30.893L448.287 31.7703C452.732 34.2028 455.844 37.5749 457.671 41.8936L458.592 41.504L459.513 41.1144C457.497 36.3504 454.058 32.6485 449.247 30.0157L448.767 30.893ZM458.592 41.504L458.174 40.5953L448.48 45.0493L448.898 45.958L449.315 46.8667L459.009 42.4127L458.592 41.504ZM448.898 45.958L449.792 45.5108C448.227 42.3805 446.03 39.9971 443.198 38.4052C440.373 36.8177 436.974 36.05 433.047 36.05V37.05V38.05C436.717 38.05 439.759 38.7669 442.218 40.1488C444.669 41.5262 446.599 43.5968 448.003 46.4052L448.898 45.958ZM433.047 37.05V36.05C429.213 36.05 425.794 36.965 422.823 38.822L423.353 39.67L423.883 40.518C426.501 38.8816 429.544 38.05 433.047 38.05V37.05ZM423.353 39.67L422.83 38.8174C419.899 40.6137 418.292 43.0431 418.292 46.089H419.292H420.292C420.292 43.8949 421.391 42.045 423.875 40.5226L423.353 39.67ZM419.292 46.089H418.292C418.292 48.8395 419.391 51.1304 421.54 52.889L422.174 52.115L422.807 51.341C421.114 49.9556 420.292 48.2291 420.292 46.089H419.292ZM422.174 52.115L421.562 52.9063C423.64 54.5122 426.675 55.7775 430.577 56.7531L430.82 55.783L431.062 54.8129C427.279 53.8671 424.55 52.6871 422.785 51.3237L422.174 52.115ZM430.82 55.783L430.571 56.7516L440.265 59.2406L440.514 58.272L440.762 57.3034L431.068 54.8144L430.82 55.783ZM440.514 58.272L440.268 59.2414C446.716 60.8748 451.461 63.299 454.609 66.4462L455.317 65.739L456.024 65.0319C452.534 61.5417 447.411 58.9879 440.759 57.3026L440.514 58.272ZM455.317 65.739L454.619 66.4555C457.74 69.4947 459.295 73.2083 459.295 77.66H460.295H461.295C461.295 72.6797 459.53 68.4459 456.014 65.0225L455.317 65.739ZM460.295 77.66H459.295C459.295 81.5586 458.18 84.9702 455.958 87.933L456.758 88.533L457.558 89.133C460.052 85.8078 461.295 81.9707 461.295 77.66H460.295ZM456.758 88.533L455.966 87.9222C453.728 90.8235 450.689 93.0816 446.813 94.6827L447.195 95.607L447.576 96.5313C451.735 94.8137 455.073 92.3559 457.55 89.1439L456.758 88.533ZM447.195 95.607L446.813 94.6827C442.931 96.2862 438.609 97.096 433.833 97.096V98.096V99.096C438.838 99.096 443.424 98.2465 447.576 96.5313L447.195 95.607Z" fill="url(#paint0_linear_343_296)"/>
</g>
</g>
<defs>
<linearGradient id="paint0_linear_343_296" x1="458.52" y1="95.6667" x2="457.339" y2="-80.3003" gradientUnits="userSpaceOnUse">
<stop offset="0.0576944"/>
<stop offset="1" stop-color="#A098FF"/>
</linearGradient>
<clipPath id="clip0_343_296">
<rect width="462" height="127" fill="white"/>
</clipPath>
</defs>
</svg>
