<svg width="436" height="101" viewBox="0 0 436 101" fill="none" xmlns="http://www.w3.org/2000/svg">
<mask id="path-1-outside-1_113_6009" maskUnits="userSpaceOnUse" x="0" y="0" width="436" height="101" fill="black">
<rect fill="white" width="436" height="101"/>
<path d="M34.3873 99.096C27.0513 99.096 20.3266 96.869 14.2133 92.415C8.09994 87.961 3.90794 81.7167 1.63728 73.682L12.2483 69.359C13.7329 74.9483 16.4839 79.5333 20.5013 83.114C24.5186 86.6947 29.2346 88.485 34.6493 88.485C40.0639 88.485 44.6489 87.044 48.4043 84.162C52.1596 81.1927 54.0373 77.1753 54.0373 72.11C54.0373 67.7433 52.4216 64.1627 49.1903 61.368C46.0463 58.486 40.8499 55.8223 33.6013 53.377L27.7063 51.281C21.0689 48.923 15.6543 45.8227 11.4623 41.98C7.27028 38.1373 5.17428 32.81 5.17428 25.998C5.17428 21.544 6.39694 17.4393 8.84228 13.684C11.2876 9.84133 14.6936 6.78466 19.0603 4.514C23.4269 2.24333 28.3176 1.10799 33.7323 1.10799C39.1469 1.10799 43.8629 2.11233 47.8803 4.12099C51.8976 6.12966 55.0853 8.57499 57.4433 11.457C59.8886 14.339 61.5916 17.1773 62.5523 19.972L52.0723 24.426C51.1989 21.1947 49.1903 18.269 46.0463 15.649C42.9896 13.029 38.9286 11.719 33.8633 11.719C29.0599 11.719 24.9553 13.0727 21.5493 15.78C18.1433 18.4873 16.4403 21.8933 16.4403 25.998C16.4403 29.666 17.8813 32.679 20.7633 35.037C23.6453 37.3077 28.0119 39.4473 33.8633 41.456L40.0203 43.552C47.9676 46.434 54.1683 50.0583 58.6223 54.425C63.0763 58.7043 65.3033 64.5557 65.3033 71.979C65.3033 78.005 63.7313 83.0703 60.5873 87.175C57.5306 91.2797 53.6443 94.2927 48.9283 96.214C44.2123 98.1353 39.3653 99.096 34.3873 99.096ZM107.688 99.096C101.313 99.096 95.5922 97.5677 90.5269 94.511C85.4616 91.4543 81.4879 87.2623 78.6059 81.935C75.8112 76.5203 74.4139 70.4507 74.4139 63.726C74.4139 57.2633 75.7239 51.3247 78.3439 45.91C81.0512 40.4953 84.8502 36.1723 89.7409 32.941C94.6316 29.7097 100.308 28.094 106.771 28.094C113.321 28.094 118.998 29.5787 123.801 32.548C128.604 35.43 132.272 39.4473 134.805 44.6C137.425 49.7527 138.735 55.6477 138.735 62.285C138.735 63.595 138.604 64.7303 138.342 65.691H85.5489C85.8109 70.7563 87.0336 75.0357 89.2169 78.529C91.4002 82.0223 94.1512 84.6423 97.4699 86.389C100.876 88.1357 104.413 89.009 108.081 89.009C116.64 89.009 123.233 84.9917 127.862 76.957L137.294 81.542C134.412 86.9567 130.482 91.236 125.504 94.38C120.613 97.524 114.675 99.096 107.688 99.096ZM126.945 56.521C126.77 53.7263 125.984 50.9317 124.587 48.137C123.19 45.3423 120.963 42.9843 117.906 41.063C114.937 39.1417 111.181 38.181 106.64 38.181C101.4 38.181 96.9459 39.884 93.2779 43.29C89.6972 46.6087 87.3392 51.019 86.2039 56.521H126.945ZM180.702 99.096C174.327 99.096 168.606 97.5677 163.541 94.511C158.476 91.4543 154.502 87.2623 151.62 81.935C148.825 76.5203 147.428 70.4507 147.428 63.726C147.428 57.2633 148.738 51.3247 151.358 45.91C154.065 40.4953 157.864 36.1723 162.755 32.941C167.646 29.7097 173.322 28.094 179.785 28.094C186.335 28.094 192.012 29.5787 196.815 32.548C201.618 35.43 205.286 39.4473 207.819 44.6C210.439 49.7527 211.749 55.6477 211.749 62.285C211.749 63.595 211.618 64.7303 211.356 65.691H158.563C158.825 70.7563 160.048 75.0357 162.231 78.529C164.414 82.0223 167.165 84.6423 170.484 86.389C173.89 88.1357 177.427 89.009 181.095 89.009C189.654 89.009 196.247 84.9917 200.876 76.957L210.308 81.542C207.426 86.9567 203.496 91.236 198.518 94.38C193.627 97.524 187.689 99.096 180.702 99.096ZM199.959 56.521C199.784 53.7263 198.998 50.9317 197.601 48.137C196.204 45.3423 193.977 42.9843 190.92 41.063C187.951 39.1417 184.195 38.181 179.654 38.181C174.414 38.181 169.96 39.884 166.292 43.29C162.711 46.6087 160.353 51.019 159.218 56.521H199.959ZM272.515 53.639L240.813 3.204H253.782L277.755 42.504H278.279L301.859 3.204H314.828L283.65 53.639V97H272.515V53.639ZM333.792 99.096C328.901 99.096 324.535 98.1353 320.692 96.214C316.849 94.2927 313.88 91.6727 311.784 88.354C309.688 84.948 308.64 81.1053 308.64 76.826C308.64 69.752 311.304 64.25 316.631 60.32C321.958 56.3027 328.683 54.294 336.805 54.294C340.822 54.294 344.534 54.7307 347.94 55.604C351.433 56.4773 354.097 57.4817 355.931 58.617V54.556C355.931 49.578 354.184 45.6043 350.691 42.635C347.198 39.5783 342.787 38.05 337.46 38.05C333.705 38.05 330.255 38.8797 327.111 40.539C323.967 42.111 321.478 44.338 319.644 47.22L311.26 40.932C313.88 36.9147 317.461 33.7707 322.002 31.5C326.631 29.2293 331.74 28.094 337.329 28.094C346.412 28.094 353.529 30.4957 358.682 35.299C363.922 40.015 366.542 46.4777 366.542 54.687V97H355.931V87.437H355.407C353.486 90.6683 350.604 93.4193 346.761 95.69C342.918 97.9607 338.595 99.096 333.792 99.096ZM334.84 89.271C338.595 89.271 342.089 88.3103 345.32 86.389C348.551 84.4677 351.128 81.8913 353.049 78.66C354.97 75.4287 355.931 71.8917 355.931 68.049C353.835 66.6517 351.259 65.5163 348.202 64.643C345.145 63.7697 341.914 63.333 338.508 63.333C332.395 63.333 327.766 64.5993 324.622 67.132C321.565 69.6647 320.037 72.9397 320.037 76.957C320.037 80.625 321.434 83.5943 324.229 85.865C327.024 88.1357 330.561 89.271 334.84 89.271ZM401.305 99.096C396.414 99.096 392.048 98.1353 388.205 96.214C384.362 94.2927 381.393 91.6727 379.297 88.354C377.201 84.948 376.153 81.1053 376.153 76.826C376.153 69.752 378.817 64.25 384.144 60.32C389.471 56.3027 396.196 54.294 404.318 54.294C408.335 54.294 412.047 54.7307 415.453 55.604C418.946 56.4773 421.61 57.4817 423.444 58.617V54.556C423.444 49.578 421.697 45.6043 418.204 42.635C414.711 39.5783 410.3 38.05 404.973 38.05C401.218 38.05 397.768 38.8797 394.624 40.539C391.48 42.111 388.991 44.338 387.157 47.22L378.773 40.932C381.393 36.9147 384.974 33.7707 389.515 31.5C394.144 29.2293 399.253 28.094 404.842 28.094C413.925 28.094 421.042 30.4957 426.195 35.299C431.435 40.015 434.055 46.4777 434.055 54.687V97H423.444V87.437H422.92C420.999 90.6683 418.117 93.4193 414.274 95.69C410.431 97.9607 406.108 99.096 401.305 99.096ZM402.353 89.271C406.108 89.271 409.602 88.3103 412.833 86.389C416.064 84.4677 418.641 81.8913 420.562 78.66C422.483 75.4287 423.444 71.8917 423.444 68.049C421.348 66.6517 418.772 65.5163 415.715 64.643C412.658 63.7697 409.427 63.333 406.021 63.333C399.908 63.333 395.279 64.5993 392.135 67.132C389.078 69.6647 387.55 72.9397 387.55 76.957C387.55 80.625 388.947 83.5943 391.742 85.865C394.537 88.1357 398.074 89.271 402.353 89.271Z"/>
</mask>
<path d="M14.2133 92.415L13.6244 93.2232L13.6244 93.2232L14.2133 92.415ZM1.63728 73.682L1.25998 72.7559L0.431747 73.0933L0.674966 73.954L1.63728 73.682ZM12.2483 69.359L13.2148 69.1023L12.9231 68.0043L11.871 68.4329L12.2483 69.359ZM20.5013 83.114L21.1666 82.3675L21.1666 82.3675L20.5013 83.114ZM48.4043 84.162L49.0131 84.9553L49.0188 84.9509L49.0245 84.9464L48.4043 84.162ZM49.1903 61.368L48.5146 62.1052L48.5252 62.1149L48.5361 62.1244L49.1903 61.368ZM33.6013 53.377L33.2663 54.3192L33.2739 54.3219L33.2816 54.3245L33.6013 53.377ZM27.7063 51.281L28.0413 50.3388L28.041 50.3387L27.7063 51.281ZM11.4623 41.98L10.7866 42.7172L10.7866 42.7172L11.4623 41.98ZM8.84228 13.684L9.68032 14.2297L9.68594 14.2209L8.84228 13.684ZM19.0603 4.514L18.5989 3.62678L18.5989 3.62678L19.0603 4.514ZM57.4433 11.457L56.6693 12.0902L56.675 12.0972L56.6808 12.104L57.4433 11.457ZM62.5523 19.972L62.9434 20.8923L63.8008 20.5279L63.498 19.6469L62.5523 19.972ZM52.0723 24.426L51.1069 24.6869L51.4065 25.7955L52.4634 25.3463L52.0723 24.426ZM46.0463 15.649L45.3954 16.4083L45.4061 16.4172L46.0463 15.649ZM21.5493 15.78L22.1715 16.5628L22.1715 16.5628L21.5493 15.78ZM20.7633 35.037L20.13 35.811L20.1372 35.8168L20.1444 35.8225L20.7633 35.037ZM33.8633 41.456L33.5386 42.4018L33.541 42.4026L33.8633 41.456ZM40.0203 43.552L40.3612 42.6119L40.3519 42.6085L40.3425 42.6053L40.0203 43.552ZM58.6223 54.425L57.9222 55.1391L57.9295 55.1461L58.6223 54.425ZM60.5873 87.175L59.7933 86.5669L59.7852 86.5777L60.5873 87.175ZM48.9283 96.214L49.3056 97.1401L49.3056 97.1401L48.9283 96.214ZM34.3873 99.096V98.096C27.2698 98.096 20.7501 95.9403 14.8021 91.6068L14.2133 92.415L13.6244 93.2232C19.9031 97.7977 26.8327 100.096 34.3873 100.096V99.096ZM14.2133 92.415L14.8021 91.6068C8.88881 87.2985 4.81605 81.2529 2.59958 73.41L1.63728 73.682L0.674966 73.954C2.99984 82.1804 7.31108 88.6235 13.6244 93.2232L14.2133 92.415ZM1.63728 73.682L2.01457 74.6081L12.6256 70.2851L12.2483 69.359L11.871 68.4329L1.25998 72.7559L1.63728 73.682ZM12.2483 69.359L11.2818 69.6157C12.8128 75.3795 15.6614 80.1398 19.8359 83.8605L20.5013 83.114L21.1666 82.3675C17.3065 78.9269 14.6531 74.5172 13.2148 69.1023L12.2483 69.359ZM20.5013 83.114L19.8359 83.8605C24.0377 87.6056 28.9909 89.485 34.6493 89.485V88.485V87.485C29.4783 87.485 24.9996 85.7838 21.1666 82.3675L20.5013 83.114ZM34.6493 88.485V89.485C40.251 89.485 45.0585 87.9902 49.0131 84.9553L48.4043 84.162L47.7955 83.3687C44.2394 86.0978 39.8769 87.485 34.6493 87.485V88.485ZM48.4043 84.162L49.0245 84.9464C53.0353 81.7751 55.0373 77.4606 55.0373 72.11H54.0373H53.0373C53.0373 76.8901 51.2839 80.6103 47.784 83.3776L48.4043 84.162ZM54.0373 72.11H55.0373C55.0373 67.4603 53.3009 63.601 49.8444 60.6116L49.1903 61.368L48.5361 62.1244C51.5423 64.7243 53.0373 68.0263 53.0373 72.11H54.0373ZM49.1903 61.368L49.866 60.6308C46.5676 57.6073 41.2133 54.8895 33.9209 52.4295L33.6013 53.377L33.2816 54.3245C40.4866 56.7551 45.525 59.3647 48.5146 62.1052L49.1903 61.368ZM33.6013 53.377L33.9363 52.4348L28.0413 50.3388L27.7063 51.281L27.3713 52.2232L33.2663 54.3192L33.6013 53.377ZM27.7063 51.281L28.041 50.3387C21.5007 48.0152 16.2107 44.9761 12.138 41.2428L11.4623 41.98L10.7866 42.7172C15.0979 46.6692 20.6371 49.8308 27.3715 52.2233L27.7063 51.281ZM11.4623 41.98L12.138 41.2428C8.19321 37.6268 6.17428 32.5899 6.17428 25.998H5.17428H4.17428C4.17428 33.0301 6.34734 38.6479 10.7866 42.7172L11.4623 41.98ZM5.17428 25.998H6.17428C6.17428 21.739 7.33997 17.8237 9.68027 14.2297L8.84228 13.684L8.00428 13.1383C5.45391 17.055 4.17428 21.349 4.17428 25.998H5.17428ZM8.84228 13.684L9.68594 14.2209C12.0293 10.5384 15.298 7.5975 19.5216 5.40121L19.0603 4.514L18.5989 3.62678C14.0892 5.97183 10.5459 9.14422 7.99861 13.1471L8.84228 13.684ZM19.0603 4.514L19.5216 5.40121C23.7319 3.21185 28.4618 2.10799 33.7323 2.10799V1.10799V0.107993C28.1734 0.107993 23.1219 1.27481 18.5989 3.62678L19.0603 4.514ZM33.7323 1.10799V2.10799C39.0232 2.10799 43.5803 3.08903 47.4331 5.01542L47.8803 4.12099L48.3275 3.22657C44.1456 1.13562 39.2707 0.107993 33.7323 0.107993V1.10799ZM47.8803 4.12099L47.4331 5.01542C51.3498 6.97379 54.4171 9.33746 56.6693 12.0902L57.4433 11.457L58.2172 10.8238C55.7535 7.81253 52.4454 5.28553 48.3275 3.22657L47.8803 4.12099ZM57.4433 11.457L56.6808 12.104C59.067 14.9163 60.696 17.648 61.6066 20.2971L62.5523 19.972L63.498 19.6469C62.4873 16.7067 60.7102 13.7617 58.2058 10.81L57.4433 11.457ZM62.5523 19.972L62.1611 19.0517L51.6811 23.5057L52.0723 24.426L52.4634 25.3463L62.9434 20.8923L62.5523 19.972ZM52.0723 24.426L53.0376 24.1651C52.0997 20.6947 49.9528 17.6027 46.6865 14.8808L46.0463 15.649L45.4061 16.4172C48.4278 18.9353 50.2982 21.6947 51.1069 24.6869L52.0723 24.426ZM46.0463 15.649L46.6971 14.8897C43.4162 12.0775 39.1038 10.719 33.8633 10.719V11.719V12.719C38.7534 12.719 42.5631 13.9805 45.3955 16.4083L46.0463 15.649ZM33.8633 11.719V10.719C28.8589 10.719 24.5285 12.1344 20.927 14.9972L21.5493 15.78L22.1715 16.5628C25.382 14.0109 29.261 12.719 33.8633 12.719V11.719ZM21.5493 15.78L20.927 14.9972C17.2989 17.8811 15.4403 21.5679 15.4403 25.998H16.4403H17.4403C17.4403 22.2187 18.9877 19.0936 22.1715 16.5628L21.5493 15.78ZM16.4403 25.998H15.4403C15.4403 29.9712 17.02 33.2664 20.13 35.811L20.7633 35.037L21.3965 34.263C18.7426 32.0916 17.4403 29.3608 17.4403 25.998H16.4403ZM20.7633 35.037L20.1444 35.8225C23.1549 38.1944 27.6434 40.3781 33.5386 42.4018L33.8633 41.456L34.188 40.5102C28.3805 38.5166 24.1356 36.4209 21.3821 34.2515L20.7633 35.037ZM33.8633 41.456L33.541 42.4026L39.698 44.4986L40.0203 43.552L40.3425 42.6053L34.1855 40.5093L33.8633 41.456ZM40.0203 43.552L39.6794 44.4921C47.5373 47.3417 53.5999 50.9015 57.9222 55.1391L58.6223 54.425L59.3224 53.7109C54.7367 49.2152 48.3979 45.5263 40.3612 42.6119L40.0203 43.552ZM58.6223 54.425L57.9295 55.1461C62.1483 59.1995 64.3033 64.7687 64.3033 71.979H65.3033H66.3033C66.3033 64.3427 64.0043 58.2092 59.3151 53.7039L58.6223 54.425ZM65.3033 71.979H64.3033C64.3033 77.823 62.7824 82.6646 59.7934 86.5669L60.5873 87.175L61.3812 87.7831C64.6802 83.476 66.3033 78.187 66.3033 71.979H65.3033ZM60.5873 87.175L59.7852 86.5777C56.8369 90.5369 53.0972 93.4358 48.551 95.2879L48.9283 96.214L49.3056 97.1401C54.1914 95.1496 58.2243 92.0225 61.3893 87.7723L60.5873 87.175ZM48.9283 96.214L48.551 95.2879C43.952 97.1616 39.2329 98.096 34.3873 98.096V99.096V100.096C39.4976 100.096 44.4726 99.1091 49.3056 97.1401L48.9283 96.214ZM90.5269 94.511L91.0436 93.6548L91.0436 93.6548L90.5269 94.511ZM78.6059 81.935L77.7173 82.3936L77.7217 82.4023L77.7264 82.4108L78.6059 81.935ZM78.3439 45.91L77.4494 45.4627L77.4437 45.4744L78.3439 45.91ZM89.7409 32.941L90.2922 33.7753L90.2922 33.7753L89.7409 32.941ZM123.801 32.548L123.275 33.3987L123.286 33.4055L123.801 32.548ZM134.805 44.6L133.907 45.0412L133.914 45.0532L134.805 44.6ZM138.342 65.691V66.691H139.106L139.307 65.9541L138.342 65.691ZM85.5489 65.691V64.691H84.4958L84.5502 65.7427L85.5489 65.691ZM89.2169 78.529L88.3689 79.059L88.3689 79.059L89.2169 78.529ZM97.4699 86.389L97.0041 87.274L97.0136 87.2788L97.4699 86.389ZM127.862 76.957L128.299 76.0576L127.461 75.6501L126.995 76.4578L127.862 76.957ZM137.294 81.542L138.177 82.0118L138.664 81.0961L137.731 80.6426L137.294 81.542ZM125.504 94.38L124.97 93.5345L124.963 93.5388L125.504 94.38ZM126.945 56.521V57.521H128.009L127.943 56.4586L126.945 56.521ZM117.906 41.063L117.363 41.9026L117.374 41.9096L117.906 41.063ZM93.2779 43.29L93.9577 44.0234L93.9584 44.0228L93.2779 43.29ZM86.2039 56.521L85.2245 56.3189L84.9765 57.521H86.2039V56.521ZM107.688 99.096V98.096C101.48 98.096 95.9409 96.6101 91.0436 93.6548L90.5269 94.511L90.0102 95.3672C95.2436 98.5252 101.145 100.096 107.688 100.096V99.096ZM90.5269 94.511L91.0436 93.6548C86.1347 90.6926 82.2847 86.6335 79.4855 81.4592L78.6059 81.935L77.7264 82.4108C80.6911 87.8911 84.7884 92.2161 90.0102 95.3672L90.5269 94.511ZM78.6059 81.935L79.4945 81.4764C76.7804 76.2177 75.4139 70.3079 75.4139 63.726H74.4139H73.4139C73.4139 70.5934 74.8421 76.8229 77.7173 82.3936L78.6059 81.935ZM74.4139 63.726H75.4139C75.4139 57.4027 76.6946 51.6145 79.2441 46.3456L78.3439 45.91L77.4437 45.4744C74.7532 51.0348 73.4139 57.1239 73.4139 63.726H74.4139ZM78.3439 45.91L79.2383 46.3572C81.8699 41.0941 85.5528 36.9067 90.2922 33.7753L89.7409 32.941L89.1897 32.1067C84.1477 35.438 80.2326 39.8966 77.4495 45.4628L78.3439 45.91ZM89.7409 32.941L90.2922 33.7753C95.0027 30.663 100.483 29.094 106.771 29.094V28.094V27.094C100.133 27.094 94.2605 28.7563 89.1897 32.1067L89.7409 32.941ZM106.771 28.094V29.094C113.165 29.094 118.654 30.5417 123.275 33.3986L123.801 32.548L124.327 31.6974C119.342 28.6156 113.476 27.094 106.771 27.094V28.094ZM123.801 32.548L123.286 33.4055C127.92 36.1859 131.457 40.0566 133.907 45.0411L134.805 44.6L135.702 44.1589C133.087 38.838 129.288 34.6741 124.315 31.6905L123.801 32.548ZM134.805 44.6L133.914 45.0532C136.452 50.046 137.735 55.7817 137.735 62.285H138.735H139.735C139.735 55.5136 138.398 49.4593 135.696 44.1468L134.805 44.6ZM138.735 62.285H137.735C137.735 63.5323 137.61 64.575 137.377 65.4279L138.342 65.691L139.307 65.9541C139.598 64.8856 139.735 63.6577 139.735 62.285H138.735ZM138.342 65.691V64.691H85.5489V65.691V66.691H138.342V65.691ZM85.5489 65.691L84.5502 65.7427C84.819 70.9388 86.077 75.3919 88.3689 79.059L89.2169 78.529L90.0649 77.999C87.9902 74.6794 86.8028 70.5738 86.5476 65.6393L85.5489 65.691ZM89.2169 78.529L88.3689 79.059C90.6365 82.6872 93.5138 85.4369 97.0042 87.2739L97.4699 86.389L97.9357 85.5041C94.7887 83.8478 92.164 81.3575 90.0649 77.999L89.2169 78.529ZM97.4699 86.389L97.0136 87.2788C100.554 89.0946 104.247 90.009 108.081 90.009V89.009V88.009C104.579 88.009 101.197 87.1767 97.9262 85.4992L97.4699 86.389ZM108.081 89.009V90.009C117.032 90.009 123.939 85.7692 128.728 77.4562L127.862 76.957L126.995 76.4578C122.527 84.2141 116.247 88.009 108.081 88.009V89.009ZM127.862 76.957L127.425 77.8564L136.857 82.4414L137.294 81.542L137.731 80.6426L128.299 76.0576L127.862 76.957ZM137.294 81.542L136.411 81.0721C133.607 86.3401 129.795 90.4873 124.97 93.5345L125.504 94.38L126.038 95.2255C131.169 91.9847 135.217 87.5732 138.177 82.0118L137.294 81.542ZM125.504 94.38L124.963 93.5388C120.264 96.5598 114.522 98.096 107.688 98.096V99.096V100.096C114.827 100.096 120.963 98.4882 126.045 95.2212L125.504 94.38ZM126.945 56.521L127.943 56.4586C127.759 53.5153 126.932 50.5906 125.481 47.6898L124.587 48.137L123.692 48.5842C125.037 51.2728 125.781 53.9373 125.947 56.5834L126.945 56.521ZM124.587 48.137L125.481 47.6898C123.99 44.7072 121.625 42.2197 118.438 40.2164L117.906 41.063L117.374 41.9096C120.3 43.7489 122.389 45.9774 123.692 48.5842L124.587 48.137ZM117.906 41.063L118.449 40.2234C115.278 38.1714 111.32 37.181 106.64 37.181V38.181V39.181C111.043 39.181 114.595 40.1119 117.363 41.9026L117.906 41.063ZM106.64 38.181V37.181C101.161 37.181 96.4597 38.9708 92.5975 42.5572L93.2779 43.29L93.9584 44.0228C97.4321 40.7972 101.639 39.181 106.64 39.181V38.181ZM93.2779 43.29L92.5981 42.5566C88.8425 46.0374 86.3954 50.6448 85.2245 56.3189L86.2039 56.521L87.1833 56.7231C88.2831 51.3932 90.552 47.1799 93.9577 44.0234L93.2779 43.29ZM86.2039 56.521V57.521H126.945V56.521V55.521H86.2039V56.521ZM163.541 94.511L164.058 93.6548L164.058 93.6548L163.541 94.511ZM151.62 81.935L150.731 82.3936L150.736 82.4023L150.74 82.4108L151.62 81.935ZM151.358 45.91L150.463 45.4627L150.458 45.4744L151.358 45.91ZM162.755 32.941L163.306 33.7753L163.306 33.7753L162.755 32.941ZM196.815 32.548L196.289 33.3987L196.3 33.4055L196.815 32.548ZM207.819 44.6L206.921 45.0412L206.928 45.0532L207.819 44.6ZM211.356 65.691V66.691H212.12L212.321 65.9541L211.356 65.691ZM158.563 65.691V64.691H157.51L157.564 65.7427L158.563 65.691ZM162.231 78.529L161.383 79.059L161.383 79.059L162.231 78.529ZM170.484 86.389L170.018 87.274L170.028 87.2788L170.484 86.389ZM200.876 76.957L201.313 76.0576L200.475 75.6501L200.009 76.4578L200.876 76.957ZM210.308 81.542L211.191 82.0118L211.678 81.0961L210.745 80.6426L210.308 81.542ZM198.518 94.38L197.984 93.5345L197.977 93.5388L198.518 94.38ZM199.959 56.521V57.521H201.023L200.957 56.4586L199.959 56.521ZM190.92 41.063L190.377 41.9026L190.388 41.9096L190.92 41.063ZM166.292 43.29L166.972 44.0234L166.972 44.0228L166.292 43.29ZM159.218 56.521L158.239 56.3189L157.991 57.521H159.218V56.521ZM180.702 99.096V98.096C174.494 98.096 168.955 96.6101 164.058 93.6548L163.541 94.511L163.024 95.3672C168.258 98.5252 174.159 100.096 180.702 100.096V99.096ZM163.541 94.511L164.058 93.6548C159.149 90.6926 155.299 86.6335 152.5 81.4592L151.62 81.935L150.74 82.4108C153.705 87.8911 157.803 92.2161 163.024 95.3672L163.541 94.511ZM151.62 81.935L152.509 81.4764C149.794 76.2177 148.428 70.3079 148.428 63.726H147.428H146.428C146.428 70.5934 147.856 76.8229 150.731 82.3936L151.62 81.935ZM147.428 63.726H148.428C148.428 57.4027 149.709 51.6145 152.258 46.3456L151.358 45.91L150.458 45.4744C147.767 51.0348 146.428 57.1239 146.428 63.726H147.428ZM151.358 45.91L152.252 46.3572C154.884 41.0941 158.567 36.9067 163.306 33.7753L162.755 32.941L162.204 32.1067C157.162 35.438 153.247 39.8966 150.464 45.4628L151.358 45.91ZM162.755 32.941L163.306 33.7753C168.017 30.663 173.497 29.094 179.785 29.094V28.094V27.094C173.147 27.094 167.275 28.7563 162.204 32.1067L162.755 32.941ZM179.785 28.094V29.094C186.179 29.094 191.668 30.5417 196.289 33.3986L196.815 32.548L197.341 31.6974C192.356 28.6156 186.491 27.094 179.785 27.094V28.094ZM196.815 32.548L196.3 33.4055C200.934 36.1859 204.472 40.0566 206.922 45.0411L207.819 44.6L208.716 44.1589C206.101 38.838 202.302 34.6741 197.329 31.6905L196.815 32.548ZM207.819 44.6L206.928 45.0532C209.466 50.046 210.749 55.7817 210.749 62.285H211.749H212.749C212.749 55.5136 211.412 49.4593 208.71 44.1468L207.819 44.6ZM211.749 62.285H210.749C210.749 63.5323 210.624 64.575 210.391 65.4279L211.356 65.691L212.321 65.9541C212.612 64.8856 212.749 63.6577 212.749 62.285H211.749ZM211.356 65.691V64.691H158.563V65.691V66.691H211.356V65.691ZM158.563 65.691L157.564 65.7427C157.833 70.9388 159.091 75.3919 161.383 79.059L162.231 78.529L163.079 77.999C161.004 74.6794 159.817 70.5738 159.562 65.6393L158.563 65.691ZM162.231 78.529L161.383 79.059C163.651 82.6872 166.528 85.4369 170.018 87.2739L170.484 86.389L170.95 85.5041C167.803 83.8478 165.178 81.3575 163.079 77.999L162.231 78.529ZM170.484 86.389L170.028 87.2788C173.569 89.0946 177.261 90.009 181.095 90.009V89.009V88.009C177.593 88.009 174.211 87.1767 170.94 85.4992L170.484 86.389ZM181.095 89.009V90.009C190.046 90.009 196.953 85.7692 201.742 77.4562L200.876 76.957L200.009 76.4578C195.541 84.2141 189.261 88.009 181.095 88.009V89.009ZM200.876 76.957L200.439 77.8564L209.871 82.4414L210.308 81.542L210.745 80.6426L201.313 76.0576L200.876 76.957ZM210.308 81.542L209.425 81.0721C206.621 86.3401 202.809 90.4873 197.984 93.5345L198.518 94.38L199.052 95.2255C204.183 91.9847 208.231 87.5732 211.191 82.0118L210.308 81.542ZM198.518 94.38L197.977 93.5388C193.278 96.5598 187.536 98.096 180.702 98.096V99.096V100.096C187.841 100.096 193.977 98.4882 199.059 95.2212L198.518 94.38ZM199.959 56.521L200.957 56.4586C200.773 53.5153 199.946 50.5906 198.495 47.6898L197.601 48.137L196.707 48.5842C198.051 51.2728 198.796 53.9373 198.961 56.5834L199.959 56.521ZM197.601 48.137L198.495 47.6898C197.004 44.7072 194.639 42.2197 191.452 40.2164L190.92 41.063L190.388 41.9096C193.314 43.7489 195.403 45.9774 196.707 48.5842L197.601 48.137ZM190.92 41.063L191.463 40.2234C188.292 38.1714 184.334 37.181 179.654 37.181V38.181V39.181C184.057 39.181 187.609 40.1119 190.377 41.9026L190.92 41.063ZM179.654 38.181V37.181C174.175 37.181 169.474 38.9708 165.612 42.5572L166.292 43.29L166.972 44.0228C170.446 40.7972 174.653 39.181 179.654 39.181V38.181ZM166.292 43.29L165.612 42.5566C161.857 46.0374 159.409 50.6448 158.239 56.3189L159.218 56.521L160.197 56.7231C161.297 51.3932 163.566 47.1799 166.972 44.0234L166.292 43.29ZM159.218 56.521V57.521H199.959V56.521V55.521H159.218V56.521ZM272.515 53.639H273.515V53.3508L273.361 53.1068L272.515 53.639ZM240.813 3.204V2.204H239.003L239.966 3.73617L240.813 3.204ZM253.782 3.204L254.635 2.68324L254.343 2.204H253.782V3.204ZM277.755 42.504L276.901 43.0248L277.193 43.504H277.755V42.504ZM278.279 42.504V43.504H278.845L279.136 43.0185L278.279 42.504ZM301.859 3.204V2.204H301.292L301.001 2.6895L301.859 3.204ZM314.828 3.204L315.678 3.72982L316.621 2.204H314.828V3.204ZM283.65 53.639L282.799 53.1132L282.65 53.3549V53.639H283.65ZM283.65 97V98H284.65V97H283.65ZM272.515 97H271.515V98H272.515V97ZM272.515 53.639L273.361 53.1068L241.659 2.67183L240.813 3.204L239.966 3.73617L271.668 54.1712L272.515 53.639ZM240.813 3.204V4.204H253.782V3.204V2.204H240.813V3.204ZM253.782 3.204L252.928 3.72476L276.901 43.0248L277.755 42.504L278.608 41.9832L254.635 2.68324L253.782 3.204ZM277.755 42.504V43.504H278.279V42.504V41.504H277.755V42.504ZM278.279 42.504L279.136 43.0185L302.716 3.71849L301.859 3.204L301.001 2.6895L277.421 41.9895L278.279 42.504ZM301.859 3.204V4.204H314.828V3.204V2.204H301.859V3.204ZM314.828 3.204L313.977 2.67818L282.799 53.1132L283.65 53.639L284.5 54.1648L315.678 3.72982L314.828 3.204ZM283.65 53.639H282.65V97H283.65H284.65V53.639H283.65ZM283.65 97V96H272.515V97V98H283.65V97ZM272.515 97H273.515V53.639H272.515H271.515V97H272.515ZM311.784 88.354L310.932 88.8781L310.938 88.888L311.784 88.354ZM316.631 60.32L317.225 61.1248L317.233 61.1184L316.631 60.32ZM347.94 55.604L347.692 56.5727L347.697 56.5741L347.94 55.604ZM355.931 58.617L355.405 59.4673L356.931 60.4122V58.617H355.931ZM350.691 42.635L350.032 43.3876L350.038 43.3923L350.043 43.3969L350.691 42.635ZM327.111 40.539L327.558 41.4334L327.568 41.4285L327.578 41.4234L327.111 40.539ZM319.644 47.22L319.044 48.02L319.908 48.6679L320.488 47.7569L319.644 47.22ZM311.26 40.932L310.422 40.3857L309.911 41.1701L310.66 41.732L311.26 40.932ZM322.002 31.5L321.561 30.6022L321.555 30.6056L322.002 31.5ZM358.682 35.299L358 36.0305L358.006 36.0364L358.013 36.0423L358.682 35.299ZM366.542 97V98H367.542V97H366.542ZM355.931 97H354.931V98H355.931V97ZM355.931 87.437H356.931V86.437H355.931V87.437ZM355.407 87.437V86.437H354.838L354.547 86.9259L355.407 87.437ZM345.32 86.389L345.831 87.2485L345.831 87.2485L345.32 86.389ZM353.049 78.66L353.908 79.1711L353.908 79.1711L353.049 78.66ZM355.931 68.049H356.931V67.5138L356.486 67.2169L355.931 68.049ZM324.622 67.132L323.994 66.3532L323.984 66.362L324.622 67.132ZM324.229 85.865L324.859 85.0889L324.229 85.865ZM333.792 99.096V98.096C329.035 98.096 324.825 97.1624 321.139 95.3196L320.692 96.214L320.245 97.1084C324.244 99.1082 328.768 100.096 333.792 100.096V99.096ZM320.692 96.214L321.139 95.3196C317.444 93.4718 314.619 90.9701 312.629 87.82L311.784 88.354L310.938 88.888C313.141 92.3753 316.255 95.1135 320.245 97.1084L320.692 96.214ZM311.784 88.354L312.636 87.8299C310.643 84.5926 309.64 80.9338 309.64 76.826H308.64H307.64C307.64 81.2769 308.732 85.3034 310.932 88.8781L311.784 88.354ZM308.64 76.826H309.64C309.64 70.0441 312.173 64.8516 317.225 61.1247L316.631 60.32L316.037 59.5153C310.435 63.6484 307.64 69.4599 307.64 76.826H308.64ZM316.631 60.32L317.233 61.1184C322.352 57.2583 328.852 55.294 336.805 55.294V54.294V53.294C328.514 53.294 321.565 55.347 316.029 59.5216L316.631 60.32ZM336.805 54.294V55.294C340.75 55.294 344.377 55.7228 347.692 56.5727L347.94 55.604L348.188 54.6353C344.691 53.7385 340.894 53.294 336.805 53.294V54.294ZM347.94 55.604L347.697 56.5741C351.148 57.4368 353.698 58.4106 355.405 59.4673L355.931 58.617L356.457 57.7667C354.496 56.5527 351.718 55.5179 348.182 54.6339L347.94 55.604ZM355.931 58.617H356.931V54.556H355.931H354.931V58.617H355.931ZM355.931 54.556H356.931C356.931 49.3131 355.076 45.0501 351.339 41.8731L350.691 42.635L350.043 43.3969C353.292 46.1586 354.931 49.8429 354.931 54.556H355.931ZM350.691 42.635L351.349 41.8824C347.647 38.6429 342.991 37.05 337.46 37.05V38.05V39.05C342.583 39.05 346.748 40.5138 350.032 43.3876L350.691 42.635ZM337.46 38.05V37.05C333.551 37.05 329.94 37.9151 326.644 39.6546L327.111 40.539L327.578 41.4234C330.57 39.8443 333.858 39.05 337.46 39.05V38.05ZM327.111 40.539L326.664 39.6446C323.362 41.2952 320.734 43.6436 318.8 46.6831L319.644 47.22L320.488 47.7569C322.221 45.0324 324.571 42.9268 327.558 41.4334L327.111 40.539ZM319.644 47.22L320.244 46.42L311.86 40.132L311.26 40.932L310.66 41.732L319.044 48.02L319.644 47.22ZM311.26 40.932L312.097 41.4783C314.615 37.6184 318.057 34.5906 322.449 32.3944L322.002 31.5L321.555 30.6056C316.864 32.9508 313.145 36.211 310.422 40.3857L311.26 40.932ZM322.002 31.5L322.442 32.3978C326.923 30.1999 331.879 29.094 337.329 29.094V28.094V27.094C331.6 27.094 326.338 28.2588 321.561 30.6022L322.002 31.5ZM337.329 28.094V29.094C346.234 29.094 353.081 31.4452 358 36.0305L358.682 35.299L359.364 34.5675C353.977 29.5461 346.589 27.094 337.329 27.094V28.094ZM358.682 35.299L358.013 36.0423C363.007 40.5369 365.542 46.7099 365.542 54.687H366.542H367.542C367.542 46.2454 364.837 39.4931 359.351 34.5557L358.682 35.299ZM366.542 54.687H365.542V97H366.542H367.542V54.687H366.542ZM366.542 97V96H355.931V97V98H366.542V97ZM355.931 97H356.931V87.437H355.931H354.931V97H355.931ZM355.931 87.437V86.437H355.407V87.437V88.437H355.931V87.437ZM355.407 87.437L354.547 86.9259C352.726 89.9883 349.977 92.6278 346.252 94.8291L346.761 95.69L347.27 96.5509C351.23 94.2109 354.245 91.3484 356.266 87.9481L355.407 87.437ZM346.761 95.69L346.252 94.8291C342.575 97.0018 338.43 98.096 333.792 98.096V99.096V100.096C338.76 100.096 343.261 98.9196 347.27 96.5509L346.761 95.69ZM334.84 89.271V90.271C338.775 90.271 342.445 89.2617 345.831 87.2485L345.32 86.389L344.809 85.5295C341.732 87.359 338.415 88.271 334.84 88.271V89.271ZM345.32 86.389L345.831 87.2485C349.206 85.2419 351.902 82.5458 353.908 79.1711L353.049 78.66L352.189 78.1489C350.353 81.2369 347.897 83.6934 344.809 85.5295L345.32 86.389ZM353.049 78.66L353.908 79.1711C355.924 75.7816 356.931 72.0674 356.931 68.049H355.931H354.931C354.931 71.716 354.017 75.0758 352.189 78.1489L353.049 78.66ZM355.931 68.049L356.486 67.2169C354.284 65.7495 351.608 64.5761 348.477 63.6815L348.202 64.643L347.927 65.6045C350.909 66.4565 353.385 67.5538 355.376 68.881L355.931 68.049ZM348.202 64.643L348.477 63.6815C345.324 62.7809 342 62.333 338.508 62.333V63.333V64.333C341.828 64.333 344.966 64.7585 347.927 65.6045L348.202 64.643ZM338.508 63.333V62.333C332.278 62.333 327.387 63.6201 323.995 66.3532L324.622 67.132L325.249 67.9108C328.144 65.5786 332.511 64.333 338.508 64.333V63.333ZM324.622 67.132L323.984 66.362C320.695 69.0873 319.037 72.6461 319.037 76.957H320.037H321.037C321.037 73.2333 322.436 70.2421 325.26 67.902L324.622 67.132ZM320.037 76.957H319.037C319.037 80.9196 320.565 84.1765 323.598 86.6411L324.229 85.865L324.859 85.0889C322.304 83.0122 321.037 80.3304 321.037 76.957H320.037ZM324.229 85.865L323.598 86.6411C326.603 89.0827 330.376 90.271 334.84 90.271V89.271V88.271C330.745 88.271 327.444 87.1886 324.859 85.0889L324.229 85.865ZM379.297 88.354L378.445 88.8781L378.451 88.888L379.297 88.354ZM384.144 60.32L384.738 61.1248L384.746 61.1184L384.144 60.32ZM415.453 55.604L415.205 56.5727L415.21 56.5741L415.453 55.604ZM423.444 58.617L422.918 59.4673L424.444 60.4122V58.617H423.444ZM418.204 42.635L417.545 43.3876L417.551 43.3923L417.556 43.3969L418.204 42.635ZM394.624 40.539L395.071 41.4334L395.081 41.4285L395.091 41.4234L394.624 40.539ZM387.157 47.22L386.557 48.02L387.421 48.6679L388.001 47.7569L387.157 47.22ZM378.773 40.932L377.935 40.3857L377.424 41.1701L378.173 41.732L378.773 40.932ZM389.515 31.5L389.075 30.6022L389.068 30.6056L389.515 31.5ZM426.195 35.299L425.513 36.0305L425.52 36.0364L425.526 36.0423L426.195 35.299ZM434.055 97V98H435.055V97H434.055ZM423.444 97H422.444V98H423.444V97ZM423.444 87.437H424.444V86.437H423.444V87.437ZM422.92 87.437V86.437H422.351L422.06 86.9259L422.92 87.437ZM412.833 86.389L413.344 87.2485L413.344 87.2485L412.833 86.389ZM420.562 78.66L421.422 79.1711L421.422 79.1711L420.562 78.66ZM423.444 68.049H424.444V67.5138L423.999 67.2169L423.444 68.049ZM392.135 67.132L391.508 66.3532L391.497 66.362L392.135 67.132ZM391.742 85.865L392.373 85.0889L391.742 85.865ZM401.305 99.096V98.096C396.548 98.096 392.338 97.1624 388.652 95.3196L388.205 96.214L387.758 97.1084C391.757 99.1082 396.281 100.096 401.305 100.096V99.096ZM388.205 96.214L388.652 95.3196C384.957 93.4718 382.132 90.9701 380.142 87.82L379.297 88.354L378.451 88.888C380.654 92.3753 383.768 95.1135 387.758 97.1084L388.205 96.214ZM379.297 88.354L380.149 87.8299C378.156 84.5926 377.153 80.9338 377.153 76.826H376.153H375.153C375.153 81.2769 376.245 85.3034 378.445 88.8781L379.297 88.354ZM376.153 76.826H377.153C377.153 70.0441 379.686 64.8516 384.738 61.1247L384.144 60.32L383.55 59.5153C377.948 63.6484 375.153 69.4599 375.153 76.826H376.153ZM384.144 60.32L384.746 61.1184C389.865 57.2583 396.365 55.294 404.318 55.294V54.294V53.294C396.027 53.294 389.078 55.347 383.542 59.5216L384.144 60.32ZM404.318 54.294V55.294C408.263 55.294 411.89 55.7228 415.205 56.5727L415.453 55.604L415.701 54.6353C412.204 53.7385 408.407 53.294 404.318 53.294V54.294ZM415.453 55.604L415.21 56.5741C418.661 57.4368 421.211 58.4106 422.918 59.4673L423.444 58.617L423.97 57.7667C422.009 56.5527 419.232 55.5179 415.696 54.6339L415.453 55.604ZM423.444 58.617H424.444V54.556H423.444H422.444V58.617H423.444ZM423.444 54.556H424.444C424.444 49.3131 422.589 45.0501 418.852 41.8731L418.204 42.635L417.556 43.3969C420.805 46.1586 422.444 49.8429 422.444 54.556H423.444ZM418.204 42.635L418.862 41.8824C415.16 38.6429 410.504 37.05 404.973 37.05V38.05V39.05C410.096 39.05 414.261 40.5138 417.545 43.3876L418.204 42.635ZM404.973 38.05V37.05C401.064 37.05 397.453 37.9151 394.157 39.6546L394.624 40.539L395.091 41.4234C398.083 39.8443 401.371 39.05 404.973 39.05V38.05ZM394.624 40.539L394.177 39.6446C390.876 41.2952 388.248 43.6436 386.313 46.6831L387.157 47.22L388.001 47.7569C389.734 45.0324 392.084 42.9268 395.071 41.4334L394.624 40.539ZM387.157 47.22L387.757 46.42L379.373 40.132L378.773 40.932L378.173 41.732L386.557 48.02L387.157 47.22ZM378.773 40.932L379.611 41.4783C382.128 37.6184 385.57 34.5906 389.962 32.3944L389.515 31.5L389.068 30.6056C384.377 32.9508 380.658 36.211 377.935 40.3857L378.773 40.932ZM389.515 31.5L389.955 32.3978C394.436 30.1999 399.392 29.094 404.842 29.094V28.094V27.094C399.113 27.094 393.852 28.2588 389.075 30.6022L389.515 31.5ZM404.842 28.094V29.094C413.747 29.094 420.594 31.4452 425.513 36.0305L426.195 35.299L426.877 34.5675C421.49 29.5461 414.102 27.094 404.842 27.094V28.094ZM426.195 35.299L425.526 36.0423C430.52 40.5369 433.055 46.7099 433.055 54.687H434.055H435.055C435.055 46.2454 432.35 39.4931 426.864 34.5557L426.195 35.299ZM434.055 54.687H433.055V97H434.055H435.055V54.687H434.055ZM434.055 97V96H423.444V97V98H434.055V97ZM423.444 97H424.444V87.437H423.444H422.444V97H423.444ZM423.444 87.437V86.437H422.92V87.437V88.437H423.444V87.437ZM422.92 87.437L422.06 86.9259C420.24 89.9883 417.491 92.6278 413.765 94.8291L414.274 95.69L414.783 96.5509C418.743 94.2109 421.758 91.3484 423.78 87.9481L422.92 87.437ZM414.274 95.69L413.765 94.8291C410.088 97.0018 405.943 98.096 401.305 98.096V99.096V100.096C406.273 100.096 410.774 98.9196 414.783 96.5509L414.274 95.69ZM402.353 89.271V90.271C406.288 90.271 409.958 89.2617 413.344 87.2485L412.833 86.389L412.322 85.5295C409.245 87.359 405.928 88.271 402.353 88.271V89.271ZM412.833 86.389L413.344 87.2485C416.719 85.2419 419.415 82.5458 421.422 79.1711L420.562 78.66L419.702 78.1489C417.866 81.2369 415.41 83.6934 412.322 85.5295L412.833 86.389ZM420.562 78.66L421.422 79.1711C423.437 75.7816 424.444 72.0674 424.444 68.049H423.444H422.444C422.444 71.716 421.53 75.0758 419.702 78.1489L420.562 78.66ZM423.444 68.049L423.999 67.2169C421.797 65.7495 419.121 64.5761 415.99 63.6815L415.715 64.643L415.44 65.6045C418.422 66.4565 420.898 67.5538 422.889 68.881L423.444 68.049ZM415.715 64.643L415.99 63.6815C412.838 62.7809 409.513 62.333 406.021 62.333V63.333V64.333C409.341 64.333 412.479 64.7585 415.44 65.6045L415.715 64.643ZM406.021 63.333V62.333C399.792 62.333 394.901 63.6201 391.508 66.3532L392.135 67.132L392.762 67.9108C395.657 65.5786 400.024 64.333 406.021 64.333V63.333ZM392.135 67.132L391.497 66.362C388.208 69.0873 386.55 72.6461 386.55 76.957H387.55H388.55C388.55 73.2333 389.949 70.2421 392.773 67.902L392.135 67.132ZM387.55 76.957H386.55C386.55 80.9196 388.078 84.1765 391.111 86.6411L391.742 85.865L392.373 85.0889C389.817 83.0122 388.55 80.3304 388.55 76.957H387.55ZM391.742 85.865L391.111 86.6411C394.116 89.0827 397.889 90.271 402.353 90.271V89.271V88.271C398.258 88.271 394.957 87.1886 392.373 85.0889L391.742 85.865Z" fill="url(#paint0_linear_113_6009)" mask="url(#path-1-outside-1_113_6009)"/>
<defs>
<linearGradient id="paint0_linear_113_6009" x1="417.078" y1="70" x2="416.716" y2="-20.132" gradientUnits="userSpaceOnUse">
<stop/>
<stop offset="0.9999" stop-color="#A098FF"/>
</linearGradient>
</defs>
</svg>
