<svg width="542" height="89" viewBox="0 0 542 89" fill="none" xmlns="http://www.w3.org/2000/svg">
<path d="M528.222 88.5H503.331V75.3633H528.222V88.5ZM541.358 22.5859V33.6484H541.243V53.3535H541.358V66.4902H541.243V75.3633H528.337V66.4902H510.591V66.375H497.454V22.5859H541.358ZM44.25 53.8145H30.998V35.8379H13.252V53.584L30.998 53.8145V66.8359H0V22.5859H44.25V53.8145ZM86.6562 53.6992H73.2891V66.8359H48.3984V53.6992H73.2891V22.8164H86.6562V53.6992ZM195.898 53.8145H182.646V35.8379H164.9V53.584L182.646 53.8145V66.8359H151.648V22.5859H195.898V53.8145ZM238.189 66.8359H212.953V53.4688H238.189V66.8359ZM299.955 35.8379H288.201V66.8359H263.08V53.584H274.834V22.5859H299.955V35.8379ZM371.618 22.2402H402.847V53.6992H389.479V35.6074H371.618V53.4688L389.479 53.6992V66.8359H358.251V0H371.618V22.2402ZM445.253 66.8359H420.017V53.4688H445.253V66.8359ZM493.306 66.8359H449.056V22.5859H493.306V66.8359ZM103.596 66.7207H90.3438V35.8379H103.596V66.7207ZM147.73 66.7207H134.479V35.8379H125.721V66.7207H112.469V35.8379H103.596V22.5859H147.73V66.7207ZM462.308 53.584L471.181 53.6992L480.054 53.584V35.8379H462.308V53.584ZM212.953 53.4688H199.586V22.5859H212.953V53.4688ZM420.017 53.4688H406.649V22.5859H420.017V53.4688ZM510.821 33.6484V53.3535H528.337V33.6484H510.821ZM257.539 6.00684C256.831 8.76012 255.926 11.7493 254.824 14.9746C253.723 18.1999 252.504 21.426 251.167 24.6514C249.908 27.7979 248.649 30.7872 247.391 33.6191H239.721C240.271 31.4165 240.822 29.0564 241.373 26.5391C242.002 24.0219 242.552 21.5045 243.024 18.9873C243.575 16.3913 244.047 13.8732 244.44 11.4346C244.912 8.99602 245.306 6.75423 245.621 4.70898H256.713L257.539 6.00684Z" fill="url(#paint0_linear_377_6546)"/>
<defs>
<linearGradient id="paint0_linear_377_6546" x1="455.412" y1="118" x2="448.532" y2="-261.724" gradientUnits="userSpaceOnUse">
<stop stop-color="#A098FF"/>
<stop offset="0.668312" stop-color="white"/>
</linearGradient>
</defs>
</svg>
