<svg width="1906" height="719" viewBox="0 0 1906 719" fill="none" xmlns="http://www.w3.org/2000/svg">
<g opacity="0.73" clip-path="url(#clip0_525_1175)">
<g filter="url(#filter0_f_525_1175)">
<path d="M944.064 441.22C1226.79 436.285 1459.99 661.48 1464.92 944.206C1469.86 1226.93 1244.66 1460.13 961.936 1465.06C679.209 1470 446.013 1244.8 441.078 962.078C436.143 679.351 661.338 446.155 944.064 441.22Z" fill="url(#paint0_linear_525_1175)"/>
</g>
<g filter="url(#filter1_f_525_1175)">
<path d="M943.852 441.224C1148.61 437.65 1317.5 600.744 1321.08 805.504C1324.65 1010.26 1161.56 1179.15 956.795 1182.73C752.035 1186.3 583.147 1023.21 579.572 818.447C575.998 613.687 739.092 444.798 943.852 441.224Z" fill="#7468FF"/>
</g>
<g filter="url(#filter2_f_525_1175)">
<path d="M945.566 535.064C1056.68 533.124 1148.33 621.627 1150.27 732.739C1152.2 843.852 1063.7 935.499 952.59 937.438C841.477 939.378 749.83 850.876 747.891 739.763C745.951 628.65 834.454 537.003 945.566 535.064Z" fill="#5344FF"/>
</g>
<path d="M1906 719H0V0H1906V719Z" fill="url(#paint1_linear_525_1175)"/>
</g>
<defs>
<filter id="filter0_f_525_1175" x="0.736382" y="0.878387" width="1904.53" height="1904.53" filterUnits="userSpaceOnUse" color-interpolation-filters="sRGB">
<feFlood flood-opacity="0" result="BackgroundImageFix"/>
<feBlend mode="normal" in="SourceGraphic" in2="BackgroundImageFix" result="shape"/>
<feGaussianBlur stdDeviation="220.131" result="effect1_foregroundBlur_525_1175"/>
</filter>
<filter id="filter1_f_525_1175" x="285.047" y="146.698" width="1330.55" height="1330.55" filterUnits="userSpaceOnUse" color-interpolation-filters="sRGB">
<feFlood flood-opacity="0" result="BackgroundImageFix"/>
<feBlend mode="normal" in="SourceGraphic" in2="BackgroundImageFix" result="shape"/>
<feGaussianBlur stdDeviation="147.234" result="effect1_foregroundBlur_525_1175"/>
</filter>
<filter id="filter2_f_525_1175" x="434.473" y="221.646" width="1029.21" height="1029.21" filterUnits="userSpaceOnUse" color-interpolation-filters="sRGB">
<feFlood flood-opacity="0" result="BackgroundImageFix"/>
<feBlend mode="normal" in="SourceGraphic" in2="BackgroundImageFix" result="shape"/>
<feGaussianBlur stdDeviation="156.693" result="effect1_foregroundBlur_525_1175"/>
</filter>
<linearGradient id="paint0_linear_525_1175" x1="971.661" y1="2022.22" x2="952.999" y2="953.088" gradientUnits="userSpaceOnUse">
<stop stop-color="#A098FF"/>
<stop offset="1" stop-color="#A098FF"/>
</linearGradient>
<linearGradient id="paint1_linear_525_1175" x1="953" y1="719" x2="953" y2="-0.000471413" gradientUnits="userSpaceOnUse">
<stop/>
<stop offset="1" stop-opacity="0"/>
</linearGradient>
<clipPath id="clip0_525_1175">
<rect width="1906" height="719" fill="white" transform="matrix(1 0 0 -1 0 719)"/>
</clipPath>
</defs>
</svg>
