<svg width="6028" height="6040" viewBox="0 0 6028 6040" fill="none" xmlns="http://www.w3.org/2000/svg">
<g clip-path="url(#clip0_458_1169)">
<path d="M4450.36 0H1577.64C706.334 0 0 706.36 0 1577.7V4462.3C0 5333.64 706.334 6040 1577.64 6040H4450.36C5321.67 6040 6028 5333.64 6028 4462.3V1577.7C6028 706.36 5321.67 0 4450.36 0Z" fill="url(#paint0_linear_458_1169)"/>
<path d="M4562.8 3656.36L3646.36 3654.6L3648.78 2388.6L2382.64 2386.16L2380.22 3652.17L3646.36 3654.6L3644.6 4571L1462 4566.82L1466.2 2384.4H1466.18L1467.94 1468L3650.54 1472.18V1472.09L4567 1473.85L4562.8 3656.36Z" fill="#A098FF"/>
</g>
<defs>
<linearGradient id="paint0_linear_458_1169" x1="3014" y1="5486.63" x2="3014" y2="353.217" gradientUnits="userSpaceOnUse">
<stop/>
<stop offset="1" stop-color="#1D1C24"/>
</linearGradient>
<clipPath id="clip0_458_1169">
<rect width="6028" height="6040" fill="white"/>
</clipPath>
</defs>
</svg>
