<svg width="241" height="99" viewBox="0 0 241 99" fill="none" xmlns="http://www.w3.org/2000/svg">
<mask id="path-1-outside-1_113_6009" maskUnits="userSpaceOnUse" x="0" y="0" width="241" height="99" fill="black">
<rect fill="white" width="241" height="99"/>
<path d="M1.88027 1.204H33.4513C38.6913 1.204 43.5383 2.383 47.9923 4.741C52.4463 7.09899 55.9833 10.4177 58.6033 14.697C61.3106 18.889 62.6643 23.6487 62.6643 28.976C62.6643 34.3033 61.3106 39.1067 58.6033 43.386C55.9833 47.578 52.4463 50.853 47.9923 53.211C43.5383 55.569 38.6913 56.748 33.4513 56.748H12.8843V95H1.88027V1.204ZM33.7133 46.137C37.2066 46.137 40.2633 45.3073 42.8833 43.648C45.5906 41.9887 47.6866 39.849 49.1713 37.229C50.6559 34.609 51.3983 31.858 51.3983 28.976C51.3983 26.094 50.6559 23.343 49.1713 20.723C47.6866 18.103 45.5906 15.9633 42.8833 14.304C40.2633 12.6447 37.2066 11.815 33.7133 11.815H12.8843V46.137H33.7133ZM99.8703 97.096C93.3203 97.096 87.4253 95.524 82.1853 92.38C76.9453 89.236 72.8406 84.9567 69.8713 79.542C66.9893 74.1273 65.5483 68.145 65.5483 61.595C65.5483 55.045 66.9893 49.0627 69.8713 43.648C72.8406 38.2333 76.9453 33.954 82.1853 30.81C87.4253 27.666 93.3203 26.094 99.8703 26.094C106.42 26.094 112.315 27.666 117.555 30.81C122.795 33.954 126.856 38.2333 129.738 43.648C132.708 49.0627 134.192 55.045 134.192 61.595C134.192 68.145 132.708 74.1273 129.738 79.542C126.856 84.9567 122.795 89.236 117.555 92.38C112.315 95.524 106.42 97.096 99.8703 97.096ZM99.8703 87.009C103.975 87.009 107.774 86.0047 111.267 83.996C114.848 81.9 117.686 78.9307 119.782 75.088C121.966 71.2453 123.057 66.7477 123.057 61.595C123.057 56.4423 121.966 51.9447 119.782 48.102C117.686 44.2593 114.848 41.3337 111.267 39.325C107.774 37.229 103.975 36.181 99.8703 36.181C95.7656 36.181 91.923 37.229 88.3423 39.325C84.7616 41.3337 81.8796 44.2593 79.6963 48.102C77.6003 51.9447 76.5523 56.4423 76.5523 61.595C76.5523 66.7477 77.6003 71.2453 79.6963 75.088C81.8796 78.9307 84.7616 81.9 88.3423 83.996C91.923 86.0047 95.7656 87.009 99.8703 87.009ZM168.36 97.096C161.198 97.096 155.216 95.4367 150.413 92.118C145.609 88.712 142.203 84.389 140.195 79.149L150.151 74.695C151.81 78.7123 154.255 81.8127 157.487 83.996C160.805 86.1793 164.43 87.271 168.36 87.271C172.552 87.271 176.132 86.4413 179.102 84.782C182.071 83.0353 183.556 80.59 183.556 77.446C183.556 74.6513 182.377 72.4243 180.019 70.765C177.661 69.0183 173.949 67.5337 168.884 66.311L160.762 64.215C155.434 62.905 151.068 60.678 147.662 57.534C144.256 54.39 142.553 50.329 142.553 45.351C142.553 41.5083 143.688 38.146 145.959 35.264C148.317 32.2947 151.417 30.024 155.26 28.452C159.102 26.88 163.251 26.094 167.705 26.094C173.556 26.094 178.752 27.3603 183.294 29.893C187.922 32.4257 191.197 35.9627 193.119 40.504L183.425 44.958C180.455 39.0193 175.172 36.05 167.574 36.05C163.906 36.05 160.674 36.9233 157.88 38.67C155.172 40.3293 153.819 42.469 153.819 45.089C153.819 47.5343 154.779 49.543 156.701 51.115C158.622 52.5997 161.504 53.8223 165.347 54.783L175.041 57.272C181.591 58.9313 186.525 61.4203 189.844 64.739C193.162 67.9703 194.822 71.944 194.822 76.66C194.822 80.7647 193.643 84.389 191.285 87.533C188.927 90.5897 185.739 92.9477 181.722 94.607C177.704 96.2663 173.25 97.096 168.36 97.096ZM230.555 96.048C227.848 96.048 225.315 95.6113 222.957 94.738C220.686 93.8647 218.765 92.6857 217.193 91.201C215.446 89.5417 214.136 87.6203 213.263 85.437C212.39 83.2537 211.953 80.59 211.953 77.446V38.277H200.294V28.19H211.953V9.32599H223.088V28.19H239.332V38.277H223.088V74.695C223.088 78.363 223.787 81.0703 225.184 82.817C226.843 84.7383 229.245 85.699 232.389 85.699C234.922 85.699 237.367 84.9567 239.725 83.472V94.345C238.415 94.9563 237.061 95.393 235.664 95.655C234.354 95.917 232.651 96.048 230.555 96.048Z"/>
</mask>
<path d="M1.88027 1.204V0.203997H0.880269V1.204H1.88027ZM47.9923 4.741L47.5244 5.62479L47.5244 5.62479L47.9923 4.741ZM58.6033 14.697L57.7504 15.2191L57.7567 15.2294L57.7632 15.2395L58.6033 14.697ZM58.6033 43.386L57.7582 42.8513L57.7553 42.856L58.6033 43.386ZM47.9923 53.211L48.4602 54.0948L48.4602 54.0948L47.9923 53.211ZM12.8843 56.748V55.748H11.8843V56.748H12.8843ZM12.8843 95V96H13.8843V95H12.8843ZM1.88027 95H0.880269V96H1.88027V95ZM42.8833 43.648L42.3607 42.7954L42.3544 42.7992L42.3482 42.8032L42.8833 43.648ZM49.1713 37.229L48.3012 36.736L48.3012 36.736L49.1713 37.229ZM49.1713 20.723L50.0413 20.23L50.0413 20.23L49.1713 20.723ZM42.8833 14.304L42.3482 15.1488L42.3544 15.1527L42.3607 15.1566L42.8833 14.304ZM12.8843 11.815V10.815H11.8843V11.815H12.8843ZM12.8843 46.137H11.8843V47.137H12.8843V46.137ZM1.88027 1.204V2.204H33.4513V1.204V0.203997H1.88027V1.204ZM33.4513 1.204V2.204C38.5349 2.204 43.2204 3.34618 47.5244 5.62479L47.9923 4.741L48.4602 3.85721C43.8562 1.41981 38.8477 0.203997 33.4513 0.203997V1.204ZM47.9923 4.741L47.5244 5.62479C51.8207 7.8993 55.2244 11.0934 57.7504 15.2191L58.6033 14.697L59.4561 14.1748C56.7421 9.74193 53.0718 6.29868 48.4602 3.85721L47.9923 4.741ZM58.6033 14.697L57.7632 15.2395C60.359 19.2588 61.6643 23.8275 61.6643 28.976H62.6643H63.6643C63.6643 23.4698 62.2622 18.5192 59.4433 14.1545L58.6033 14.697ZM62.6643 28.976H61.6643C61.6643 34.1244 60.3589 38.7405 57.7582 42.8514L58.6033 43.386L59.4483 43.9206C62.2623 39.4728 63.6643 34.4823 63.6643 28.976H62.6643ZM58.6033 43.386L57.7553 42.856C55.2305 46.8956 51.8259 50.0499 47.5244 52.3272L47.9923 53.211L48.4602 54.0948C53.0666 51.6561 56.736 48.2604 59.4513 43.916L58.6033 43.386ZM47.9923 53.211L47.5244 52.3272C43.2204 54.6058 38.5349 55.748 33.4513 55.748V56.748V57.748C38.8477 57.748 43.8562 56.5322 48.4602 54.0948L47.9923 53.211ZM33.4513 56.748V55.748H12.8843V56.748V57.748H33.4513V56.748ZM12.8843 56.748H11.8843V95H12.8843H13.8843V56.748H12.8843ZM12.8843 95V94H1.88027V95V96H12.8843V95ZM1.88027 95H2.88027V1.204H1.88027H0.880269V95H1.88027ZM33.7133 46.137V47.137C37.3714 47.137 40.6187 46.2659 43.4183 44.4928L42.8833 43.648L42.3482 42.8032C39.9079 44.3487 37.0418 45.137 33.7133 45.137V46.137ZM42.8833 43.648L43.4058 44.5006C46.2494 42.7578 48.4685 40.4975 50.0413 37.722L49.1713 37.229L48.3012 36.736C46.9047 39.2005 44.9318 41.2196 42.3607 42.7954L42.8833 43.648ZM49.1713 37.229L50.0413 37.722C51.6072 34.9587 52.3983 32.0387 52.3983 28.976H51.3983H50.3983C50.3983 31.6773 49.7047 34.2593 48.3012 36.736L49.1713 37.229ZM51.3983 28.976H52.3983C52.3983 25.9133 51.6072 22.9933 50.0413 20.23L49.1713 20.723L48.3012 21.216C49.7047 23.6927 50.3983 26.2747 50.3983 28.976H51.3983ZM49.1713 20.723L50.0413 20.23C48.4685 17.4545 46.2494 15.1942 43.4058 13.4514L42.8833 14.304L42.3607 15.1566C44.9318 16.7324 46.9047 18.7515 48.3012 21.216L49.1713 20.723ZM42.8833 14.304L43.4183 13.4592C40.6187 11.686 37.3714 10.815 33.7133 10.815V11.815V12.815C37.0418 12.815 39.9079 13.6033 42.3482 15.1488L42.8833 14.304ZM33.7133 11.815V10.815H12.8843V11.815V12.815H33.7133V11.815ZM12.8843 11.815H11.8843V46.137H12.8843H13.8843V11.815H12.8843ZM12.8843 46.137V47.137H33.7133V46.137V45.137H12.8843V46.137ZM82.1853 92.38L81.6708 93.2375L81.6708 93.2375L82.1853 92.38ZM69.8713 79.542L68.9885 80.0119L68.9945 80.0228L69.8713 79.542ZM69.8713 43.648L68.9944 43.1671L68.9886 43.1781L69.8713 43.648ZM82.1853 30.81L82.6998 31.6675L82.6998 31.6675L82.1853 30.81ZM117.555 30.81L117.041 31.6675L117.041 31.6675L117.555 30.81ZM129.738 43.648L128.856 44.1179L128.862 44.1288L129.738 43.648ZM129.738 79.542L128.861 79.0611L128.856 79.0721L129.738 79.542ZM117.555 92.38L117.041 91.5225L117.041 91.5225L117.555 92.38ZM111.267 83.996L111.766 84.8629L111.772 84.859L111.267 83.996ZM119.782 75.088L118.913 74.594L118.909 74.6015L118.904 74.6091L119.782 75.088ZM119.782 48.102L118.904 48.5809L118.909 48.5885L118.913 48.596L119.782 48.102ZM111.267 39.325L110.753 40.1825L110.765 40.19L110.778 40.1971L111.267 39.325ZM88.3423 39.325L88.8316 40.1971L88.8396 40.1927L88.8475 40.188L88.3423 39.325ZM79.6963 48.102L78.8269 47.608L78.8226 47.6155L78.8184 47.6231L79.6963 48.102ZM79.6963 75.088L78.8184 75.5669L78.8226 75.5745L78.8269 75.582L79.6963 75.088ZM88.3423 83.996L87.8371 84.859L87.8451 84.8637L87.8531 84.8681L88.3423 83.996ZM99.8703 97.096V96.096C93.488 96.096 87.7732 94.5665 82.6998 91.5225L82.1853 92.38L81.6708 93.2375C87.0774 96.4815 93.1526 98.096 99.8703 98.096V97.096ZM82.1853 92.38L82.6998 91.5225C77.6135 88.4707 73.6332 84.3221 70.7481 79.0612L69.8713 79.542L68.9945 80.0228C72.0481 85.5912 76.2771 90.0013 81.6708 93.2375L82.1853 92.38ZM69.8713 79.542L70.7541 79.0721C67.9542 73.8119 66.5483 67.9926 66.5483 61.595H65.5483H64.5483C64.5483 68.2974 66.0244 74.4428 68.9886 80.0118L69.8713 79.542ZM65.5483 61.595H66.5483C66.5483 55.1974 67.9542 49.3781 70.7541 44.1178L69.8713 43.648L68.9886 43.1781C66.0244 48.7472 64.5483 54.8926 64.5483 61.595H65.5483ZM69.8713 43.648L70.7481 44.1288C73.6332 38.8679 77.6135 34.7193 82.6998 31.6675L82.1853 30.81L81.6708 29.9525C76.2771 33.1887 72.0481 37.5988 68.9945 43.1672L69.8713 43.648ZM82.1853 30.81L82.6998 31.6675C87.7732 28.6235 93.488 27.094 99.8703 27.094V26.094V25.094C93.1526 25.094 87.0774 26.7085 81.6708 29.9525L82.1853 30.81ZM99.8703 26.094V27.094C106.253 27.094 111.967 28.6235 117.041 31.6675L117.555 30.81L118.07 29.9525C112.663 26.7085 106.588 25.094 99.8703 25.094V26.094ZM117.555 30.81L117.041 31.6675C122.125 34.7177 126.059 38.8628 128.856 44.1178L129.738 43.648L130.621 43.1781C127.654 37.6039 123.466 33.1903 118.07 29.9525L117.555 30.81ZM129.738 43.648L128.862 44.1288C131.745 49.3872 133.192 55.2025 133.192 61.595H134.192H135.192C135.192 54.8874 133.67 48.7382 130.615 43.1672L129.738 43.648ZM134.192 61.595H133.192C133.192 67.9874 131.745 73.8028 128.862 79.0612L129.738 79.542L130.615 80.0228C133.67 74.4518 135.192 68.3025 135.192 61.595H134.192ZM129.738 79.542L128.856 79.0721C126.059 84.3272 122.125 88.4723 117.041 91.5225L117.555 92.38L118.07 93.2375C123.466 89.9997 127.654 85.5861 130.621 80.0118L129.738 79.542ZM117.555 92.38L117.041 91.5225C111.967 94.5665 106.253 96.096 99.8703 96.096V97.096V98.096C106.588 98.096 112.663 96.4815 118.07 93.2375L117.555 92.38ZM99.8703 87.009V88.009C104.147 88.009 108.118 86.9605 111.766 84.8629L111.267 83.996L110.769 83.1291C107.43 85.0489 103.803 86.009 99.8703 86.009V87.009ZM111.267 83.996L111.772 84.859C115.519 82.6661 118.482 79.5599 120.66 75.5669L119.782 75.088L118.904 74.6091C116.89 78.3014 114.177 81.1339 110.762 83.133L111.267 83.996ZM119.782 75.088L120.652 75.582C122.934 71.5654 124.057 66.8919 124.057 61.595H123.057H122.057C122.057 66.6034 120.997 70.9252 118.913 74.594L119.782 75.088ZM123.057 61.595H124.057C124.057 56.2981 122.934 51.6246 120.652 47.608L119.782 48.102L118.913 48.596C120.997 52.2648 122.057 56.5866 122.057 61.595H123.057ZM119.782 48.102L120.66 47.6231C118.48 43.6269 115.512 40.5596 111.757 38.4529L111.267 39.325L110.778 40.1971C114.184 42.1077 116.892 44.8918 118.904 48.5809L119.782 48.102ZM111.267 39.325L111.782 38.4675C108.132 36.2775 104.155 35.181 99.8703 35.181V36.181V37.181C103.795 37.181 107.416 38.1805 110.753 40.1825L111.267 39.325ZM99.8703 36.181V35.181C95.5861 35.181 91.5693 36.2773 87.8371 38.462L88.3423 39.325L88.8475 40.188C92.2767 38.1807 95.9452 37.181 99.8703 37.181V36.181ZM88.3423 39.325L87.8531 38.4529C84.1015 40.5574 81.093 43.6196 78.8269 47.608L79.6963 48.102L80.5658 48.596C82.6663 44.8991 85.4218 42.1099 88.8316 40.1971L88.3423 39.325ZM79.6963 48.102L78.8184 47.6231C76.6292 51.6367 75.5523 56.3047 75.5523 61.595H76.5523H77.5523C77.5523 56.5799 78.5714 52.2526 80.5742 48.5809L79.6963 48.102ZM76.5523 61.595H75.5523C75.5523 66.8853 76.6292 71.5533 78.8184 75.5669L79.6963 75.088L80.5742 74.6091C78.5714 70.9374 77.5523 66.6101 77.5523 61.595H76.5523ZM79.6963 75.088L78.8269 75.582C81.0912 79.5672 84.0948 82.6684 87.8371 84.859L88.3423 83.996L88.8475 83.133C85.4285 81.1316 82.6681 78.2941 80.5658 74.594L79.6963 75.088ZM88.3423 83.996L87.8531 84.8681C91.5831 86.9606 95.5943 88.009 99.8703 88.009V87.009V86.009C95.937 86.009 92.2628 85.0487 88.8316 83.1239L88.3423 83.996ZM150.413 92.118L149.834 92.9338L149.844 92.9407L150.413 92.118ZM140.195 79.149L139.786 78.2362L138.922 78.6228L139.261 79.5069L140.195 79.149ZM150.151 74.695L151.075 74.3132L150.682 73.3618L149.742 73.7822L150.151 74.695ZM157.487 83.996L156.927 84.8247L156.937 84.8314L157.487 83.996ZM179.102 84.782L179.59 85.6549L179.599 85.6495L179.609 85.6439L179.102 84.782ZM180.019 70.765L179.424 71.5686L179.433 71.5758L179.443 71.5828L180.019 70.765ZM168.884 66.311L168.634 67.2793L168.641 67.2812L168.649 67.2831L168.884 66.311ZM160.762 64.215L161.012 63.2467L161.001 63.2439L160.762 64.215ZM147.662 57.534L146.983 58.2688L146.983 58.2688L147.662 57.534ZM145.959 35.264L145.176 34.6421L145.173 34.6451L145.959 35.264ZM155.26 28.452L154.881 27.5265L155.26 28.452ZM183.294 29.893L182.807 30.7664L182.814 30.7703L183.294 29.893ZM193.119 40.504L193.536 41.4127L194.418 41.0077L194.04 40.1144L193.119 40.504ZM183.425 44.958L182.53 45.4052L182.963 46.2706L183.842 45.8667L183.425 44.958ZM157.88 38.67L158.402 39.5226L158.41 39.518L157.88 38.67ZM156.701 51.115L156.068 51.889L156.078 51.8978L156.089 51.9063L156.701 51.115ZM165.347 54.783L165.595 53.8144L165.589 53.8129L165.347 54.783ZM175.041 57.272L174.792 58.2406L174.795 58.2414L175.041 57.272ZM189.844 64.739L189.137 65.4462L189.146 65.4555L189.844 64.739ZM191.285 87.533L192.077 88.1439L192.085 88.133L191.285 87.533ZM181.722 94.607L182.104 95.5313L182.104 95.5313L181.722 94.607ZM168.36 97.096V96.096C161.355 96.096 155.583 94.4746 150.981 91.2953L150.413 92.118L149.844 92.9407C154.849 96.3987 161.042 98.096 168.36 98.096V97.096ZM150.413 92.118L150.991 91.3023C146.341 88.0045 143.063 83.8374 141.129 78.7911L140.195 79.149L139.261 79.5069C141.344 84.9406 144.878 89.4195 149.834 92.9337L150.413 92.118ZM140.195 79.149L140.603 80.0618L150.559 75.6078L150.151 74.695L149.742 73.7822L139.786 78.2362L140.195 79.149ZM150.151 74.695L149.227 75.0768C150.952 79.254 153.515 82.519 156.927 84.8246L157.487 83.996L158.047 83.1674C154.996 81.1064 152.668 78.1706 151.075 74.3132L150.151 74.695ZM157.487 83.996L156.937 84.8314C160.417 87.1209 164.232 88.271 168.36 88.271V87.271V86.271C164.627 86.271 161.194 85.2378 158.036 83.1606L157.487 83.996ZM168.36 87.271V88.271C172.683 88.271 176.44 87.4149 179.59 85.6549L179.102 84.782L178.614 83.9091C175.825 85.4678 172.42 86.271 168.36 86.271V87.271ZM179.102 84.782L179.609 85.6439C182.848 83.7384 184.556 80.9836 184.556 77.446H183.556H182.556C182.556 80.1964 181.294 82.3323 178.595 83.9201L179.102 84.782ZM183.556 77.446H184.556C184.556 74.3138 183.208 71.7868 180.594 69.9472L180.019 70.765L179.443 71.5828C181.545 73.0619 182.556 74.9889 182.556 77.446H183.556ZM180.019 70.765L180.614 69.9614C178.095 68.0955 174.229 66.5724 169.118 65.3389L168.884 66.311L168.649 67.2831C173.67 68.4949 177.227 69.9411 179.424 71.5686L180.019 70.765ZM168.884 66.311L169.134 65.3427L161.012 63.2467L160.762 64.215L160.512 65.1833L168.634 67.2793L168.884 66.311ZM160.762 64.215L161.001 63.2439C155.807 61.9669 151.601 59.8092 148.34 56.7992L147.662 57.534L146.983 58.2688C150.535 61.5468 155.062 63.8431 160.523 65.1861L160.762 64.215ZM147.662 57.534L148.34 56.7992C145.156 53.8596 143.553 50.073 143.553 45.351H142.553H141.553C141.553 50.585 143.356 54.9204 146.983 58.2688L147.662 57.534ZM142.553 45.351H143.553C143.553 41.7214 144.619 38.5797 146.744 35.8829L145.959 35.264L145.173 34.6451C142.757 37.7123 141.553 41.2952 141.553 45.351H142.553ZM145.959 35.264L146.742 35.8859C148.983 33.0633 151.939 30.891 155.638 29.3775L155.26 28.452L154.881 27.5265C150.895 29.157 147.65 31.5261 145.176 34.6421L145.959 35.264ZM155.26 28.452L155.638 29.3775C159.352 27.8582 163.371 27.094 167.705 27.094V26.094V25.094C163.13 25.094 158.853 25.9018 154.881 27.5265L155.26 28.452ZM167.705 26.094V27.094C173.407 27.094 178.432 28.3267 182.807 30.7664L183.294 29.893L183.781 29.0196C179.073 26.3939 173.705 25.094 167.705 25.094V26.094ZM183.294 29.893L182.814 30.7703C187.26 33.2028 190.371 36.5749 192.198 40.8936L193.119 40.504L194.04 40.1144C192.024 35.3504 188.585 31.6485 183.774 29.0157L183.294 29.893ZM193.119 40.504L192.701 39.5953L183.007 44.0493L183.425 44.958L183.842 45.8667L193.536 41.4127L193.119 40.504ZM183.425 44.958L184.319 44.5108C182.754 41.3805 180.558 38.9971 177.725 37.4052C174.9 35.8177 171.502 35.05 167.574 35.05V36.05V37.05C171.244 37.05 174.286 37.7669 176.745 39.1488C179.196 40.5262 181.126 42.5968 182.53 45.4052L183.425 44.958ZM167.574 36.05V35.05C163.74 35.05 160.321 35.965 157.35 37.822L157.88 38.67L158.41 39.518C161.028 37.8816 164.071 37.05 167.574 37.05V36.05ZM157.88 38.67L157.357 37.8174C154.426 39.6137 152.819 42.0431 152.819 45.089H153.819H154.819C154.819 42.8949 155.918 41.045 158.402 39.5226L157.88 38.67ZM153.819 45.089H152.819C152.819 47.8395 153.918 50.1304 156.068 51.889L156.701 51.115L157.334 50.341C155.641 48.9556 154.819 47.2291 154.819 45.089H153.819ZM156.701 51.115L156.089 51.9063C158.168 53.5122 161.202 54.7775 165.104 55.7531L165.347 54.783L165.589 53.8129C161.806 52.8671 159.077 51.6871 157.312 50.3237L156.701 51.115ZM165.347 54.783L165.098 55.7516L174.792 58.2406L175.041 57.272L175.289 56.3034L165.595 53.8144L165.347 54.783ZM175.041 57.272L174.795 58.2414C181.243 59.8748 185.99 62.2989 189.137 65.4461L189.844 64.739L190.551 64.0319C187.061 60.5417 181.939 57.9879 175.286 56.3026L175.041 57.272ZM189.844 64.739L189.146 65.4555C192.268 68.4947 193.822 72.2083 193.822 76.66H194.822H195.822C195.822 71.6797 194.057 67.4459 190.541 64.0225L189.844 64.739ZM194.822 76.66H193.822C193.822 80.5586 192.707 83.9702 190.485 86.933L191.285 87.533L192.085 88.133C194.579 84.8078 195.822 80.9707 195.822 76.66H194.822ZM191.285 87.533L190.493 86.9222C188.255 89.8235 185.216 92.0816 181.34 93.6827L181.722 94.607L182.104 95.5313C186.262 93.8137 189.599 91.3558 192.077 88.1438L191.285 87.533ZM181.722 94.607L181.34 93.6827C177.458 95.2862 173.136 96.096 168.36 96.096V97.096V98.096C173.365 98.096 177.951 97.2465 182.104 95.5313L181.722 94.607ZM222.957 94.738L222.598 95.6714L222.61 95.6757L222.957 94.738ZM217.193 91.201L216.504 91.926L216.506 91.928L217.193 91.201ZM213.263 85.437L212.335 85.8084L212.335 85.8084L213.263 85.437ZM211.953 38.277H212.953V37.277H211.953V38.277ZM200.294 38.277H199.294V39.277H200.294V38.277ZM200.294 28.19V27.19H199.294V28.19H200.294ZM211.953 28.19V29.19H212.953V28.19H211.953ZM211.953 9.32599V8.32599H210.953V9.32599H211.953ZM223.088 9.32599H224.088V8.32599H223.088V9.32599ZM223.088 28.19H222.088V29.19H223.088V28.19ZM239.332 28.19H240.332V27.19H239.332V28.19ZM239.332 38.277V39.277H240.332V38.277H239.332ZM223.088 38.277V37.277H222.088V38.277H223.088ZM225.184 82.817L224.403 83.4417L224.415 83.4564L224.427 83.4706L225.184 82.817ZM239.725 83.472H240.725V81.6607L239.192 82.6258L239.725 83.472ZM239.725 94.345L240.148 95.2512L240.725 94.9819V94.345H239.725ZM235.664 95.655L235.48 94.6721L235.468 94.6744L235.664 95.655ZM230.555 96.048V95.048C227.957 95.048 225.543 94.6294 223.304 93.8003L222.957 94.738L222.61 95.6757C225.087 96.5933 227.738 97.048 230.555 97.048V96.048ZM222.957 94.738L223.316 93.8047C221.152 92.9723 219.346 91.8587 217.88 90.474L217.193 91.201L216.506 91.928C218.184 93.5127 220.221 94.7571 222.598 95.6713L222.957 94.738ZM217.193 91.201L217.882 90.476C216.237 88.9134 215.01 87.1118 214.192 85.0656L213.263 85.437L212.335 85.8084C213.263 88.1288 214.656 90.1699 216.504 91.926L217.193 91.201ZM213.263 85.437L214.192 85.0656C213.378 83.0329 212.953 80.5032 212.953 77.446H211.953H210.953C210.953 80.6768 211.401 83.4745 212.335 85.8084L213.263 85.437ZM211.953 77.446H212.953V38.277H211.953H210.953V77.446H211.953ZM211.953 38.277V37.277H200.294V38.277V39.277H211.953V38.277ZM200.294 38.277H201.294V28.19H200.294H199.294V38.277H200.294ZM200.294 28.19V29.19H211.953V28.19V27.19H200.294V28.19ZM211.953 28.19H212.953V9.32599H211.953H210.953V28.19H211.953ZM211.953 9.32599V10.326H223.088V9.32599V8.32599H211.953V9.32599ZM223.088 9.32599H222.088V28.19H223.088H224.088V9.32599H223.088ZM223.088 28.19V29.19H239.332V28.19V27.19H223.088V28.19ZM239.332 28.19H238.332V38.277H239.332H240.332V28.19H239.332ZM239.332 38.277V37.277H223.088V38.277V39.277H239.332V38.277ZM223.088 38.277H222.088V74.695H223.088H224.088V38.277H223.088ZM223.088 74.695H222.088C222.088 78.4559 222.798 81.4356 224.403 83.4417L225.184 82.817L225.965 82.1923C224.775 80.7051 224.088 78.2701 224.088 74.695H223.088ZM225.184 82.817L224.427 83.4706C226.321 85.6631 229.03 86.699 232.389 86.699V85.699V84.699C229.461 84.699 227.366 83.8136 225.941 82.1634L225.184 82.817ZM232.389 85.699V86.699C235.129 86.699 237.757 85.8929 240.258 84.3182L239.725 83.472L239.192 82.6258C236.977 84.0204 234.715 84.699 232.389 84.699V85.699ZM239.725 83.472H238.725V94.345H239.725H240.725V83.472H239.725ZM239.725 94.345L239.302 93.4388C238.067 94.0153 236.793 94.4258 235.48 94.6721L235.664 95.655L235.848 96.6379C237.33 96.3602 238.763 95.8974 240.148 95.2512L239.725 94.345ZM235.664 95.655L235.468 94.6744C234.248 94.9184 232.618 95.048 230.555 95.048V96.048V97.048C232.684 97.048 234.46 96.9156 235.86 96.6356L235.664 95.655Z" fill="url(#paint0_linear_113_6009)" mask="url(#path-1-outside-1_113_6009)"/>
<defs>
<linearGradient id="paint0_linear_113_6009" x1="204.675" y1="84" x2="202.636" y2="-57.609" gradientUnits="userSpaceOnUse">
<stop/>
<stop offset="0.9999" stop-color="#A098FF"/>
</linearGradient>
</defs>
</svg>
