<svg width="17" height="17" viewBox="0 0 17 17" fill="none" xmlns="http://www.w3.org/2000/svg">
<g clip-path="url(#clip0_12_239)">
<path fill-rule="evenodd" clip-rule="evenodd" d="M4.29349 3.57692C4.29349 2.56901 5.13083 1.73077 6.18695 1.73077H8.08011V5.42307H6.18695C5.13083 5.42307 4.29349 4.58483 4.29349 3.57692ZM6.18695 0.5H8.08011H9.31111H11.2043C12.918 0.5 14.3286 1.8673 14.3286 3.57692C14.3286 4.58771 13.8355 5.47885 13.0782 6.03845C13.8355 6.59809 14.3286 7.4892 14.3286 8.5C14.3286 10.2096 12.918 11.5769 11.2043 11.5769C10.4951 11.5769 9.83778 11.3427 9.31091 10.947V11.5769V13.4231C9.31091 15.1327 7.90038 16.5 6.18673 16.5C4.47307 16.5 3.0625 15.1327 3.0625 13.4231C3.0625 12.4123 3.55557 11.5211 4.31284 10.9615C3.55557 10.4019 3.0625 9.5108 3.0625 8.5C3.0625 7.48913 3.55562 6.598 4.31294 6.0384C3.55575 5.47875 3.06272 4.58766 3.06272 3.57692C3.06272 1.8673 4.47328 0.5 6.18695 0.5ZM8.08018 8.48593C8.08018 8.4906 8.08011 8.49527 8.08011 8.5C8.08011 8.50467 8.08018 8.5094 8.08018 8.51407V10.3461H6.18673C5.13061 10.3461 4.29327 9.50793 4.29327 8.5C4.29327 7.49207 5.13061 6.65387 6.18673 6.65387H8.08018V8.48593ZM9.31091 8.51073C9.31685 9.51387 10.152 10.3461 11.2043 10.3461C12.2604 10.3461 13.0978 9.50793 13.0978 8.5C13.0978 7.49207 12.2604 6.65387 11.2043 6.65387C10.152 6.65387 9.31685 7.48613 9.31091 8.48927V8.51073ZM11.2043 1.73077H9.31111V5.42307H11.2043C12.2604 5.42307 13.0978 4.58483 13.0978 3.57692C13.0978 2.56901 12.2604 1.73077 11.2043 1.73077ZM6.18673 11.5769C5.13061 11.5769 4.29327 12.4151 4.29327 13.4231C4.29327 14.431 5.13061 15.2693 6.18673 15.2693C7.24282 15.2693 8.08018 14.431 8.08018 13.4231V11.5769H6.18673Z" fill="#D9D9D9"/>
</g>
<defs>
<clipPath id="clip0_12_239">
<rect width="16" height="16" fill="white" transform="translate(0.695312 0.5)"/>
</clipPath>
</defs>
</svg>
