<svg width="17" height="17" viewBox="0 0 17 17" fill="none" xmlns="http://www.w3.org/2000/svg">
<g clip-path="url(#clip0_64_173)">
<path fill-rule="evenodd" clip-rule="evenodd" d="M3.3827 0.0062007L3.38432 0.00643087L3.38678 0.00678498L3.39419 0.00787291L3.41864 0.0116223C3.43911 0.0148413 3.46781 0.0195324 3.50384 0.0258598C3.57587 0.0385049 3.67753 0.0577435 3.80164 0.084915C4.04903 0.139074 4.39001 0.225702 4.76562 0.356297C5.36918 0.566153 6.13296 0.913339 6.7201 1.47802C7.45866 1.1954 8.30235 1.05962 9.12891 1.05561L9.13975 1.05553L9.15313 1.05554L9.16652 1.05553L9.17736 1.05561C10.0039 1.05962 10.8477 1.1954 11.5862 1.47802C12.1733 0.913339 12.9371 0.566153 13.5407 0.356297C13.9163 0.225702 14.2572 0.139074 14.5047 0.084915C14.6288 0.0577435 14.7304 0.0385049 14.8024 0.0258598C14.8385 0.0195324 14.8672 0.0148413 14.8877 0.0116223L14.9121 0.00787291L14.9195 0.00678498L14.9219 0.00643087L14.9236 0.0062007C15.2412 -0.0385023 15.5415 0.162747 15.6201 0.472933C15.811 1.22666 15.7848 2.03638 15.6384 2.74427C15.5365 3.23703 15.3689 3.71558 15.1469 4.11262C15.7846 4.91444 16.2973 5.98952 16.2916 7.05722C16.2816 8.93825 15.668 10.208 14.6473 11.0261C13.9311 11.6002 13.0603 11.9129 12.1827 12.0972C12.2117 12.1622 12.2385 12.2284 12.263 12.2955C12.4097 12.6973 12.4715 13.1249 12.4446 13.5516V16.3737C12.4446 16.7196 12.1635 17 11.8167 17C11.4699 17 11.1887 16.7196 11.1887 16.3737V13.5309C11.1887 13.5162 11.1892 13.5015 11.1903 13.4869C11.2086 13.2279 11.172 12.968 11.0829 12.724C10.9938 12.4801 10.8543 12.2576 10.6734 12.0711C10.508 11.9004 10.4535 11.6511 10.5327 11.4273C10.6119 11.2034 10.8112 11.0434 11.0474 11.0141C12.1739 10.8745 13.1579 10.613 13.8606 10.0497C14.527 9.51568 15.0273 8.63784 15.0358 7.05057C15.0401 6.23282 14.5494 5.26991 13.9039 4.59324C13.684 4.36271 13.6724 4.00434 13.8768 3.76009C14.077 3.52098 14.2895 3.06639 14.4085 2.49117C14.4836 2.12755 14.5154 1.7444 14.4928 1.3759C14.3311 1.41811 14.1475 1.47187 13.9541 1.53912C13.2954 1.76814 12.625 2.11892 12.2499 2.61164C12.0672 2.85168 11.739 2.9279 11.4688 2.79306C10.8429 2.48069 10.0125 2.30994 9.15313 2.30817C8.29378 2.30994 7.46348 2.48069 6.83746 2.79306C6.56724 2.9279 6.23906 2.85168 6.05636 2.61164C5.68135 2.11892 5.01091 1.76814 4.35223 1.53912C4.15881 1.47187 3.97524 1.41811 3.81352 1.3759C3.79089 1.7444 3.82263 2.12755 3.89784 2.49117C4.01682 3.06639 4.2293 3.52098 4.42946 3.76009C4.63393 4.00434 4.62228 4.36271 4.40236 4.59324C3.75684 5.26991 3.26617 6.23282 3.27052 7.05057C3.27897 8.63784 3.7793 9.51568 4.44561 10.0497C5.14834 10.613 6.1324 10.8745 7.25891 11.0141C7.49514 11.0434 7.69439 11.2034 7.77358 11.4273C7.85285 11.6511 7.7983 11.9004 7.63284 12.0711C7.45193 12.2576 7.31246 12.4801 7.22335 12.724C7.13431 12.968 7.09769 13.2279 7.11597 13.4869C7.11703 13.5015 7.11753 13.5162 7.11753 13.5309V16.3737C7.11753 16.7196 6.83639 17 6.48959 17C6.14279 17 5.86166 16.7196 5.86166 16.3737V14.5113C5.19252 14.6117 4.62001 14.5789 4.11897 14.4399C3.49297 14.2661 3.03039 13.9409 2.66273 13.601C2.48151 13.4334 2.3209 13.2599 2.17878 13.1023C2.14194 13.0615 2.10692 13.0224 2.07319 12.9847C1.97119 12.8708 1.8809 12.77 1.78742 12.6736C1.54013 12.4189 1.36295 12.2972 1.18401 12.2525C0.847578 12.1686 0.643073 11.8285 0.727232 11.493C0.811389 11.1574 1.15235 10.9535 1.48878 11.0374C2.01674 11.1691 2.39682 11.5006 2.68975 11.8024C2.80251 11.9186 2.91614 12.0455 3.02197 12.1637C3.05287 12.1983 3.08312 12.2321 3.11248 12.2646C3.24852 12.4155 3.37838 12.5546 3.5165 12.6824C3.78754 12.9329 4.07921 13.1286 4.45559 13.2331C4.79352 13.3268 5.24093 13.3583 5.85771 13.2415C5.86977 12.9191 5.93218 12.5998 6.04332 12.2955C6.0678 12.2284 6.09456 12.1622 6.12354 12.0972C5.24595 11.9129 4.37518 11.6002 3.65895 11.0261C2.63823 10.208 2.0247 8.93825 2.01468 7.05722C2.00899 5.98952 2.52164 4.91444 3.15937 4.11262C2.9374 3.71558 2.7698 3.23703 2.66788 2.74427C2.52146 2.03638 2.49522 1.22666 2.68616 0.472933C2.76475 0.162747 3.06508 -0.0385023 3.3827 0.0062007Z" fill="white"/>
</g>
<defs>
<clipPath id="clip0_64_173">
<rect width="17" height="17" fill="white"/>
</clipPath>
</defs>
</svg>
