<svg width="17" height="17" viewBox="0 0 17 17" fill="none" xmlns="http://www.w3.org/2000/svg">
<g clip-path="url(#clip0_64_170)">
<path fill-rule="evenodd" clip-rule="evenodd" d="M2.18777 0.354172C0.979497 0.354172 0 1.33854 0 2.55282C0 3.76711 0.979497 4.75148 2.18777 4.75148C3.39603 4.75148 4.37553 3.76711 4.37553 2.55282C4.37553 1.33854 3.39603 0.354172 2.18777 0.354172ZM1.21941 2.55282C1.21941 2.01536 1.65296 1.57965 2.18777 1.57965C2.72257 1.57965 3.15612 2.01536 3.15612 2.55282C3.15612 3.09029 2.72257 3.526 2.18777 3.526C1.65296 3.526 1.21941 3.09029 1.21941 2.55282Z" fill="white"/>
<path fill-rule="evenodd" clip-rule="evenodd" d="M11.6561 5.11191C10.2388 5.11191 8.87959 5.67774 7.87744 6.6849C6.87524 7.69208 6.31223 9.05803 6.31223 10.4824V16.0331C6.31223 16.3715 6.5852 16.6458 6.92193 16.6458H10.078C10.4148 16.6458 10.6877 16.3715 10.6877 16.0331V10.4824C10.6877 10.2243 10.7897 9.97674 10.9714 9.79427C11.153 9.61174 11.3993 9.50924 11.6561 9.50924C11.913 9.50924 12.1592 9.61174 12.3409 9.79427C12.5225 9.97674 12.6245 10.2243 12.6245 10.4824V16.0331C12.6245 16.3715 12.8975 16.6458 13.2341 16.6458H16.3903C16.727 16.6458 17 16.3715 17 16.0331V10.4824C17 9.05803 16.437 7.69208 15.4348 6.6849C14.4326 5.67774 13.0734 5.11191 11.6561 5.11191ZM11.6561 6.33739C10.5622 6.33739 9.51319 6.7741 8.73969 7.55141C7.96619 8.3288 7.53163 9.38309 7.53163 10.4824V15.4204H9.46835V10.4824C9.46835 9.89925 9.69884 9.34002 10.1091 8.9277C10.5194 8.51538 11.0758 8.28375 11.6561 8.28375C12.2363 8.28375 12.7928 8.51538 13.2031 8.9277C13.6134 9.34002 13.8439 9.89925 13.8439 10.4824V15.4204H15.7806V10.4824C15.7806 9.38309 15.346 8.3288 14.5725 7.55141C13.799 6.7741 12.75 6.33739 11.6561 6.33739Z" fill="white"/>
<path fill-rule="evenodd" clip-rule="evenodd" d="M0 6.51761C0 6.1792 0.272974 5.90487 0.609705 5.90487H3.76583C4.10255 5.90487 4.37553 6.1792 4.37553 6.51761V16.0331C4.37553 16.3715 4.10255 16.6458 3.76583 16.6458H0.609705C0.272974 16.6458 0 16.3715 0 16.0331V6.51761ZM1.21941 7.13037V15.4203H3.15612V7.13037H1.21941Z" fill="white"/>
</g>
<defs>
<clipPath id="clip0_64_170">
<rect width="17" height="17" fill="white"/>
</clipPath>
</defs>
</svg>
