<svg width="17" height="17" viewBox="0 0 17 17" fill="none" xmlns="http://www.w3.org/2000/svg">
<g clip-path="url(#clip0_12_242)">
<path d="M8.69531 0.5C9.0635 0.5 9.36198 0.798477 9.36198 1.16667V2.5C9.36198 2.86819 9.0635 3.16667 8.69531 3.16667C8.32712 3.16667 8.02865 2.86819 8.02865 2.5V1.16667C8.02865 0.798477 8.32712 0.5 8.69531 0.5Z" fill="#D9D9D9"/>
<path fill-rule="evenodd" clip-rule="evenodd" d="M4.69531 8.5C4.69531 6.29086 6.48617 4.5 8.69531 4.5C10.9045 4.5 12.6953 6.29086 12.6953 8.5C12.6953 10.7091 10.9045 12.5 8.69531 12.5C6.48617 12.5 4.69531 10.7091 4.69531 8.5ZM8.69531 5.83333C7.22255 5.83333 6.02865 7.02724 6.02865 8.5C6.02865 9.97276 7.22255 11.1667 8.69531 11.1667C10.1681 11.1667 11.362 9.97276 11.362 8.5C11.362 7.02724 10.1681 5.83333 8.69531 5.83333Z" fill="#D9D9D9"/>
<path d="M9.36198 14.5C9.36198 14.1318 9.0635 13.8333 8.69531 13.8333C8.32712 13.8333 8.02865 14.1318 8.02865 14.5V15.8333C8.02865 16.2015 8.32712 16.5 8.69531 16.5C9.0635 16.5 9.36198 16.2015 9.36198 15.8333V14.5Z" fill="#D9D9D9"/>
<path d="M3.03724 2.84193C3.29759 2.58158 3.7197 2.58158 3.98005 2.84193L4.92672 3.7886C5.18707 4.04895 5.18707 4.47106 4.92672 4.73141C4.66637 4.99175 4.24426 4.99175 3.98391 4.73141L3.03724 3.78474C2.77689 3.52439 2.77689 3.10228 3.03724 2.84193Z" fill="#D9D9D9"/>
<path d="M13.4067 12.2686C13.1464 12.0082 12.7243 12.0082 12.4639 12.2686C12.2036 12.5289 12.2036 12.951 12.4639 13.2114L13.4106 14.1581C13.6709 14.4184 14.093 14.4184 14.3534 14.1581C14.6137 13.8977 14.6137 13.4756 14.3534 13.2153L13.4067 12.2686Z" fill="#D9D9D9"/>
<path d="M0.695312 8.5C0.695312 8.13181 0.993789 7.83333 1.36198 7.83333H2.69531C3.0635 7.83333 3.36198 8.13181 3.36198 8.5C3.36198 8.86819 3.0635 9.16667 2.69531 9.16667H1.36198C0.993789 9.16667 0.695312 8.86819 0.695312 8.5Z" fill="#D9D9D9"/>
<path d="M14.6953 7.83333C14.3271 7.83333 14.0286 8.13181 14.0286 8.5C14.0286 8.86819 14.3271 9.16667 14.6953 9.16667H16.0286C16.3968 9.16667 16.6953 8.86819 16.6953 8.5C16.6953 8.13181 16.3968 7.83333 16.0286 7.83333H14.6953Z" fill="#D9D9D9"/>
<path d="M4.92672 12.2686C5.18707 12.5289 5.18707 12.951 4.92672 13.2114L3.98005 14.1581C3.7197 14.4184 3.29759 14.4184 3.03724 14.1581C2.77689 13.8977 2.77689 13.4756 3.03724 13.2153L3.98391 12.2686C4.24426 12.0082 4.66637 12.0082 4.92672 12.2686Z" fill="#D9D9D9"/>
<path d="M14.3534 3.78474C14.6137 3.52439 14.6137 3.10228 14.3534 2.84193C14.093 2.58158 13.6709 2.58158 13.4106 2.84193L12.4639 3.7886C12.2036 4.04895 12.2036 4.47106 12.4639 4.73141C12.7243 4.99175 13.1464 4.99175 13.4067 4.73141L14.3534 3.78474Z" fill="#D9D9D9"/>
</g>
<defs>
<clipPath id="clip0_12_242">
<rect width="16" height="16" fill="white" transform="translate(0.695312 0.5)"/>
</clipPath>
</defs>
</svg>
